G04 #@! TF.GenerationSoftware,KiCad,Pcbnew,5.1.7-a382d34a8~87~ubuntu20.04.1*
G04 #@! TF.CreationDate,2020-10-01T12:29:21+02:00*
G04 #@! TF.ProjectId,wowmeter,776f776d-6574-4657-922e-6b696361645f,rev?*
G04 #@! TF.SameCoordinates,Original*
G04 #@! TF.FileFunction,Soldermask,Bot*
G04 #@! TF.FilePolarity,Negative*
%FSLAX46Y46*%
G04 Gerber Fmt 4.6, Leading zero omitted, Abs format (unit mm)*
G04 Created by KiCad (PCBNEW 5.1.7-a382d34a8~87~ubuntu20.04.1) date 2020-10-01 12:29:21*
%MOMM*%
%LPD*%
G01*
G04 APERTURE LIST*
%ADD10C,2.125000*%
%ADD11O,1.800000X1.800000*%
%ADD12O,1.700000X1.700000*%
%ADD13C,1.700000*%
%ADD14C,1.540000*%
%ADD15C,1.900000*%
%ADD16C,3.100000*%
%ADD17C,3.300000*%
G04 APERTURE END LIST*
D10*
X54102000Y-85344000D03*
X43942000Y-85344000D03*
X33782000Y-85344000D03*
X33782000Y-39624000D03*
X54102000Y-39624000D03*
G36*
G01*
X133974000Y-52348500D02*
X133974000Y-50648500D01*
G75*
G02*
X134024000Y-50598500I50000J0D01*
G01*
X135724000Y-50598500D01*
G75*
G02*
X135774000Y-50648500I0J-50000D01*
G01*
X135774000Y-52348500D01*
G75*
G02*
X135724000Y-52398500I-50000J0D01*
G01*
X134024000Y-52398500D01*
G75*
G02*
X133974000Y-52348500I0J50000D01*
G01*
G37*
G36*
G01*
X142483000Y-54253500D02*
X142483000Y-52553500D01*
G75*
G02*
X142533000Y-52503500I50000J0D01*
G01*
X144233000Y-52503500D01*
G75*
G02*
X144283000Y-52553500I0J-50000D01*
G01*
X144283000Y-54253500D01*
G75*
G02*
X144233000Y-54303500I-50000J0D01*
G01*
X142533000Y-54303500D01*
G75*
G02*
X142483000Y-54253500I0J50000D01*
G01*
G37*
G36*
G01*
X108828000Y-63905500D02*
X108828000Y-62205500D01*
G75*
G02*
X108878000Y-62155500I50000J0D01*
G01*
X110578000Y-62155500D01*
G75*
G02*
X110628000Y-62205500I0J-50000D01*
G01*
X110628000Y-63905500D01*
G75*
G02*
X110578000Y-63955500I-50000J0D01*
G01*
X108878000Y-63955500D01*
G75*
G02*
X108828000Y-63905500I0J50000D01*
G01*
G37*
G36*
G01*
X69585000Y-23329000D02*
X69585000Y-21629000D01*
G75*
G02*
X69635000Y-21579000I50000J0D01*
G01*
X71335000Y-21579000D01*
G75*
G02*
X71385000Y-21629000I0J-50000D01*
G01*
X71385000Y-23329000D01*
G75*
G02*
X71335000Y-23379000I-50000J0D01*
G01*
X69635000Y-23379000D01*
G75*
G02*
X69585000Y-23329000I0J50000D01*
G01*
G37*
D11*
X69723000Y-91313000D03*
X69723000Y-88773000D03*
X69723000Y-86233000D03*
G36*
G01*
X68823000Y-84543000D02*
X68823000Y-82843000D01*
G75*
G02*
X68873000Y-82793000I50000J0D01*
G01*
X70573000Y-82793000D01*
G75*
G02*
X70623000Y-82843000I0J-50000D01*
G01*
X70623000Y-84543000D01*
G75*
G02*
X70573000Y-84593000I-50000J0D01*
G01*
X68873000Y-84593000D01*
G75*
G02*
X68823000Y-84543000I0J50000D01*
G01*
G37*
X70485000Y-29464000D03*
G36*
G01*
X69585000Y-27774000D02*
X69585000Y-26074000D01*
G75*
G02*
X69635000Y-26024000I50000J0D01*
G01*
X71335000Y-26024000D01*
G75*
G02*
X71385000Y-26074000I0J-50000D01*
G01*
X71385000Y-27774000D01*
G75*
G02*
X71335000Y-27824000I-50000J0D01*
G01*
X69635000Y-27824000D01*
G75*
G02*
X69585000Y-27774000I0J50000D01*
G01*
G37*
D12*
X73152000Y-93853000D03*
D13*
X80772000Y-93853000D03*
D12*
X83439000Y-93853000D03*
D13*
X91059000Y-93853000D03*
D12*
X73152000Y-83312000D03*
D13*
X80772000Y-83312000D03*
D12*
X83439000Y-83312000D03*
D13*
X91059000Y-83312000D03*
D12*
X83439000Y-88646000D03*
D13*
X91059000Y-88646000D03*
D12*
X106172000Y-85979000D03*
D13*
X113792000Y-85979000D03*
D12*
X106172000Y-91059000D03*
D13*
X113792000Y-91059000D03*
D12*
X123825000Y-82677000D03*
D13*
X116205000Y-82677000D03*
D12*
X138620500Y-91821000D03*
D13*
X146240500Y-91821000D03*
D12*
X156781500Y-77470000D03*
D13*
X156781500Y-85090000D03*
D12*
X138747500Y-76200000D03*
D13*
X146367500Y-76200000D03*
D12*
X156908500Y-87757000D03*
D13*
X149288500Y-87757000D03*
D12*
X148907500Y-50863500D03*
D13*
X148907500Y-58483500D03*
D12*
X148780500Y-34988500D03*
D13*
X148780500Y-42608500D03*
D12*
X138684000Y-45593000D03*
D13*
X138684000Y-53213000D03*
D14*
X122364500Y-30670500D03*
X124904500Y-28130500D03*
X122364500Y-25590500D03*
D12*
X146113500Y-18923000D03*
D13*
X138493500Y-18923000D03*
D12*
X135763000Y-21844000D03*
D13*
X135763000Y-29464000D03*
D14*
X145034000Y-25781000D03*
X142494000Y-23241000D03*
X139954000Y-25781000D03*
D12*
X149225000Y-21907500D03*
D13*
X149225000Y-29527500D03*
D12*
X101981000Y-51752500D03*
D13*
X109601000Y-51752500D03*
D12*
X109664500Y-55308500D03*
D13*
X102044500Y-55308500D03*
D12*
X99504500Y-69786500D03*
D13*
X107124500Y-69786500D03*
D14*
X89852500Y-63944500D03*
X87312500Y-61404500D03*
X84772500Y-63944500D03*
D12*
X91884500Y-49593500D03*
D13*
X99504500Y-49593500D03*
D12*
X124396500Y-42862500D03*
D13*
X124396500Y-35242500D03*
D12*
X104076500Y-17145000D03*
D13*
X111696500Y-17145000D03*
D12*
X117729000Y-20701000D03*
D13*
X125349000Y-20701000D03*
D12*
X112204500Y-28638500D03*
D13*
X112204500Y-21018500D03*
D12*
X132143500Y-21907500D03*
D13*
X132143500Y-29527500D03*
D12*
X128460500Y-17589500D03*
D13*
X136080500Y-17589500D03*
D12*
X87566500Y-38608000D03*
D13*
X95186500Y-38608000D03*
D15*
X82169000Y-20701000D03*
X84709000Y-25781000D03*
X82169000Y-33401000D03*
D12*
X66421000Y-20701000D03*
D13*
X66421000Y-28321000D03*
D12*
X74422000Y-28321000D03*
D13*
X74422000Y-20701000D03*
D11*
X61912500Y-83693000D03*
G36*
G01*
X62812500Y-85383000D02*
X62812500Y-87083000D01*
G75*
G02*
X62762500Y-87133000I-50000J0D01*
G01*
X61062500Y-87133000D01*
G75*
G02*
X61012500Y-87083000I0J50000D01*
G01*
X61012500Y-85383000D01*
G75*
G02*
X61062500Y-85333000I50000J0D01*
G01*
X62762500Y-85333000D01*
G75*
G02*
X62812500Y-85383000I0J-50000D01*
G01*
G37*
X144907000Y-59880500D03*
G36*
G01*
X145807000Y-61570500D02*
X145807000Y-63270500D01*
G75*
G02*
X145757000Y-63320500I-50000J0D01*
G01*
X144057000Y-63320500D01*
G75*
G02*
X144007000Y-63270500I0J50000D01*
G01*
X144007000Y-61570500D01*
G75*
G02*
X144057000Y-61520500I50000J0D01*
G01*
X145757000Y-61520500D01*
G75*
G02*
X145807000Y-61570500I0J-50000D01*
G01*
G37*
D16*
X44276000Y-25146000D03*
G36*
G01*
X50826000Y-23646000D02*
X50826000Y-26646000D01*
G75*
G02*
X50776000Y-26696000I-50000J0D01*
G01*
X47776000Y-26696000D01*
G75*
G02*
X47726000Y-26646000I0J50000D01*
G01*
X47726000Y-23646000D01*
G75*
G02*
X47776000Y-23596000I50000J0D01*
G01*
X50776000Y-23596000D01*
G75*
G02*
X50826000Y-23646000I0J-50000D01*
G01*
G37*
D11*
X94615000Y-24892000D03*
G36*
G01*
X92925000Y-25792000D02*
X91225000Y-25792000D01*
G75*
G02*
X91175000Y-25742000I0J50000D01*
G01*
X91175000Y-24042000D01*
G75*
G02*
X91225000Y-23992000I50000J0D01*
G01*
X92925000Y-23992000D01*
G75*
G02*
X92975000Y-24042000I0J-50000D01*
G01*
X92975000Y-25742000D01*
G75*
G02*
X92925000Y-25792000I-50000J0D01*
G01*
G37*
X69469000Y-17526000D03*
G36*
G01*
X71159000Y-16626000D02*
X72859000Y-16626000D01*
G75*
G02*
X72909000Y-16676000I0J-50000D01*
G01*
X72909000Y-18376000D01*
G75*
G02*
X72859000Y-18426000I-50000J0D01*
G01*
X71159000Y-18426000D01*
G75*
G02*
X71109000Y-18376000I0J50000D01*
G01*
X71109000Y-16676000D01*
G75*
G02*
X71159000Y-16626000I50000J0D01*
G01*
G37*
D12*
X116205000Y-93599000D03*
X123825000Y-85979000D03*
X116205000Y-91059000D03*
X123825000Y-88519000D03*
X116205000Y-88519000D03*
X123825000Y-91059000D03*
X116205000Y-85979000D03*
G36*
G01*
X124675000Y-92799000D02*
X124675000Y-94399000D01*
G75*
G02*
X124625000Y-94449000I-50000J0D01*
G01*
X123025000Y-94449000D01*
G75*
G02*
X122975000Y-94399000I0J50000D01*
G01*
X122975000Y-92799000D01*
G75*
G02*
X123025000Y-92749000I50000J0D01*
G01*
X124625000Y-92749000D01*
G75*
G02*
X124675000Y-92799000I0J-50000D01*
G01*
G37*
X138620500Y-88265000D03*
X146240500Y-80645000D03*
X138620500Y-85725000D03*
X146240500Y-83185000D03*
X138620500Y-83185000D03*
X146240500Y-85725000D03*
X138620500Y-80645000D03*
G36*
G01*
X147090500Y-87465000D02*
X147090500Y-89065000D01*
G75*
G02*
X147040500Y-89115000I-50000J0D01*
G01*
X145440500Y-89115000D01*
G75*
G02*
X145390500Y-89065000I0J50000D01*
G01*
X145390500Y-87465000D01*
G75*
G02*
X145440500Y-87415000I50000J0D01*
G01*
X147040500Y-87415000D01*
G75*
G02*
X147090500Y-87465000I0J-50000D01*
G01*
G37*
X138684000Y-64198500D03*
X131064000Y-56578500D03*
X136144000Y-64198500D03*
X133604000Y-56578500D03*
X133604000Y-64198500D03*
X136144000Y-56578500D03*
X131064000Y-64198500D03*
G36*
G01*
X137884000Y-55728500D02*
X139484000Y-55728500D01*
G75*
G02*
X139534000Y-55778500I0J-50000D01*
G01*
X139534000Y-57378500D01*
G75*
G02*
X139484000Y-57428500I-50000J0D01*
G01*
X137884000Y-57428500D01*
G75*
G02*
X137834000Y-57378500I0J50000D01*
G01*
X137834000Y-55778500D01*
G75*
G02*
X137884000Y-55728500I50000J0D01*
G01*
G37*
X104584500Y-66103500D03*
X96964500Y-58483500D03*
X102044500Y-66103500D03*
X99504500Y-58483500D03*
X99504500Y-66103500D03*
X102044500Y-58483500D03*
X96964500Y-66103500D03*
G36*
G01*
X103784500Y-57633500D02*
X105384500Y-57633500D01*
G75*
G02*
X105434500Y-57683500I0J-50000D01*
G01*
X105434500Y-59283500D01*
G75*
G02*
X105384500Y-59333500I-50000J0D01*
G01*
X103784500Y-59333500D01*
G75*
G02*
X103734500Y-59283500I0J50000D01*
G01*
X103734500Y-57683500D01*
G75*
G02*
X103784500Y-57633500I50000J0D01*
G01*
G37*
X143764000Y-42735500D03*
X128524000Y-35115500D03*
X141224000Y-42735500D03*
X131064000Y-35115500D03*
X138684000Y-42735500D03*
X133604000Y-35115500D03*
X136144000Y-42735500D03*
X136144000Y-35115500D03*
X133604000Y-42735500D03*
X138684000Y-35115500D03*
X131064000Y-42735500D03*
X141224000Y-35115500D03*
X128524000Y-42735500D03*
G36*
G01*
X142964000Y-34265500D02*
X144564000Y-34265500D01*
G75*
G02*
X144614000Y-34315500I0J-50000D01*
G01*
X144614000Y-35915500D01*
G75*
G02*
X144564000Y-35965500I-50000J0D01*
G01*
X142964000Y-35965500D01*
G75*
G02*
X142914000Y-35915500I0J50000D01*
G01*
X142914000Y-34315500D01*
G75*
G02*
X142964000Y-34265500I50000J0D01*
G01*
G37*
X107061000Y-35687000D03*
X91821000Y-28067000D03*
X104521000Y-35687000D03*
X94361000Y-28067000D03*
X101981000Y-35687000D03*
X96901000Y-28067000D03*
X99441000Y-35687000D03*
X99441000Y-28067000D03*
X96901000Y-35687000D03*
X101981000Y-28067000D03*
X94361000Y-35687000D03*
X104521000Y-28067000D03*
X91821000Y-35687000D03*
G36*
G01*
X106261000Y-27217000D02*
X107861000Y-27217000D01*
G75*
G02*
X107911000Y-27267000I0J-50000D01*
G01*
X107911000Y-28867000D01*
G75*
G02*
X107861000Y-28917000I-50000J0D01*
G01*
X106261000Y-28917000D01*
G75*
G02*
X106211000Y-28867000I0J50000D01*
G01*
X106211000Y-27267000D01*
G75*
G02*
X106261000Y-27217000I50000J0D01*
G01*
G37*
X73787000Y-48514000D03*
X66167000Y-40894000D03*
X71247000Y-48514000D03*
X68707000Y-40894000D03*
X68707000Y-48514000D03*
X71247000Y-40894000D03*
X66167000Y-48514000D03*
G36*
G01*
X72987000Y-40044000D02*
X74587000Y-40044000D01*
G75*
G02*
X74637000Y-40094000I0J-50000D01*
G01*
X74637000Y-41694000D01*
G75*
G02*
X74587000Y-41744000I-50000J0D01*
G01*
X72987000Y-41744000D01*
G75*
G02*
X72937000Y-41694000I0J50000D01*
G01*
X72937000Y-40094000D01*
G75*
G02*
X72987000Y-40044000I50000J0D01*
G01*
G37*
X123825000Y-96901000D03*
G36*
G01*
X115355000Y-97701000D02*
X115355000Y-96101000D01*
G75*
G02*
X115405000Y-96051000I50000J0D01*
G01*
X117005000Y-96051000D01*
G75*
G02*
X117055000Y-96101000I0J-50000D01*
G01*
X117055000Y-97701000D01*
G75*
G02*
X117005000Y-97751000I-50000J0D01*
G01*
X115405000Y-97751000D01*
G75*
G02*
X115355000Y-97701000I0J50000D01*
G01*
G37*
X126492000Y-91059000D03*
G36*
G01*
X134962000Y-90259000D02*
X134962000Y-91859000D01*
G75*
G02*
X134912000Y-91909000I-50000J0D01*
G01*
X133312000Y-91909000D01*
G75*
G02*
X133262000Y-91859000I0J50000D01*
G01*
X133262000Y-90259000D01*
G75*
G02*
X133312000Y-90209000I50000J0D01*
G01*
X134912000Y-90209000D01*
G75*
G02*
X134962000Y-90259000I0J-50000D01*
G01*
G37*
D15*
X107061000Y-24638000D03*
G36*
G01*
X106161000Y-21148000D02*
X107961000Y-21148000D01*
G75*
G02*
X108011000Y-21198000I0J-50000D01*
G01*
X108011000Y-22998000D01*
G75*
G02*
X107961000Y-23048000I-50000J0D01*
G01*
X106161000Y-23048000D01*
G75*
G02*
X106111000Y-22998000I0J50000D01*
G01*
X106111000Y-21198000D01*
G75*
G02*
X106161000Y-21148000I50000J0D01*
G01*
G37*
D12*
X95186500Y-41910000D03*
G36*
G01*
X86716500Y-42710000D02*
X86716500Y-41110000D01*
G75*
G02*
X86766500Y-41060000I50000J0D01*
G01*
X88366500Y-41060000D01*
G75*
G02*
X88416500Y-41110000I0J-50000D01*
G01*
X88416500Y-42710000D01*
G75*
G02*
X88366500Y-42760000I-50000J0D01*
G01*
X86766500Y-42760000D01*
G75*
G02*
X86716500Y-42710000I0J50000D01*
G01*
G37*
X128905000Y-21907500D03*
G36*
G01*
X129705000Y-30377500D02*
X128105000Y-30377500D01*
G75*
G02*
X128055000Y-30327500I0J50000D01*
G01*
X128055000Y-28727500D01*
G75*
G02*
X128105000Y-28677500I50000J0D01*
G01*
X129705000Y-28677500D01*
G75*
G02*
X129755000Y-28727500I0J-50000D01*
G01*
X129755000Y-30327500D01*
G75*
G02*
X129705000Y-30377500I-50000J0D01*
G01*
G37*
D13*
X131492000Y-93980000D03*
X126492000Y-93980000D03*
X154034500Y-79883000D03*
X149034500Y-79883000D03*
X136127500Y-85725000D03*
X131127500Y-85725000D03*
X127190500Y-61578500D03*
X127190500Y-56578500D03*
X127357500Y-51498500D03*
G36*
G01*
X130707500Y-50698500D02*
X130707500Y-52298500D01*
G75*
G02*
X130657500Y-52348500I-50000J0D01*
G01*
X129057500Y-52348500D01*
G75*
G02*
X129007500Y-52298500I0J50000D01*
G01*
X129007500Y-50698500D01*
G75*
G02*
X129057500Y-50648500I50000J0D01*
G01*
X130657500Y-50648500D01*
G75*
G02*
X130707500Y-50698500I0J-50000D01*
G01*
G37*
X131271000Y-68072000D03*
X136271000Y-68072000D03*
X110299500Y-75548500D03*
X110299500Y-70548500D03*
X117221000Y-48474000D03*
G36*
G01*
X116421000Y-45124000D02*
X118021000Y-45124000D01*
G75*
G02*
X118071000Y-45174000I0J-50000D01*
G01*
X118071000Y-46774000D01*
G75*
G02*
X118021000Y-46824000I-50000J0D01*
G01*
X116421000Y-46824000D01*
G75*
G02*
X116371000Y-46774000I0J50000D01*
G01*
X116371000Y-45174000D01*
G75*
G02*
X116421000Y-45124000I50000J0D01*
G01*
G37*
X91901000Y-54546500D03*
X96901000Y-54546500D03*
X147113000Y-45466000D03*
X142113000Y-45466000D03*
X120349000Y-17081500D03*
X125349000Y-17081500D03*
X115570000Y-29066500D03*
X115570000Y-24066500D03*
X104060000Y-38608000D03*
X99060000Y-38608000D03*
X90511000Y-20066000D03*
G36*
G01*
X87161000Y-20866000D02*
X87161000Y-19266000D01*
G75*
G02*
X87211000Y-19216000I50000J0D01*
G01*
X88811000Y-19216000D01*
G75*
G02*
X88861000Y-19266000I0J-50000D01*
G01*
X88861000Y-20866000D01*
G75*
G02*
X88811000Y-20916000I-50000J0D01*
G01*
X87211000Y-20916000D01*
G75*
G02*
X87161000Y-20866000I0J50000D01*
G01*
G37*
X82931000Y-38648000D03*
G36*
G01*
X83731000Y-41998000D02*
X82131000Y-41998000D01*
G75*
G02*
X82081000Y-41948000I0J50000D01*
G01*
X82081000Y-40348000D01*
G75*
G02*
X82131000Y-40298000I50000J0D01*
G01*
X83731000Y-40298000D01*
G75*
G02*
X83781000Y-40348000I0J-50000D01*
G01*
X83781000Y-41948000D01*
G75*
G02*
X83731000Y-41998000I-50000J0D01*
G01*
G37*
X65675500Y-38100000D03*
X70675500Y-38100000D03*
X66247000Y-51562000D03*
X71247000Y-51562000D03*
D17*
X33020000Y-20320000D03*
X99187000Y-20320000D03*
X155384500Y-20320000D03*
X155384500Y-93980000D03*
X99187000Y-93980000D03*
X32512000Y-93980000D03*
D13*
X113728500Y-75501500D03*
X113728500Y-70501500D03*
X154034500Y-83185000D03*
X149034500Y-83185000D03*
M02*
