G04 #@! TF.GenerationSoftware,KiCad,Pcbnew,5.1.7-a382d34a8~87~ubuntu20.04.1*
G04 #@! TF.CreationDate,2020-10-01T12:29:21+02:00*
G04 #@! TF.ProjectId,wowmeter,776f776d-6574-4657-922e-6b696361645f,rev?*
G04 #@! TF.SameCoordinates,Original*
G04 #@! TF.FileFunction,Legend,Top*
G04 #@! TF.FilePolarity,Positive*
%FSLAX46Y46*%
G04 Gerber Fmt 4.6, Leading zero omitted, Abs format (unit mm)*
G04 Created by KiCad (PCBNEW 5.1.7-a382d34a8~87~ubuntu20.04.1) date 2020-10-01 12:29:21*
%MOMM*%
%LPD*%
G01*
G04 APERTURE LIST*
%ADD10C,0.150000*%
%ADD11C,0.120000*%
%ADD12C,0.100000*%
G04 APERTURE END LIST*
D10*
X36545619Y-17216380D02*
X36545619Y-16216380D01*
X36783714Y-16216380D01*
X36926571Y-16264000D01*
X37021809Y-16359238D01*
X37069428Y-16454476D01*
X37117047Y-16644952D01*
X37117047Y-16787809D01*
X37069428Y-16978285D01*
X37021809Y-17073523D01*
X36926571Y-17168761D01*
X36783714Y-17216380D01*
X36545619Y-17216380D01*
X37974190Y-17216380D02*
X37974190Y-16692571D01*
X37926571Y-16597333D01*
X37831333Y-16549714D01*
X37640857Y-16549714D01*
X37545619Y-16597333D01*
X37974190Y-17168761D02*
X37878952Y-17216380D01*
X37640857Y-17216380D01*
X37545619Y-17168761D01*
X37498000Y-17073523D01*
X37498000Y-16978285D01*
X37545619Y-16883047D01*
X37640857Y-16835428D01*
X37878952Y-16835428D01*
X37974190Y-16787809D01*
X38450380Y-16549714D02*
X38450380Y-17216380D01*
X38450380Y-16644952D02*
X38498000Y-16597333D01*
X38593238Y-16549714D01*
X38736095Y-16549714D01*
X38831333Y-16597333D01*
X38878952Y-16692571D01*
X38878952Y-17216380D01*
X39783714Y-16549714D02*
X39783714Y-17359238D01*
X39736095Y-17454476D01*
X39688476Y-17502095D01*
X39593238Y-17549714D01*
X39450380Y-17549714D01*
X39355142Y-17502095D01*
X39783714Y-17168761D02*
X39688476Y-17216380D01*
X39497999Y-17216380D01*
X39402761Y-17168761D01*
X39355142Y-17121142D01*
X39307523Y-17025904D01*
X39307523Y-16740190D01*
X39355142Y-16644952D01*
X39402761Y-16597333D01*
X39497999Y-16549714D01*
X39688476Y-16549714D01*
X39783714Y-16597333D01*
X40640857Y-17168761D02*
X40545619Y-17216380D01*
X40355142Y-17216380D01*
X40259904Y-17168761D01*
X40212285Y-17073523D01*
X40212285Y-16692571D01*
X40259904Y-16597333D01*
X40355142Y-16549714D01*
X40545619Y-16549714D01*
X40640857Y-16597333D01*
X40688476Y-16692571D01*
X40688476Y-16787809D01*
X40212285Y-16883047D01*
X41117047Y-17216380D02*
X41117047Y-16549714D01*
X41117047Y-16740190D02*
X41164666Y-16644952D01*
X41212285Y-16597333D01*
X41307523Y-16549714D01*
X41402761Y-16549714D01*
X41736095Y-17121142D02*
X41783714Y-17168761D01*
X41736095Y-17216380D01*
X41688476Y-17168761D01*
X41736095Y-17121142D01*
X41736095Y-17216380D01*
X41736095Y-16835428D02*
X41688476Y-16264000D01*
X41736095Y-16216380D01*
X41783714Y-16264000D01*
X41736095Y-16835428D01*
X41736095Y-16216380D01*
X42974190Y-17216380D02*
X42974190Y-16216380D01*
X43212285Y-16216380D01*
X43355142Y-16264000D01*
X43450380Y-16359238D01*
X43498000Y-16454476D01*
X43545619Y-16644952D01*
X43545619Y-16787809D01*
X43498000Y-16978285D01*
X43450380Y-17073523D01*
X43355142Y-17168761D01*
X43212285Y-17216380D01*
X42974190Y-17216380D01*
X44402761Y-17216380D02*
X44402761Y-16692571D01*
X44355142Y-16597333D01*
X44259904Y-16549714D01*
X44069428Y-16549714D01*
X43974190Y-16597333D01*
X44402761Y-17168761D02*
X44307523Y-17216380D01*
X44069428Y-17216380D01*
X43974190Y-17168761D01*
X43926571Y-17073523D01*
X43926571Y-16978285D01*
X43974190Y-16883047D01*
X44069428Y-16835428D01*
X44307523Y-16835428D01*
X44402761Y-16787809D01*
X44878952Y-16549714D02*
X44878952Y-17216380D01*
X44878952Y-16644952D02*
X44926571Y-16597333D01*
X45021809Y-16549714D01*
X45164666Y-16549714D01*
X45259904Y-16597333D01*
X45307523Y-16692571D01*
X45307523Y-17216380D01*
X46212285Y-16549714D02*
X46212285Y-17359238D01*
X46164666Y-17454476D01*
X46117047Y-17502095D01*
X46021809Y-17549714D01*
X45878952Y-17549714D01*
X45783714Y-17502095D01*
X46212285Y-17168761D02*
X46117047Y-17216380D01*
X45926571Y-17216380D01*
X45831333Y-17168761D01*
X45783714Y-17121142D01*
X45736095Y-17025904D01*
X45736095Y-16740190D01*
X45783714Y-16644952D01*
X45831333Y-16597333D01*
X45926571Y-16549714D01*
X46117047Y-16549714D01*
X46212285Y-16597333D01*
X47069428Y-17168761D02*
X46974190Y-17216380D01*
X46783714Y-17216380D01*
X46688476Y-17168761D01*
X46640857Y-17073523D01*
X46640857Y-16692571D01*
X46688476Y-16597333D01*
X46783714Y-16549714D01*
X46974190Y-16549714D01*
X47069428Y-16597333D01*
X47117047Y-16692571D01*
X47117047Y-16787809D01*
X46640857Y-16883047D01*
X47545619Y-17216380D02*
X47545619Y-16549714D01*
X47545619Y-16740190D02*
X47593238Y-16644952D01*
X47640857Y-16597333D01*
X47736095Y-16549714D01*
X47831333Y-16549714D01*
X48164666Y-17121142D02*
X48212285Y-17168761D01*
X48164666Y-17216380D01*
X48117047Y-17168761D01*
X48164666Y-17121142D01*
X48164666Y-17216380D01*
X48164666Y-16835428D02*
X48117047Y-16264000D01*
X48164666Y-16216380D01*
X48212285Y-16264000D01*
X48164666Y-16835428D01*
X48164666Y-16216380D01*
X49402761Y-17216380D02*
X49402761Y-16216380D01*
X49402761Y-16692571D02*
X49974190Y-16692571D01*
X49974190Y-17216380D02*
X49974190Y-16216380D01*
X50450380Y-17216380D02*
X50450380Y-16549714D01*
X50450380Y-16216380D02*
X50402761Y-16264000D01*
X50450380Y-16311619D01*
X50497999Y-16264000D01*
X50450380Y-16216380D01*
X50450380Y-16311619D01*
X51355142Y-16549714D02*
X51355142Y-17359238D01*
X51307523Y-17454476D01*
X51259904Y-17502095D01*
X51164666Y-17549714D01*
X51021809Y-17549714D01*
X50926571Y-17502095D01*
X51355142Y-17168761D02*
X51259904Y-17216380D01*
X51069428Y-17216380D01*
X50974190Y-17168761D01*
X50926571Y-17121142D01*
X50878952Y-17025904D01*
X50878952Y-16740190D01*
X50926571Y-16644952D01*
X50974190Y-16597333D01*
X51069428Y-16549714D01*
X51259904Y-16549714D01*
X51355142Y-16597333D01*
X51831333Y-17216380D02*
X51831333Y-16216380D01*
X52259904Y-17216380D02*
X52259904Y-16692571D01*
X52212285Y-16597333D01*
X52117047Y-16549714D01*
X51974190Y-16549714D01*
X51878952Y-16597333D01*
X51831333Y-16644952D01*
X53402761Y-16549714D02*
X53640857Y-17216380D01*
X53878952Y-16549714D01*
X54402761Y-17216380D02*
X54307523Y-17168761D01*
X54259904Y-17121142D01*
X54212285Y-17025904D01*
X54212285Y-16740190D01*
X54259904Y-16644952D01*
X54307523Y-16597333D01*
X54402761Y-16549714D01*
X54545619Y-16549714D01*
X54640857Y-16597333D01*
X54688476Y-16644952D01*
X54736095Y-16740190D01*
X54736095Y-17025904D01*
X54688476Y-17121142D01*
X54640857Y-17168761D01*
X54545619Y-17216380D01*
X54402761Y-17216380D01*
X55307523Y-17216380D02*
X55212285Y-17168761D01*
X55164666Y-17073523D01*
X55164666Y-16216380D01*
X55545619Y-16549714D02*
X55926571Y-16549714D01*
X55688476Y-16216380D02*
X55688476Y-17073523D01*
X55736095Y-17168761D01*
X55831333Y-17216380D01*
X55926571Y-17216380D01*
X56688476Y-17216380D02*
X56688476Y-16692571D01*
X56640857Y-16597333D01*
X56545619Y-16549714D01*
X56355142Y-16549714D01*
X56259904Y-16597333D01*
X56688476Y-17168761D02*
X56593238Y-17216380D01*
X56355142Y-17216380D01*
X56259904Y-17168761D01*
X56212285Y-17073523D01*
X56212285Y-16978285D01*
X56259904Y-16883047D01*
X56355142Y-16835428D01*
X56593238Y-16835428D01*
X56688476Y-16787809D01*
X57593238Y-16549714D02*
X57593238Y-17359238D01*
X57545619Y-17454476D01*
X57497999Y-17502095D01*
X57402761Y-17549714D01*
X57259904Y-17549714D01*
X57164666Y-17502095D01*
X57593238Y-17168761D02*
X57497999Y-17216380D01*
X57307523Y-17216380D01*
X57212285Y-17168761D01*
X57164666Y-17121142D01*
X57117047Y-17025904D01*
X57117047Y-16740190D01*
X57164666Y-16644952D01*
X57212285Y-16597333D01*
X57307523Y-16549714D01*
X57497999Y-16549714D01*
X57593238Y-16597333D01*
X58450380Y-17168761D02*
X58355142Y-17216380D01*
X58164666Y-17216380D01*
X58069428Y-17168761D01*
X58021809Y-17073523D01*
X58021809Y-16692571D01*
X58069428Y-16597333D01*
X58164666Y-16549714D01*
X58355142Y-16549714D01*
X58450380Y-16597333D01*
X58497999Y-16692571D01*
X58497999Y-16787809D01*
X58021809Y-16883047D01*
D11*
X77597000Y-53975000D02*
X77597000Y-73596500D01*
D10*
X59659589Y-72084169D02*
X59902025Y-71841732D01*
X59538370Y-71781123D02*
X60083853Y-72326606D01*
X60174767Y-72356910D01*
X60265680Y-72326606D01*
X60326289Y-72265997D01*
X60538421Y-72053865D02*
X59902025Y-71417468D01*
X60811163Y-71781123D02*
X60477812Y-71447773D01*
X60386899Y-71417468D01*
X60295985Y-71447773D01*
X60205071Y-71538687D01*
X60174767Y-71629600D01*
X60174767Y-71690210D01*
X61114208Y-71478078D02*
X60689944Y-71053813D01*
X60477812Y-70841681D02*
X60477812Y-70902291D01*
X60538421Y-70902291D01*
X60538421Y-70841681D01*
X60477812Y-70841681D01*
X60538421Y-70902291D01*
X61356645Y-71175032D02*
X61447559Y-71144727D01*
X61568777Y-71023509D01*
X61599082Y-70932595D01*
X61568777Y-70841681D01*
X61538472Y-70811377D01*
X61447559Y-70781072D01*
X61356645Y-70811377D01*
X61265731Y-70902291D01*
X61174818Y-70932595D01*
X61083904Y-70902291D01*
X61053599Y-70871986D01*
X61023295Y-70781072D01*
X61053599Y-70690159D01*
X61144513Y-70599245D01*
X61235427Y-70568940D01*
X62356696Y-70174981D02*
X62447610Y-70144676D01*
X62568828Y-70023458D01*
X62599133Y-69932544D01*
X62568828Y-69841630D01*
X62538523Y-69811326D01*
X62447610Y-69781021D01*
X62356696Y-69811326D01*
X62265782Y-69902240D01*
X62174869Y-69932544D01*
X62083955Y-69902240D01*
X62053650Y-69871935D01*
X62023346Y-69781021D01*
X62053650Y-69690108D01*
X62144564Y-69599194D01*
X62235478Y-69568889D01*
X62508219Y-69235539D02*
X63144615Y-69871935D01*
X62538523Y-69265843D02*
X62568828Y-69174930D01*
X62690046Y-69053711D01*
X62780960Y-69023407D01*
X62841569Y-69023407D01*
X62932483Y-69053711D01*
X63114310Y-69235539D01*
X63144615Y-69326453D01*
X63144615Y-69387062D01*
X63114310Y-69477976D01*
X62993092Y-69599194D01*
X62902178Y-69629498D01*
X63781011Y-68811275D02*
X63447661Y-68477925D01*
X63356747Y-68447620D01*
X63265833Y-68477925D01*
X63144615Y-68599143D01*
X63114310Y-68690057D01*
X63750707Y-68780970D02*
X63720402Y-68871884D01*
X63568879Y-69023407D01*
X63477965Y-69053711D01*
X63387052Y-69023407D01*
X63326442Y-68962798D01*
X63296138Y-68871884D01*
X63326442Y-68780970D01*
X63477965Y-68629447D01*
X63508270Y-68538534D01*
X64326493Y-68205183D02*
X64296189Y-68296097D01*
X64174971Y-68417315D01*
X64084057Y-68447620D01*
X64023448Y-68447620D01*
X63932534Y-68417315D01*
X63750707Y-68235488D01*
X63720402Y-68144574D01*
X63720402Y-68083965D01*
X63750707Y-67993051D01*
X63871925Y-67871833D01*
X63962839Y-67841528D01*
X64841671Y-67690006D02*
X64811367Y-67780919D01*
X64690148Y-67902138D01*
X64599235Y-67932442D01*
X64508321Y-67902138D01*
X64265884Y-67659701D01*
X64235580Y-67568787D01*
X64265884Y-67477873D01*
X64387103Y-67356655D01*
X64478016Y-67326351D01*
X64568930Y-67356655D01*
X64629539Y-67417264D01*
X64387103Y-67780919D01*
X65659895Y-66932391D02*
X65235631Y-66508127D01*
X65023499Y-66295995D02*
X65023499Y-66356604D01*
X65084108Y-66356604D01*
X65084108Y-66295995D01*
X65023499Y-66295995D01*
X65084108Y-66356604D01*
X65538677Y-66205081D02*
X65962941Y-66629345D01*
X65599286Y-66265690D02*
X65599286Y-66205081D01*
X65629590Y-66114168D01*
X65720504Y-66023254D01*
X65811418Y-65992949D01*
X65902331Y-66023254D01*
X66235682Y-66356604D01*
X66023550Y-65720208D02*
X66265986Y-65477771D01*
X65902331Y-65417162D02*
X66447814Y-65962645D01*
X66538728Y-65992949D01*
X66629641Y-65962645D01*
X66690250Y-65902036D01*
X67114514Y-65417162D02*
X67084210Y-65508076D01*
X66962992Y-65629294D01*
X66872078Y-65659599D01*
X66781164Y-65629294D01*
X66538728Y-65386858D01*
X66508423Y-65295944D01*
X66538728Y-65205030D01*
X66659946Y-65083812D01*
X66750860Y-65053507D01*
X66841773Y-65083812D01*
X66902382Y-65144421D01*
X66659946Y-65508076D01*
X67023601Y-64720157D02*
X67447865Y-65144421D01*
X67084210Y-64780766D02*
X67084210Y-64720157D01*
X67114514Y-64629243D01*
X67205428Y-64538330D01*
X67296342Y-64508025D01*
X67387256Y-64538330D01*
X67720606Y-64871680D01*
X67508474Y-64235284D02*
X67750911Y-63992847D01*
X67387256Y-63932238D02*
X67932738Y-64477720D01*
X68023652Y-64508025D01*
X68114566Y-64477720D01*
X68175175Y-64417111D01*
X68387307Y-64204979D02*
X67963043Y-63780715D01*
X67750911Y-63568583D02*
X67750911Y-63629192D01*
X67811520Y-63629192D01*
X67811520Y-63568583D01*
X67750911Y-63568583D01*
X67811520Y-63629192D01*
X68781266Y-63811020D02*
X68690352Y-63841324D01*
X68629743Y-63841324D01*
X68538830Y-63811020D01*
X68357002Y-63629192D01*
X68326698Y-63538279D01*
X68326698Y-63477669D01*
X68357002Y-63386756D01*
X68447916Y-63295842D01*
X68538830Y-63265537D01*
X68599439Y-63265537D01*
X68690352Y-63295842D01*
X68872180Y-63477669D01*
X68902485Y-63568583D01*
X68902485Y-63629192D01*
X68872180Y-63720106D01*
X68781266Y-63811020D01*
X68841875Y-62901882D02*
X69266139Y-63326147D01*
X68902485Y-62962492D02*
X68902485Y-62901882D01*
X68932789Y-62810969D01*
X69023703Y-62720055D01*
X69114617Y-62689750D01*
X69205530Y-62720055D01*
X69538881Y-63053405D01*
X70114668Y-62477618D02*
X69781317Y-62144268D01*
X69690403Y-62113963D01*
X69599490Y-62144268D01*
X69478271Y-62265486D01*
X69447967Y-62356400D01*
X70084363Y-62447314D02*
X70054058Y-62538228D01*
X69902536Y-62689750D01*
X69811622Y-62720055D01*
X69720708Y-62689750D01*
X69660099Y-62629141D01*
X69629794Y-62538228D01*
X69660099Y-62447314D01*
X69811622Y-62295791D01*
X69841926Y-62204877D01*
X70508627Y-62083659D02*
X70417713Y-62113963D01*
X70326800Y-62083659D01*
X69781317Y-61538177D01*
X70841977Y-61750309D02*
X70751064Y-61780613D01*
X70660150Y-61750309D01*
X70114668Y-61204826D01*
X70599541Y-61144217D02*
X71175328Y-61416958D01*
X70902587Y-60841171D02*
X71175328Y-61416958D01*
X71266241Y-61629090D01*
X71266241Y-61689699D01*
X71235937Y-61780613D01*
X72145074Y-60447212D02*
X72054160Y-60477516D01*
X71963247Y-60447212D01*
X71417764Y-59901729D01*
X72599643Y-59932034D02*
X72569338Y-60022948D01*
X72448120Y-60144166D01*
X72357206Y-60174471D01*
X72266292Y-60144166D01*
X72023856Y-59901729D01*
X71993551Y-59810816D01*
X72023856Y-59719902D01*
X72145074Y-59598684D01*
X72235988Y-59568379D01*
X72326902Y-59598684D01*
X72387511Y-59659293D01*
X72145074Y-60022948D01*
X72417815Y-59325942D02*
X72660252Y-59083506D01*
X72932993Y-59659293D02*
X72387511Y-59113810D01*
X72357206Y-59022897D01*
X72387511Y-58931983D01*
X72448120Y-58871374D01*
X72781470Y-58962288D02*
X73023907Y-58719851D01*
X72660252Y-58659242D02*
X73205734Y-59204724D01*
X73296648Y-59235029D01*
X73387562Y-59204724D01*
X73448171Y-59144115D01*
X74145176Y-58447110D02*
X73508780Y-57810714D01*
X73751217Y-58053150D02*
X73781521Y-57962237D01*
X73902740Y-57841018D01*
X73993653Y-57810714D01*
X74054262Y-57810714D01*
X74145176Y-57841018D01*
X74327004Y-58022846D01*
X74357308Y-58113759D01*
X74357308Y-58174369D01*
X74327004Y-58265282D01*
X74205785Y-58386501D01*
X74114872Y-58416805D01*
X74811877Y-57780409D02*
X74720963Y-57810714D01*
X74630049Y-57780409D01*
X74084567Y-57234927D01*
X75327055Y-57265231D02*
X74993704Y-56931881D01*
X74902791Y-56901576D01*
X74811877Y-56931881D01*
X74690659Y-57053099D01*
X74660354Y-57144013D01*
X75296750Y-57234927D02*
X75266446Y-57325840D01*
X75114923Y-57477363D01*
X75024009Y-57507668D01*
X74933095Y-57477363D01*
X74872486Y-57416754D01*
X74842181Y-57325840D01*
X74872486Y-57234927D01*
X75024009Y-57083404D01*
X75054313Y-56992490D01*
X75205836Y-56537921D02*
X75630100Y-56962186D01*
X75266446Y-56598531D02*
X75266446Y-56537921D01*
X75296750Y-56447008D01*
X75387664Y-56356094D01*
X75478578Y-56325789D01*
X75569491Y-56356094D01*
X75902842Y-56689444D01*
X76205887Y-56386399D02*
X75569491Y-55750002D01*
X76024060Y-56083353D02*
X76448324Y-56143962D01*
X76024060Y-55719698D02*
X76024060Y-56204571D01*
X43228071Y-93913142D02*
X42561404Y-93913142D01*
X42561404Y-94960761D02*
X42561404Y-92960761D01*
X43513785Y-92960761D01*
X45418547Y-94960761D02*
X44751880Y-94008380D01*
X44275690Y-94960761D02*
X44275690Y-92960761D01*
X45037595Y-92960761D01*
X45228071Y-93056000D01*
X45323309Y-93151238D01*
X45418547Y-93341714D01*
X45418547Y-93627428D01*
X45323309Y-93817904D01*
X45228071Y-93913142D01*
X45037595Y-94008380D01*
X44275690Y-94008380D01*
X46656642Y-92960761D02*
X47037595Y-92960761D01*
X47228071Y-93056000D01*
X47418547Y-93246476D01*
X47513785Y-93627428D01*
X47513785Y-94294095D01*
X47418547Y-94675047D01*
X47228071Y-94865523D01*
X47037595Y-94960761D01*
X46656642Y-94960761D01*
X46466166Y-94865523D01*
X46275690Y-94675047D01*
X46180452Y-94294095D01*
X46180452Y-93627428D01*
X46275690Y-93246476D01*
X46466166Y-93056000D01*
X46656642Y-92960761D01*
X48370928Y-94960761D02*
X48370928Y-92960761D01*
X49513785Y-94960761D01*
X49513785Y-92960761D01*
X50180452Y-92960761D02*
X51323309Y-92960761D01*
X50751880Y-94960761D02*
X50751880Y-92960761D01*
X35561404Y-96110761D02*
X36704261Y-96110761D01*
X36132833Y-98110761D02*
X36132833Y-96110761D01*
X37751880Y-96110761D02*
X38132833Y-96110761D01*
X38323309Y-96206000D01*
X38513785Y-96396476D01*
X38609023Y-96777428D01*
X38609023Y-97444095D01*
X38513785Y-97825047D01*
X38323309Y-98015523D01*
X38132833Y-98110761D01*
X37751880Y-98110761D01*
X37561404Y-98015523D01*
X37370928Y-97825047D01*
X37275690Y-97444095D01*
X37275690Y-96777428D01*
X37370928Y-96396476D01*
X37561404Y-96206000D01*
X37751880Y-96110761D01*
X39275690Y-96110761D02*
X39751880Y-98110761D01*
X40132833Y-96682190D01*
X40513785Y-98110761D01*
X40989976Y-96110761D01*
X41656642Y-97539333D02*
X42609023Y-97539333D01*
X41466166Y-98110761D02*
X42132833Y-96110761D01*
X42799499Y-98110761D01*
X44609023Y-98110761D02*
X43942357Y-97158380D01*
X43466166Y-98110761D02*
X43466166Y-96110761D01*
X44228071Y-96110761D01*
X44418547Y-96206000D01*
X44513785Y-96301238D01*
X44609023Y-96491714D01*
X44609023Y-96777428D01*
X44513785Y-96967904D01*
X44418547Y-97063142D01*
X44228071Y-97158380D01*
X43466166Y-97158380D01*
X45466166Y-98110761D02*
X45466166Y-96110761D01*
X45942357Y-96110761D01*
X46228071Y-96206000D01*
X46418547Y-96396476D01*
X46513785Y-96586952D01*
X46609023Y-96967904D01*
X46609023Y-97253619D01*
X46513785Y-97634571D01*
X46418547Y-97825047D01*
X46228071Y-98015523D01*
X45942357Y-98110761D01*
X45466166Y-98110761D01*
X48989976Y-97063142D02*
X49656642Y-97063142D01*
X49942357Y-98110761D02*
X48989976Y-98110761D01*
X48989976Y-96110761D01*
X49942357Y-96110761D01*
X50799499Y-98110761D02*
X50799499Y-96110761D01*
X51942357Y-98110761D01*
X51942357Y-96110761D01*
X52894738Y-97063142D02*
X53561404Y-97063142D01*
X53847119Y-98110761D02*
X52894738Y-98110761D01*
X52894738Y-96110761D01*
X53847119Y-96110761D01*
X54704261Y-98110761D02*
X54704261Y-96110761D01*
X55370928Y-97539333D01*
X56037595Y-96110761D01*
X56037595Y-98110761D01*
X57370928Y-97158380D02*
X57370928Y-98110761D01*
X56704261Y-96110761D02*
X57370928Y-97158380D01*
X58037595Y-96110761D01*
D11*
X58483500Y-48704500D02*
X58483500Y-98425000D01*
X135953500Y-88265000D02*
X135953500Y-98425000D01*
X127000000Y-88265000D02*
X135953500Y-88265000D01*
X127000000Y-73660000D02*
X127000000Y-88265000D01*
X80835500Y-73660000D02*
X160020000Y-73660000D01*
X123444000Y-73660000D02*
X123444000Y-47117000D01*
X77597000Y-53975000D02*
X58483500Y-53975000D01*
D10*
X87971761Y-27558785D02*
X88019380Y-27463547D01*
X88019380Y-27273071D01*
X87971761Y-27177833D01*
X87876523Y-27130214D01*
X87828904Y-27130214D01*
X87733666Y-27177833D01*
X87686047Y-27273071D01*
X87686047Y-27415928D01*
X87638428Y-27511166D01*
X87543190Y-27558785D01*
X87495571Y-27558785D01*
X87400333Y-27511166D01*
X87352714Y-27415928D01*
X87352714Y-27273071D01*
X87400333Y-27177833D01*
X88019380Y-26701642D02*
X87019380Y-26701642D01*
X88019380Y-26273071D02*
X87495571Y-26273071D01*
X87400333Y-26320690D01*
X87352714Y-26415928D01*
X87352714Y-26558785D01*
X87400333Y-26654023D01*
X87447952Y-26701642D01*
X88019380Y-25654023D02*
X87971761Y-25749261D01*
X87924142Y-25796880D01*
X87828904Y-25844500D01*
X87543190Y-25844500D01*
X87447952Y-25796880D01*
X87400333Y-25749261D01*
X87352714Y-25654023D01*
X87352714Y-25511166D01*
X87400333Y-25415928D01*
X87447952Y-25368309D01*
X87543190Y-25320690D01*
X87828904Y-25320690D01*
X87924142Y-25368309D01*
X87971761Y-25415928D01*
X88019380Y-25511166D01*
X88019380Y-25654023D01*
X88019380Y-24892119D02*
X87352714Y-24892119D01*
X87543190Y-24892119D02*
X87447952Y-24844500D01*
X87400333Y-24796880D01*
X87352714Y-24701642D01*
X87352714Y-24606404D01*
X87352714Y-24415928D02*
X87352714Y-24034976D01*
X87019380Y-24273071D02*
X87876523Y-24273071D01*
X87971761Y-24225452D01*
X88019380Y-24130214D01*
X88019380Y-24034976D01*
X89002714Y-28320690D02*
X89002714Y-27939738D01*
X89669380Y-28177833D02*
X88812238Y-28177833D01*
X88717000Y-28130214D01*
X88669380Y-28034976D01*
X88669380Y-27939738D01*
X89669380Y-27463547D02*
X89621761Y-27558785D01*
X89574142Y-27606404D01*
X89478904Y-27654023D01*
X89193190Y-27654023D01*
X89097952Y-27606404D01*
X89050333Y-27558785D01*
X89002714Y-27463547D01*
X89002714Y-27320690D01*
X89050333Y-27225452D01*
X89097952Y-27177833D01*
X89193190Y-27130214D01*
X89478904Y-27130214D01*
X89574142Y-27177833D01*
X89621761Y-27225452D01*
X89669380Y-27320690D01*
X89669380Y-27463547D01*
X89669380Y-26701642D02*
X89002714Y-26701642D01*
X89193190Y-26701642D02*
X89097952Y-26654023D01*
X89050333Y-26606404D01*
X89002714Y-26511166D01*
X89002714Y-26415928D01*
X89621761Y-24892119D02*
X89669380Y-24987357D01*
X89669380Y-25177833D01*
X89621761Y-25273071D01*
X89574142Y-25320690D01*
X89478904Y-25368309D01*
X89193190Y-25368309D01*
X89097952Y-25320690D01*
X89050333Y-25273071D01*
X89002714Y-25177833D01*
X89002714Y-24987357D01*
X89050333Y-24892119D01*
X89669380Y-24034976D02*
X89145571Y-24034976D01*
X89050333Y-24082595D01*
X89002714Y-24177833D01*
X89002714Y-24368309D01*
X89050333Y-24463547D01*
X89621761Y-24034976D02*
X89669380Y-24130214D01*
X89669380Y-24368309D01*
X89621761Y-24463547D01*
X89526523Y-24511166D01*
X89431285Y-24511166D01*
X89336047Y-24463547D01*
X89288428Y-24368309D01*
X89288428Y-24130214D01*
X89240809Y-24034976D01*
X89669380Y-23415928D02*
X89621761Y-23511166D01*
X89526523Y-23558785D01*
X88669380Y-23558785D01*
D11*
X80835500Y-73660000D02*
X58483500Y-73660000D01*
X152400000Y-47117000D02*
X152400000Y-15938500D01*
X77597000Y-47117000D02*
X152400000Y-47117000D01*
X56896000Y-31750000D02*
X53721000Y-31750000D01*
X58420000Y-32385000D02*
X58102500Y-32702500D01*
X58420000Y-32385000D02*
X58102500Y-32067500D01*
X57531000Y-32385000D02*
X58420000Y-32385000D01*
X56896000Y-31750000D02*
X57531000Y-32385000D01*
D10*
X53951357Y-31440380D02*
X53951357Y-30440380D01*
X54379928Y-31440380D02*
X54379928Y-30916571D01*
X54332309Y-30821333D01*
X54237071Y-30773714D01*
X54094214Y-30773714D01*
X53998976Y-30821333D01*
X53951357Y-30868952D01*
X54998976Y-31440380D02*
X54903738Y-31392761D01*
X54856119Y-31345142D01*
X54808500Y-31249904D01*
X54808500Y-30964190D01*
X54856119Y-30868952D01*
X54903738Y-30821333D01*
X54998976Y-30773714D01*
X55141833Y-30773714D01*
X55237071Y-30821333D01*
X55284690Y-30868952D01*
X55332309Y-30964190D01*
X55332309Y-31249904D01*
X55284690Y-31345142D01*
X55237071Y-31392761D01*
X55141833Y-31440380D01*
X54998976Y-31440380D01*
X55903738Y-31440380D02*
X55808500Y-31392761D01*
X55760880Y-31297523D01*
X55760880Y-30440380D01*
X56665642Y-31392761D02*
X56570404Y-31440380D01*
X56379928Y-31440380D01*
X56284690Y-31392761D01*
X56237071Y-31297523D01*
X56237071Y-30916571D01*
X56284690Y-30821333D01*
X56379928Y-30773714D01*
X56570404Y-30773714D01*
X56665642Y-30821333D01*
X56713261Y-30916571D01*
X56713261Y-31011809D01*
X56237071Y-31107047D01*
D11*
X113919000Y-47117000D02*
X113919000Y-15748000D01*
X77597000Y-34226500D02*
X77597000Y-18542000D01*
X77597000Y-34226500D02*
X77597000Y-53975000D01*
X63500000Y-34226500D02*
X77597000Y-34226500D01*
D10*
X82748380Y-31082904D02*
X82700761Y-31178142D01*
X82605523Y-31225761D01*
X81748380Y-31225761D01*
X82748380Y-30559095D02*
X82700761Y-30654333D01*
X82653142Y-30701952D01*
X82557904Y-30749571D01*
X82272190Y-30749571D01*
X82176952Y-30701952D01*
X82129333Y-30654333D01*
X82081714Y-30559095D01*
X82081714Y-30416238D01*
X82129333Y-30321000D01*
X82176952Y-30273380D01*
X82272190Y-30225761D01*
X82557904Y-30225761D01*
X82653142Y-30273380D01*
X82700761Y-30321000D01*
X82748380Y-30416238D01*
X82748380Y-30559095D01*
X82081714Y-29797190D02*
X82748380Y-29797190D01*
X82176952Y-29797190D02*
X82129333Y-29749571D01*
X82081714Y-29654333D01*
X82081714Y-29511476D01*
X82129333Y-29416238D01*
X82224571Y-29368619D01*
X82748380Y-29368619D01*
X82081714Y-28463857D02*
X82891238Y-28463857D01*
X82986476Y-28511476D01*
X83034095Y-28559095D01*
X83081714Y-28654333D01*
X83081714Y-28797190D01*
X83034095Y-28892428D01*
X82700761Y-28463857D02*
X82748380Y-28559095D01*
X82748380Y-28749571D01*
X82700761Y-28844809D01*
X82653142Y-28892428D01*
X82557904Y-28940047D01*
X82272190Y-28940047D01*
X82176952Y-28892428D01*
X82129333Y-28844809D01*
X82081714Y-28749571D01*
X82081714Y-28559095D01*
X82129333Y-28463857D01*
X82748380Y-27225761D02*
X81748380Y-27225761D01*
X82129333Y-27225761D02*
X82081714Y-27130523D01*
X82081714Y-26940047D01*
X82129333Y-26844809D01*
X82176952Y-26797190D01*
X82272190Y-26749571D01*
X82557904Y-26749571D01*
X82653142Y-26797190D01*
X82700761Y-26844809D01*
X82748380Y-26940047D01*
X82748380Y-27130523D01*
X82700761Y-27225761D01*
X82748380Y-26178142D02*
X82700761Y-26273380D01*
X82653142Y-26321000D01*
X82557904Y-26368619D01*
X82272190Y-26368619D01*
X82176952Y-26321000D01*
X82129333Y-26273380D01*
X82081714Y-26178142D01*
X82081714Y-26035285D01*
X82129333Y-25940047D01*
X82176952Y-25892428D01*
X82272190Y-25844809D01*
X82557904Y-25844809D01*
X82653142Y-25892428D01*
X82700761Y-25940047D01*
X82748380Y-26035285D01*
X82748380Y-26178142D01*
X82748380Y-25416238D02*
X82081714Y-25416238D01*
X81748380Y-25416238D02*
X81796000Y-25463857D01*
X81843619Y-25416238D01*
X81796000Y-25368619D01*
X81748380Y-25416238D01*
X81843619Y-25416238D01*
D12*
G36*
X56261000Y-42164000D02*
G01*
X54737000Y-43688000D01*
X54610000Y-43561000D01*
X56134000Y-42037000D01*
X56261000Y-42164000D01*
G37*
X56261000Y-42164000D02*
X54737000Y-43688000D01*
X54610000Y-43561000D01*
X56134000Y-42037000D01*
X56261000Y-42164000D01*
G36*
X62611000Y-48641000D02*
G01*
X61087000Y-50165000D01*
X60960000Y-50038000D01*
X62484000Y-48514000D01*
X62611000Y-48641000D01*
G37*
X62611000Y-48641000D02*
X61087000Y-50165000D01*
X60960000Y-50038000D01*
X62484000Y-48514000D01*
X62611000Y-48641000D01*
G36*
X62230000Y-48260000D02*
G01*
X60706000Y-49784000D01*
X60579000Y-49657000D01*
X62103000Y-48133000D01*
X62230000Y-48260000D01*
G37*
X62230000Y-48260000D02*
X60706000Y-49784000D01*
X60579000Y-49657000D01*
X62103000Y-48133000D01*
X62230000Y-48260000D01*
G36*
X61849000Y-47752000D02*
G01*
X60325000Y-49276000D01*
X60198000Y-49149000D01*
X61722000Y-47625000D01*
X61849000Y-47752000D01*
G37*
X61849000Y-47752000D02*
X60325000Y-49276000D01*
X60198000Y-49149000D01*
X61722000Y-47625000D01*
X61849000Y-47752000D01*
G36*
X61468000Y-47371000D02*
G01*
X59944000Y-48895000D01*
X59817000Y-48768000D01*
X61341000Y-47244000D01*
X61468000Y-47371000D01*
G37*
X61468000Y-47371000D02*
X59944000Y-48895000D01*
X59817000Y-48768000D01*
X61341000Y-47244000D01*
X61468000Y-47371000D01*
G36*
X60960000Y-46990000D02*
G01*
X59436000Y-48514000D01*
X59309000Y-48387000D01*
X60833000Y-46863000D01*
X60960000Y-46990000D01*
G37*
X60960000Y-46990000D02*
X59436000Y-48514000D01*
X59309000Y-48387000D01*
X60833000Y-46863000D01*
X60960000Y-46990000D01*
G36*
X60579000Y-46482000D02*
G01*
X59055000Y-48006000D01*
X58928000Y-47879000D01*
X60452000Y-46355000D01*
X60579000Y-46482000D01*
G37*
X60579000Y-46482000D02*
X59055000Y-48006000D01*
X58928000Y-47879000D01*
X60452000Y-46355000D01*
X60579000Y-46482000D01*
G36*
X60198000Y-46101000D02*
G01*
X58674000Y-47625000D01*
X58547000Y-47498000D01*
X60071000Y-45974000D01*
X60198000Y-46101000D01*
G37*
X60198000Y-46101000D02*
X58674000Y-47625000D01*
X58547000Y-47498000D01*
X60071000Y-45974000D01*
X60198000Y-46101000D01*
G36*
X59690000Y-45720000D02*
G01*
X58166000Y-47244000D01*
X58039000Y-47117000D01*
X59563000Y-45593000D01*
X59690000Y-45720000D01*
G37*
X59690000Y-45720000D02*
X58166000Y-47244000D01*
X58039000Y-47117000D01*
X59563000Y-45593000D01*
X59690000Y-45720000D01*
G36*
X59182000Y-45212000D02*
G01*
X57658000Y-46736000D01*
X57531000Y-46609000D01*
X59055000Y-45085000D01*
X59182000Y-45212000D01*
G37*
X59182000Y-45212000D02*
X57658000Y-46736000D01*
X57531000Y-46609000D01*
X59055000Y-45085000D01*
X59182000Y-45212000D01*
G36*
X58674000Y-44704000D02*
G01*
X57150000Y-46228000D01*
X57023000Y-46101000D01*
X58547000Y-44577000D01*
X58674000Y-44704000D01*
G37*
X58674000Y-44704000D02*
X57150000Y-46228000D01*
X57023000Y-46101000D01*
X58547000Y-44577000D01*
X58674000Y-44704000D01*
G36*
X58166000Y-44196000D02*
G01*
X56642000Y-45720000D01*
X56515000Y-45593000D01*
X58039000Y-44069000D01*
X58166000Y-44196000D01*
G37*
X58166000Y-44196000D02*
X56642000Y-45720000D01*
X56515000Y-45593000D01*
X58039000Y-44069000D01*
X58166000Y-44196000D01*
G36*
X57785000Y-43688000D02*
G01*
X56261000Y-45212000D01*
X56134000Y-45085000D01*
X57658000Y-43561000D01*
X57785000Y-43688000D01*
G37*
X57785000Y-43688000D02*
X56261000Y-45212000D01*
X56134000Y-45085000D01*
X57658000Y-43561000D01*
X57785000Y-43688000D01*
G36*
X57277000Y-43307000D02*
G01*
X55753000Y-44831000D01*
X55626000Y-44704000D01*
X57150000Y-43180000D01*
X57277000Y-43307000D01*
G37*
X57277000Y-43307000D02*
X55753000Y-44831000D01*
X55626000Y-44704000D01*
X57150000Y-43180000D01*
X57277000Y-43307000D01*
G36*
X56769000Y-42799000D02*
G01*
X55245000Y-44323000D01*
X55118000Y-44196000D01*
X56642000Y-42672000D01*
X56769000Y-42799000D01*
G37*
X56769000Y-42799000D02*
X55245000Y-44323000D01*
X55118000Y-44196000D01*
X56642000Y-42672000D01*
X56769000Y-42799000D01*
D11*
X62103000Y-48895000D02*
X55880000Y-42418000D01*
X54991000Y-43307000D02*
X61214000Y-49784000D01*
D10*
X65905095Y-82878380D02*
X66428904Y-82211714D01*
X65905095Y-82211714D02*
X66428904Y-82878380D01*
X64833666Y-85178380D02*
X64928904Y-85178380D01*
X65024142Y-85226000D01*
X65071761Y-85273619D01*
X65119380Y-85368857D01*
X65167000Y-85559333D01*
X65167000Y-85797428D01*
X65119380Y-85987904D01*
X65071761Y-86083142D01*
X65024142Y-86130761D01*
X64928904Y-86178380D01*
X64833666Y-86178380D01*
X64738428Y-86130761D01*
X64690809Y-86083142D01*
X64643190Y-85987904D01*
X64595571Y-85797428D01*
X64595571Y-85559333D01*
X64643190Y-85368857D01*
X64690809Y-85273619D01*
X64738428Y-85226000D01*
X64833666Y-85178380D01*
X65595571Y-86083142D02*
X65643190Y-86130761D01*
X65595571Y-86178380D01*
X65547952Y-86130761D01*
X65595571Y-86083142D01*
X65595571Y-86178380D01*
X66024142Y-85273619D02*
X66071761Y-85226000D01*
X66167000Y-85178380D01*
X66405095Y-85178380D01*
X66500333Y-85226000D01*
X66547952Y-85273619D01*
X66595571Y-85368857D01*
X66595571Y-85464095D01*
X66547952Y-85606952D01*
X65976523Y-86178380D01*
X66595571Y-86178380D01*
X66976523Y-86178380D02*
X67738428Y-85178380D01*
X67119380Y-85178380D02*
X67214619Y-85226000D01*
X67262238Y-85321238D01*
X67214619Y-85416476D01*
X67119380Y-85464095D01*
X67024142Y-85416476D01*
X66976523Y-85321238D01*
X67024142Y-85226000D01*
X67119380Y-85178380D01*
X67690809Y-86130761D02*
X67738428Y-86035523D01*
X67690809Y-85940285D01*
X67595571Y-85892666D01*
X67500333Y-85940285D01*
X67452714Y-86035523D01*
X67500333Y-86130761D01*
X67595571Y-86178380D01*
X67690809Y-86130761D01*
X65881285Y-89478380D02*
X65309857Y-89478380D01*
X65595571Y-89478380D02*
X65595571Y-88478380D01*
X65500333Y-88621238D01*
X65405095Y-88716476D01*
X65309857Y-88764095D01*
X66262238Y-89478380D02*
X67024142Y-88478380D01*
X66405095Y-88478380D02*
X66500333Y-88526000D01*
X66547952Y-88621238D01*
X66500333Y-88716476D01*
X66405095Y-88764095D01*
X66309857Y-88716476D01*
X66262238Y-88621238D01*
X66309857Y-88526000D01*
X66405095Y-88478380D01*
X66976523Y-89430761D02*
X67024142Y-89335523D01*
X66976523Y-89240285D01*
X66881285Y-89192666D01*
X66786047Y-89240285D01*
X66738428Y-89335523D01*
X66786047Y-89430761D01*
X66881285Y-89478380D01*
X66976523Y-89430761D01*
X65833666Y-91778380D02*
X65357476Y-91778380D01*
X65309857Y-92254571D01*
X65357476Y-92206952D01*
X65452714Y-92159333D01*
X65690809Y-92159333D01*
X65786047Y-92206952D01*
X65833666Y-92254571D01*
X65881285Y-92349809D01*
X65881285Y-92587904D01*
X65833666Y-92683142D01*
X65786047Y-92730761D01*
X65690809Y-92778380D01*
X65452714Y-92778380D01*
X65357476Y-92730761D01*
X65309857Y-92683142D01*
X66262238Y-92778380D02*
X67024142Y-91778380D01*
X66405095Y-91778380D02*
X66500333Y-91826000D01*
X66547952Y-91921238D01*
X66500333Y-92016476D01*
X66405095Y-92064095D01*
X66309857Y-92016476D01*
X66262238Y-91921238D01*
X66309857Y-91826000D01*
X66405095Y-91778380D01*
X66976523Y-92730761D02*
X67024142Y-92635523D01*
X66976523Y-92540285D01*
X66881285Y-92492666D01*
X66786047Y-92540285D01*
X66738428Y-92635523D01*
X66786047Y-92730761D01*
X66881285Y-92778380D01*
X66976523Y-92730761D01*
X93900666Y-93432380D02*
X93424476Y-93432380D01*
X93376857Y-93908571D01*
X93424476Y-93860952D01*
X93519714Y-93813333D01*
X93757809Y-93813333D01*
X93853047Y-93860952D01*
X93900666Y-93908571D01*
X93948285Y-94003809D01*
X93948285Y-94241904D01*
X93900666Y-94337142D01*
X93853047Y-94384761D01*
X93757809Y-94432380D01*
X93519714Y-94432380D01*
X93424476Y-94384761D01*
X93376857Y-94337142D01*
X94329238Y-94432380D02*
X95091142Y-93432380D01*
X94472095Y-93432380D02*
X94567333Y-93480000D01*
X94614952Y-93575238D01*
X94567333Y-93670476D01*
X94472095Y-93718095D01*
X94376857Y-93670476D01*
X94329238Y-93575238D01*
X94376857Y-93480000D01*
X94472095Y-93432380D01*
X95043523Y-94384761D02*
X95091142Y-94289523D01*
X95043523Y-94194285D01*
X94948285Y-94146666D01*
X94853047Y-94194285D01*
X94805428Y-94289523D01*
X94853047Y-94384761D01*
X94948285Y-94432380D01*
X95043523Y-94384761D01*
X93948285Y-89098380D02*
X93376857Y-89098380D01*
X93662571Y-89098380D02*
X93662571Y-88098380D01*
X93567333Y-88241238D01*
X93472095Y-88336476D01*
X93376857Y-88384095D01*
X94329238Y-89098380D02*
X95091142Y-88098380D01*
X94472095Y-88098380D02*
X94567333Y-88146000D01*
X94614952Y-88241238D01*
X94567333Y-88336476D01*
X94472095Y-88384095D01*
X94376857Y-88336476D01*
X94329238Y-88241238D01*
X94376857Y-88146000D01*
X94472095Y-88098380D01*
X95043523Y-89050761D02*
X95091142Y-88955523D01*
X95043523Y-88860285D01*
X94948285Y-88812666D01*
X94853047Y-88860285D01*
X94805428Y-88955523D01*
X94853047Y-89050761D01*
X94948285Y-89098380D01*
X95043523Y-89050761D01*
X93408666Y-82764380D02*
X93503904Y-82764380D01*
X93599142Y-82812000D01*
X93646761Y-82859619D01*
X93694380Y-82954857D01*
X93742000Y-83145333D01*
X93742000Y-83383428D01*
X93694380Y-83573904D01*
X93646761Y-83669142D01*
X93599142Y-83716761D01*
X93503904Y-83764380D01*
X93408666Y-83764380D01*
X93313428Y-83716761D01*
X93265809Y-83669142D01*
X93218190Y-83573904D01*
X93170571Y-83383428D01*
X93170571Y-83145333D01*
X93218190Y-82954857D01*
X93265809Y-82859619D01*
X93313428Y-82812000D01*
X93408666Y-82764380D01*
X94170571Y-83669142D02*
X94218190Y-83716761D01*
X94170571Y-83764380D01*
X94122952Y-83716761D01*
X94170571Y-83669142D01*
X94170571Y-83764380D01*
X94599142Y-82859619D02*
X94646761Y-82812000D01*
X94742000Y-82764380D01*
X94980095Y-82764380D01*
X95075333Y-82812000D01*
X95122952Y-82859619D01*
X95170571Y-82954857D01*
X95170571Y-83050095D01*
X95122952Y-83192952D01*
X94551523Y-83764380D01*
X95170571Y-83764380D01*
X95551523Y-83764380D02*
X96313428Y-82764380D01*
X95694380Y-82764380D02*
X95789619Y-82812000D01*
X95837238Y-82907238D01*
X95789619Y-83002476D01*
X95694380Y-83050095D01*
X95599142Y-83002476D01*
X95551523Y-82907238D01*
X95599142Y-82812000D01*
X95694380Y-82764380D01*
X96265809Y-83716761D02*
X96313428Y-83621523D01*
X96265809Y-83526285D01*
X96170571Y-83478666D01*
X96075333Y-83526285D01*
X96027714Y-83621523D01*
X96075333Y-83716761D01*
X96170571Y-83764380D01*
X96265809Y-83716761D01*
X72715952Y-87860714D02*
X72715952Y-88860714D01*
X72715952Y-87908333D02*
X72811190Y-87860714D01*
X73001666Y-87860714D01*
X73096904Y-87908333D01*
X73144523Y-87955952D01*
X73192142Y-88051190D01*
X73192142Y-88336904D01*
X73144523Y-88432142D01*
X73096904Y-88479761D01*
X73001666Y-88527380D01*
X72811190Y-88527380D01*
X72715952Y-88479761D01*
X73620714Y-88527380D02*
X73620714Y-87860714D01*
X73620714Y-88051190D02*
X73668333Y-87955952D01*
X73715952Y-87908333D01*
X73811190Y-87860714D01*
X73906428Y-87860714D01*
X74620714Y-88479761D02*
X74525476Y-88527380D01*
X74335000Y-88527380D01*
X74239761Y-88479761D01*
X74192142Y-88384523D01*
X74192142Y-88003571D01*
X74239761Y-87908333D01*
X74335000Y-87860714D01*
X74525476Y-87860714D01*
X74620714Y-87908333D01*
X74668333Y-88003571D01*
X74668333Y-88098809D01*
X74192142Y-88194047D01*
X75525476Y-88479761D02*
X75430238Y-88527380D01*
X75239761Y-88527380D01*
X75144523Y-88479761D01*
X75096904Y-88432142D01*
X75049285Y-88336904D01*
X75049285Y-88051190D01*
X75096904Y-87955952D01*
X75144523Y-87908333D01*
X75239761Y-87860714D01*
X75430238Y-87860714D01*
X75525476Y-87908333D01*
X75954047Y-88527380D02*
X75954047Y-87860714D01*
X75954047Y-87527380D02*
X75906428Y-87575000D01*
X75954047Y-87622619D01*
X76001666Y-87575000D01*
X75954047Y-87527380D01*
X75954047Y-87622619D01*
X76382619Y-88479761D02*
X76477857Y-88527380D01*
X76668333Y-88527380D01*
X76763571Y-88479761D01*
X76811190Y-88384523D01*
X76811190Y-88336904D01*
X76763571Y-88241666D01*
X76668333Y-88194047D01*
X76525476Y-88194047D01*
X76430238Y-88146428D01*
X76382619Y-88051190D01*
X76382619Y-88003571D01*
X76430238Y-87908333D01*
X76525476Y-87860714D01*
X76668333Y-87860714D01*
X76763571Y-87908333D01*
X77239761Y-88527380D02*
X77239761Y-87860714D01*
X77239761Y-87527380D02*
X77192142Y-87575000D01*
X77239761Y-87622619D01*
X77287380Y-87575000D01*
X77239761Y-87527380D01*
X77239761Y-87622619D01*
X77858809Y-88527380D02*
X77763571Y-88479761D01*
X77715952Y-88432142D01*
X77668333Y-88336904D01*
X77668333Y-88051190D01*
X77715952Y-87955952D01*
X77763571Y-87908333D01*
X77858809Y-87860714D01*
X78001666Y-87860714D01*
X78096904Y-87908333D01*
X78144523Y-87955952D01*
X78192142Y-88051190D01*
X78192142Y-88336904D01*
X78144523Y-88432142D01*
X78096904Y-88479761D01*
X78001666Y-88527380D01*
X77858809Y-88527380D01*
X78620714Y-87860714D02*
X78620714Y-88527380D01*
X78620714Y-87955952D02*
X78668333Y-87908333D01*
X78763571Y-87860714D01*
X78906428Y-87860714D01*
X79001666Y-87908333D01*
X79049285Y-88003571D01*
X79049285Y-88527380D01*
X80239761Y-88527380D02*
X81001666Y-87527380D01*
X80382619Y-87527380D02*
X80477857Y-87575000D01*
X80525476Y-87670238D01*
X80477857Y-87765476D01*
X80382619Y-87813095D01*
X80287380Y-87765476D01*
X80239761Y-87670238D01*
X80287380Y-87575000D01*
X80382619Y-87527380D01*
X80954047Y-88479761D02*
X81001666Y-88384523D01*
X80954047Y-88289285D01*
X80858809Y-88241666D01*
X80763571Y-88289285D01*
X80715952Y-88384523D01*
X80763571Y-88479761D01*
X80858809Y-88527380D01*
X80954047Y-88479761D01*
X73644523Y-90129761D02*
X73739761Y-90177380D01*
X73930238Y-90177380D01*
X74025476Y-90129761D01*
X74073095Y-90034523D01*
X74073095Y-89986904D01*
X74025476Y-89891666D01*
X73930238Y-89844047D01*
X73787380Y-89844047D01*
X73692142Y-89796428D01*
X73644523Y-89701190D01*
X73644523Y-89653571D01*
X73692142Y-89558333D01*
X73787380Y-89510714D01*
X73930238Y-89510714D01*
X74025476Y-89558333D01*
X74882619Y-90129761D02*
X74787380Y-90177380D01*
X74596904Y-90177380D01*
X74501666Y-90129761D01*
X74454047Y-90034523D01*
X74454047Y-89653571D01*
X74501666Y-89558333D01*
X74596904Y-89510714D01*
X74787380Y-89510714D01*
X74882619Y-89558333D01*
X74930238Y-89653571D01*
X74930238Y-89748809D01*
X74454047Y-89844047D01*
X75501666Y-90177380D02*
X75406428Y-90129761D01*
X75358809Y-90034523D01*
X75358809Y-89177380D01*
X76263571Y-90129761D02*
X76168333Y-90177380D01*
X75977857Y-90177380D01*
X75882619Y-90129761D01*
X75835000Y-90034523D01*
X75835000Y-89653571D01*
X75882619Y-89558333D01*
X75977857Y-89510714D01*
X76168333Y-89510714D01*
X76263571Y-89558333D01*
X76311190Y-89653571D01*
X76311190Y-89748809D01*
X75835000Y-89844047D01*
X77168333Y-90129761D02*
X77073095Y-90177380D01*
X76882619Y-90177380D01*
X76787380Y-90129761D01*
X76739761Y-90082142D01*
X76692142Y-89986904D01*
X76692142Y-89701190D01*
X76739761Y-89605952D01*
X76787380Y-89558333D01*
X76882619Y-89510714D01*
X77073095Y-89510714D01*
X77168333Y-89558333D01*
X77454047Y-89510714D02*
X77835000Y-89510714D01*
X77596904Y-89177380D02*
X77596904Y-90034523D01*
X77644523Y-90129761D01*
X77739761Y-90177380D01*
X77835000Y-90177380D01*
X78168333Y-90177380D02*
X78168333Y-89510714D01*
X78168333Y-89177380D02*
X78120714Y-89225000D01*
X78168333Y-89272619D01*
X78215952Y-89225000D01*
X78168333Y-89177380D01*
X78168333Y-89272619D01*
X78787380Y-90177380D02*
X78692142Y-90129761D01*
X78644523Y-90082142D01*
X78596904Y-89986904D01*
X78596904Y-89701190D01*
X78644523Y-89605952D01*
X78692142Y-89558333D01*
X78787380Y-89510714D01*
X78930238Y-89510714D01*
X79025476Y-89558333D01*
X79073095Y-89605952D01*
X79120714Y-89701190D01*
X79120714Y-89986904D01*
X79073095Y-90082142D01*
X79025476Y-90129761D01*
X78930238Y-90177380D01*
X78787380Y-90177380D01*
X79549285Y-89510714D02*
X79549285Y-90177380D01*
X79549285Y-89605952D02*
X79596904Y-89558333D01*
X79692142Y-89510714D01*
X79834999Y-89510714D01*
X79930238Y-89558333D01*
X79977857Y-89653571D01*
X79977857Y-90177380D01*
X59443928Y-87232857D02*
X59443928Y-86470952D01*
X59443928Y-83709047D02*
X59443928Y-82947142D01*
X59824880Y-83328095D02*
X59062976Y-83328095D01*
X59674404Y-88543380D02*
X59912500Y-89543380D01*
X60102976Y-88829095D01*
X60293452Y-89543380D01*
X60531547Y-88543380D01*
X62483928Y-89543380D02*
X62436309Y-89543380D01*
X62341071Y-89495761D01*
X62198214Y-89352904D01*
X61960119Y-89067190D01*
X61864880Y-88924333D01*
X61817261Y-88781476D01*
X61817261Y-88686238D01*
X61864880Y-88591000D01*
X61960119Y-88543380D01*
X62007738Y-88543380D01*
X62102976Y-88591000D01*
X62150595Y-88686238D01*
X62150595Y-88733857D01*
X62102976Y-88829095D01*
X62055357Y-88876714D01*
X61769642Y-89067190D01*
X61722023Y-89114809D01*
X61674404Y-89210047D01*
X61674404Y-89352904D01*
X61722023Y-89448142D01*
X61769642Y-89495761D01*
X61864880Y-89543380D01*
X62007738Y-89543380D01*
X62102976Y-89495761D01*
X62150595Y-89448142D01*
X62293452Y-89257666D01*
X62341071Y-89114809D01*
X62341071Y-89019571D01*
X64007738Y-89019571D02*
X63674404Y-89019571D01*
X63674404Y-89543380D02*
X63674404Y-88543380D01*
X64150595Y-88543380D01*
X60031547Y-91193380D02*
X60031547Y-90526714D01*
X60031547Y-90621952D02*
X60079166Y-90574333D01*
X60174404Y-90526714D01*
X60317261Y-90526714D01*
X60412500Y-90574333D01*
X60460119Y-90669571D01*
X60460119Y-91193380D01*
X60460119Y-90669571D02*
X60507738Y-90574333D01*
X60602976Y-90526714D01*
X60745833Y-90526714D01*
X60841071Y-90574333D01*
X60888690Y-90669571D01*
X60888690Y-91193380D01*
X61745833Y-91145761D02*
X61650595Y-91193380D01*
X61460119Y-91193380D01*
X61364880Y-91145761D01*
X61317261Y-91050523D01*
X61317261Y-90669571D01*
X61364880Y-90574333D01*
X61460119Y-90526714D01*
X61650595Y-90526714D01*
X61745833Y-90574333D01*
X61793452Y-90669571D01*
X61793452Y-90764809D01*
X61317261Y-90860047D01*
X62079166Y-90526714D02*
X62460119Y-90526714D01*
X62222023Y-90193380D02*
X62222023Y-91050523D01*
X62269642Y-91145761D01*
X62364880Y-91193380D01*
X62460119Y-91193380D01*
X63174404Y-91145761D02*
X63079166Y-91193380D01*
X62888690Y-91193380D01*
X62793452Y-91145761D01*
X62745833Y-91050523D01*
X62745833Y-90669571D01*
X62793452Y-90574333D01*
X62888690Y-90526714D01*
X63079166Y-90526714D01*
X63174404Y-90574333D01*
X63222023Y-90669571D01*
X63222023Y-90764809D01*
X62745833Y-90860047D01*
X63650595Y-91193380D02*
X63650595Y-90526714D01*
X63650595Y-90717190D02*
X63698214Y-90621952D01*
X63745833Y-90574333D01*
X63841071Y-90526714D01*
X63936309Y-90526714D01*
X142874952Y-62983071D02*
X142113047Y-62983071D01*
X142874952Y-59683071D02*
X142113047Y-59683071D01*
X142494000Y-59302119D02*
X142494000Y-60064023D01*
X142041904Y-65365880D02*
X142041904Y-65556357D01*
X142422857Y-65365880D02*
X142422857Y-65556357D01*
X142803809Y-66318261D02*
X142899047Y-66365880D01*
X143089523Y-66365880D01*
X143184761Y-66318261D01*
X143232380Y-66223023D01*
X143232380Y-66175404D01*
X143184761Y-66080166D01*
X143089523Y-66032547D01*
X142946666Y-66032547D01*
X142851428Y-65984928D01*
X142803809Y-65889690D01*
X142803809Y-65842071D01*
X142851428Y-65746833D01*
X142946666Y-65699214D01*
X143089523Y-65699214D01*
X143184761Y-65746833D01*
X143660952Y-65699214D02*
X143660952Y-66699214D01*
X143660952Y-65746833D02*
X143756190Y-65699214D01*
X143946666Y-65699214D01*
X144041904Y-65746833D01*
X144089523Y-65794452D01*
X144137142Y-65889690D01*
X144137142Y-66175404D01*
X144089523Y-66270642D01*
X144041904Y-66318261D01*
X143946666Y-66365880D01*
X143756190Y-66365880D01*
X143660952Y-66318261D01*
X144946666Y-66318261D02*
X144851428Y-66365880D01*
X144660952Y-66365880D01*
X144565714Y-66318261D01*
X144518095Y-66223023D01*
X144518095Y-65842071D01*
X144565714Y-65746833D01*
X144660952Y-65699214D01*
X144851428Y-65699214D01*
X144946666Y-65746833D01*
X144994285Y-65842071D01*
X144994285Y-65937309D01*
X144518095Y-66032547D01*
X145803809Y-66318261D02*
X145708571Y-66365880D01*
X145518095Y-66365880D01*
X145422857Y-66318261D01*
X145375238Y-66223023D01*
X145375238Y-65842071D01*
X145422857Y-65746833D01*
X145518095Y-65699214D01*
X145708571Y-65699214D01*
X145803809Y-65746833D01*
X145851428Y-65842071D01*
X145851428Y-65937309D01*
X145375238Y-66032547D01*
X146708571Y-66365880D02*
X146708571Y-65365880D01*
X146708571Y-66318261D02*
X146613333Y-66365880D01*
X146422857Y-66365880D01*
X146327619Y-66318261D01*
X146280000Y-66270642D01*
X146232380Y-66175404D01*
X146232380Y-65889690D01*
X146280000Y-65794452D01*
X146327619Y-65746833D01*
X146422857Y-65699214D01*
X146613333Y-65699214D01*
X146708571Y-65746833D01*
X147137142Y-65365880D02*
X147137142Y-65556357D01*
X147518095Y-65365880D02*
X147518095Y-65556357D01*
X142899047Y-68015880D02*
X142899047Y-67349214D01*
X142899047Y-67444452D02*
X142946666Y-67396833D01*
X143041904Y-67349214D01*
X143184761Y-67349214D01*
X143280000Y-67396833D01*
X143327619Y-67492071D01*
X143327619Y-68015880D01*
X143327619Y-67492071D02*
X143375238Y-67396833D01*
X143470476Y-67349214D01*
X143613333Y-67349214D01*
X143708571Y-67396833D01*
X143756190Y-67492071D01*
X143756190Y-68015880D01*
X144613333Y-67968261D02*
X144518095Y-68015880D01*
X144327619Y-68015880D01*
X144232380Y-67968261D01*
X144184761Y-67873023D01*
X144184761Y-67492071D01*
X144232380Y-67396833D01*
X144327619Y-67349214D01*
X144518095Y-67349214D01*
X144613333Y-67396833D01*
X144660952Y-67492071D01*
X144660952Y-67587309D01*
X144184761Y-67682547D01*
X144946666Y-67349214D02*
X145327619Y-67349214D01*
X145089523Y-67015880D02*
X145089523Y-67873023D01*
X145137142Y-67968261D01*
X145232380Y-68015880D01*
X145327619Y-68015880D01*
X146041904Y-67968261D02*
X145946666Y-68015880D01*
X145756190Y-68015880D01*
X145660952Y-67968261D01*
X145613333Y-67873023D01*
X145613333Y-67492071D01*
X145660952Y-67396833D01*
X145756190Y-67349214D01*
X145946666Y-67349214D01*
X146041904Y-67396833D01*
X146089523Y-67492071D01*
X146089523Y-67587309D01*
X145613333Y-67682547D01*
X146518095Y-68015880D02*
X146518095Y-67349214D01*
X146518095Y-67539690D02*
X146565714Y-67444452D01*
X146613333Y-67396833D01*
X146708571Y-67349214D01*
X146803809Y-67349214D01*
X116284642Y-34457142D02*
X116237023Y-34504761D01*
X116094166Y-34552380D01*
X115998928Y-34552380D01*
X115856071Y-34504761D01*
X115760833Y-34409523D01*
X115713214Y-34314285D01*
X115665595Y-34123809D01*
X115665595Y-33980952D01*
X115713214Y-33790476D01*
X115760833Y-33695238D01*
X115856071Y-33600000D01*
X115998928Y-33552380D01*
X116094166Y-33552380D01*
X116237023Y-33600000D01*
X116284642Y-33647619D01*
X116665595Y-34266666D02*
X117141785Y-34266666D01*
X116570357Y-34552380D02*
X116903690Y-33552380D01*
X117237023Y-34552380D01*
X118046547Y-34552380D02*
X117570357Y-34552380D01*
X117570357Y-33552380D01*
X119141785Y-34552380D02*
X119141785Y-33552380D01*
X119379880Y-33552380D01*
X119522738Y-33600000D01*
X119617976Y-33695238D01*
X119665595Y-33790476D01*
X119713214Y-33980952D01*
X119713214Y-34123809D01*
X119665595Y-34314285D01*
X119617976Y-34409523D01*
X119522738Y-34504761D01*
X119379880Y-34552380D01*
X119141785Y-34552380D01*
X120141785Y-34457142D02*
X120189404Y-34504761D01*
X120141785Y-34552380D01*
X120094166Y-34504761D01*
X120141785Y-34457142D01*
X120141785Y-34552380D01*
X121189404Y-34457142D02*
X121141785Y-34504761D01*
X120998928Y-34552380D01*
X120903690Y-34552380D01*
X120760833Y-34504761D01*
X120665595Y-34409523D01*
X120617976Y-34314285D01*
X120570357Y-34123809D01*
X120570357Y-33980952D01*
X120617976Y-33790476D01*
X120665595Y-33695238D01*
X120760833Y-33600000D01*
X120903690Y-33552380D01*
X120998928Y-33552380D01*
X121141785Y-33600000D01*
X121189404Y-33647619D01*
X114903690Y-35678571D02*
X115046547Y-35726190D01*
X115094166Y-35773809D01*
X115141785Y-35869047D01*
X115141785Y-36011904D01*
X115094166Y-36107142D01*
X115046547Y-36154761D01*
X114951309Y-36202380D01*
X114570357Y-36202380D01*
X114570357Y-35202380D01*
X114903690Y-35202380D01*
X114998928Y-35250000D01*
X115046547Y-35297619D01*
X115094166Y-35392857D01*
X115094166Y-35488095D01*
X115046547Y-35583333D01*
X114998928Y-35630952D01*
X114903690Y-35678571D01*
X114570357Y-35678571D01*
X115522738Y-35916666D02*
X115998928Y-35916666D01*
X115427500Y-36202380D02*
X115760833Y-35202380D01*
X116094166Y-36202380D01*
X116903690Y-36202380D02*
X116427500Y-36202380D01*
X116427500Y-35202380D01*
X117951309Y-36154761D02*
X118094166Y-36202380D01*
X118332261Y-36202380D01*
X118427500Y-36154761D01*
X118475119Y-36107142D01*
X118522738Y-36011904D01*
X118522738Y-35916666D01*
X118475119Y-35821428D01*
X118427500Y-35773809D01*
X118332261Y-35726190D01*
X118141785Y-35678571D01*
X118046547Y-35630952D01*
X117998928Y-35583333D01*
X117951309Y-35488095D01*
X117951309Y-35392857D01*
X117998928Y-35297619D01*
X118046547Y-35250000D01*
X118141785Y-35202380D01*
X118379880Y-35202380D01*
X118522738Y-35250000D01*
X118951309Y-36202380D02*
X118951309Y-35202380D01*
X119332261Y-35202380D01*
X119427500Y-35250000D01*
X119475119Y-35297619D01*
X119522738Y-35392857D01*
X119522738Y-35535714D01*
X119475119Y-35630952D01*
X119427500Y-35678571D01*
X119332261Y-35726190D01*
X118951309Y-35726190D01*
X119951309Y-35678571D02*
X120284642Y-35678571D01*
X120427500Y-36202380D02*
X119951309Y-36202380D01*
X119951309Y-35202380D01*
X120427500Y-35202380D01*
X120856071Y-35678571D02*
X121189404Y-35678571D01*
X121332261Y-36202380D02*
X120856071Y-36202380D01*
X120856071Y-35202380D01*
X121332261Y-35202380D01*
X121760833Y-36202380D02*
X121760833Y-35202380D01*
X121998928Y-35202380D01*
X122141785Y-35250000D01*
X122237023Y-35345238D01*
X122284642Y-35440476D01*
X122332261Y-35630952D01*
X122332261Y-35773809D01*
X122284642Y-35964285D01*
X122237023Y-36059523D01*
X122141785Y-36154761D01*
X121998928Y-36202380D01*
X121760833Y-36202380D01*
X80176642Y-28257261D02*
X80224261Y-28304880D01*
X80271880Y-28447738D01*
X80271880Y-28542976D01*
X80224261Y-28685833D01*
X80129023Y-28781071D01*
X80033785Y-28828690D01*
X79843309Y-28876309D01*
X79700452Y-28876309D01*
X79509976Y-28828690D01*
X79414738Y-28781071D01*
X79319500Y-28685833D01*
X79271880Y-28542976D01*
X79271880Y-28447738D01*
X79319500Y-28304880D01*
X79367119Y-28257261D01*
X79986166Y-27876309D02*
X79986166Y-27400119D01*
X80271880Y-27971547D02*
X79271880Y-27638214D01*
X80271880Y-27304880D01*
X80271880Y-26495357D02*
X80271880Y-26971547D01*
X79271880Y-26971547D01*
X80271880Y-25400119D02*
X79271880Y-25400119D01*
X79748071Y-25400119D02*
X79748071Y-24828690D01*
X80271880Y-24828690D02*
X79271880Y-24828690D01*
X79271880Y-24447738D02*
X79271880Y-23781071D01*
X80271880Y-24447738D01*
X80271880Y-23781071D01*
X137398761Y-32361142D02*
X137351142Y-32408761D01*
X137208285Y-32456380D01*
X137113047Y-32456380D01*
X136970190Y-32408761D01*
X136874952Y-32313523D01*
X136827333Y-32218285D01*
X136779714Y-32027809D01*
X136779714Y-31884952D01*
X136827333Y-31694476D01*
X136874952Y-31599238D01*
X136970190Y-31504000D01*
X137113047Y-31456380D01*
X137208285Y-31456380D01*
X137351142Y-31504000D01*
X137398761Y-31551619D01*
X137779714Y-32170666D02*
X138255904Y-32170666D01*
X137684476Y-32456380D02*
X138017809Y-31456380D01*
X138351142Y-32456380D01*
X139160666Y-32456380D02*
X138684476Y-32456380D01*
X138684476Y-31456380D01*
X140208285Y-32408761D02*
X140351142Y-32456380D01*
X140589238Y-32456380D01*
X140684476Y-32408761D01*
X140732095Y-32361142D01*
X140779714Y-32265904D01*
X140779714Y-32170666D01*
X140732095Y-32075428D01*
X140684476Y-32027809D01*
X140589238Y-31980190D01*
X140398761Y-31932571D01*
X140303523Y-31884952D01*
X140255904Y-31837333D01*
X140208285Y-31742095D01*
X140208285Y-31646857D01*
X140255904Y-31551619D01*
X140303523Y-31504000D01*
X140398761Y-31456380D01*
X140636857Y-31456380D01*
X140779714Y-31504000D01*
X141208285Y-32456380D02*
X141208285Y-31456380D01*
X141589238Y-31456380D01*
X141684476Y-31504000D01*
X141732095Y-31551619D01*
X141779714Y-31646857D01*
X141779714Y-31789714D01*
X141732095Y-31884952D01*
X141684476Y-31932571D01*
X141589238Y-31980190D01*
X141208285Y-31980190D01*
X142208285Y-31932571D02*
X142541619Y-31932571D01*
X142684476Y-32456380D02*
X142208285Y-32456380D01*
X142208285Y-31456380D01*
X142684476Y-31456380D01*
X143113047Y-31932571D02*
X143446380Y-31932571D01*
X143589238Y-32456380D02*
X143113047Y-32456380D01*
X143113047Y-31456380D01*
X143589238Y-31456380D01*
X144017809Y-32456380D02*
X144017809Y-31456380D01*
X144255904Y-31456380D01*
X144398761Y-31504000D01*
X144494000Y-31599238D01*
X144541619Y-31694476D01*
X144589238Y-31884952D01*
X144589238Y-32027809D01*
X144541619Y-32218285D01*
X144494000Y-32313523D01*
X144398761Y-32408761D01*
X144255904Y-32456380D01*
X144017809Y-32456380D01*
X145970190Y-31456380D02*
X146160666Y-31456380D01*
X146255904Y-31504000D01*
X146351142Y-31599238D01*
X146398761Y-31789714D01*
X146398761Y-32123047D01*
X146351142Y-32313523D01*
X146255904Y-32408761D01*
X146160666Y-32456380D01*
X145970190Y-32456380D01*
X145874952Y-32408761D01*
X145779714Y-32313523D01*
X145732095Y-32123047D01*
X145732095Y-31789714D01*
X145779714Y-31599238D01*
X145874952Y-31504000D01*
X145970190Y-31456380D01*
X146827333Y-31456380D02*
X146827333Y-32265904D01*
X146874952Y-32361142D01*
X146922571Y-32408761D01*
X147017809Y-32456380D01*
X147208285Y-32456380D01*
X147303523Y-32408761D01*
X147351142Y-32361142D01*
X147398761Y-32265904D01*
X147398761Y-31456380D01*
X147732095Y-31456380D02*
X148303523Y-31456380D01*
X148017809Y-32456380D02*
X148017809Y-31456380D01*
X83264857Y-70652142D02*
X83217238Y-70699761D01*
X83074380Y-70747380D01*
X82979142Y-70747380D01*
X82836285Y-70699761D01*
X82741047Y-70604523D01*
X82693428Y-70509285D01*
X82645809Y-70318809D01*
X82645809Y-70175952D01*
X82693428Y-69985476D01*
X82741047Y-69890238D01*
X82836285Y-69795000D01*
X82979142Y-69747380D01*
X83074380Y-69747380D01*
X83217238Y-69795000D01*
X83264857Y-69842619D01*
X83645809Y-70461666D02*
X84122000Y-70461666D01*
X83550571Y-70747380D02*
X83883904Y-69747380D01*
X84217238Y-70747380D01*
X85026761Y-70747380D02*
X84550571Y-70747380D01*
X84550571Y-69747380D01*
X86122000Y-70747380D02*
X86122000Y-69747380D01*
X86360095Y-69747380D01*
X86502952Y-69795000D01*
X86598190Y-69890238D01*
X86645809Y-69985476D01*
X86693428Y-70175952D01*
X86693428Y-70318809D01*
X86645809Y-70509285D01*
X86598190Y-70604523D01*
X86502952Y-70699761D01*
X86360095Y-70747380D01*
X86122000Y-70747380D01*
X87122000Y-70652142D02*
X87169619Y-70699761D01*
X87122000Y-70747380D01*
X87074380Y-70699761D01*
X87122000Y-70652142D01*
X87122000Y-70747380D01*
X88169619Y-70652142D02*
X88122000Y-70699761D01*
X87979142Y-70747380D01*
X87883904Y-70747380D01*
X87741047Y-70699761D01*
X87645809Y-70604523D01*
X87598190Y-70509285D01*
X87550571Y-70318809D01*
X87550571Y-70175952D01*
X87598190Y-69985476D01*
X87645809Y-69890238D01*
X87741047Y-69795000D01*
X87883904Y-69747380D01*
X87979142Y-69747380D01*
X88122000Y-69795000D01*
X88169619Y-69842619D01*
X89693428Y-70223571D02*
X89836285Y-70271190D01*
X89883904Y-70318809D01*
X89931523Y-70414047D01*
X89931523Y-70556904D01*
X89883904Y-70652142D01*
X89836285Y-70699761D01*
X89741047Y-70747380D01*
X89360095Y-70747380D01*
X89360095Y-69747380D01*
X89693428Y-69747380D01*
X89788666Y-69795000D01*
X89836285Y-69842619D01*
X89883904Y-69937857D01*
X89883904Y-70033095D01*
X89836285Y-70128333D01*
X89788666Y-70175952D01*
X89693428Y-70223571D01*
X89360095Y-70223571D01*
X90312476Y-70461666D02*
X90788666Y-70461666D01*
X90217238Y-70747380D02*
X90550571Y-69747380D01*
X90883904Y-70747380D01*
X91693428Y-70747380D02*
X91217238Y-70747380D01*
X91217238Y-69747380D01*
X85645809Y-71397380D02*
X85883904Y-72397380D01*
X86074380Y-71683095D01*
X86264857Y-72397380D01*
X86502952Y-71397380D01*
X87693428Y-72397380D02*
X87645809Y-72397380D01*
X87550571Y-72349761D01*
X87407714Y-72206904D01*
X87169619Y-71921190D01*
X87074380Y-71778333D01*
X87026761Y-71635476D01*
X87026761Y-71540238D01*
X87074380Y-71445000D01*
X87169619Y-71397380D01*
X87217238Y-71397380D01*
X87312476Y-71445000D01*
X87360095Y-71540238D01*
X87360095Y-71587857D01*
X87312476Y-71683095D01*
X87264857Y-71730714D01*
X86979142Y-71921190D01*
X86931523Y-71968809D01*
X86883904Y-72064047D01*
X86883904Y-72206904D01*
X86931523Y-72302142D01*
X86979142Y-72349761D01*
X87074380Y-72397380D01*
X87217238Y-72397380D01*
X87312476Y-72349761D01*
X87360095Y-72302142D01*
X87502952Y-72111666D01*
X87550571Y-71968809D01*
X87550571Y-71873571D01*
X88455333Y-71873571D02*
X88122000Y-71873571D01*
X88122000Y-72397380D02*
X88122000Y-71397380D01*
X88598190Y-71397380D01*
X29698191Y-33474239D02*
X30657836Y-33928808D01*
X30203267Y-32969163D01*
X31667988Y-32817640D02*
X31617481Y-32969163D01*
X31415450Y-33171194D01*
X31263927Y-33221701D01*
X31112405Y-33171194D01*
X30708344Y-32767133D01*
X30657836Y-32615610D01*
X30708344Y-32464087D01*
X30910374Y-32262056D01*
X31061897Y-32211549D01*
X31213420Y-32262056D01*
X31314435Y-32363072D01*
X30910374Y-32969163D01*
X32223572Y-32363072D02*
X31516466Y-31655965D01*
X31718496Y-31857995D02*
X31667988Y-31706472D01*
X31667988Y-31605457D01*
X31718496Y-31453934D01*
X31819511Y-31352919D01*
X32072049Y-31100381D02*
X33031694Y-31554950D01*
X32577126Y-30595305D02*
X33031694Y-31554950D01*
X33183217Y-31908503D01*
X33183217Y-32009518D01*
X33132710Y-32161041D01*
X34496416Y-30090228D02*
X33435755Y-29029568D01*
X34950984Y-29635660D02*
X34395400Y-29080076D01*
X34243877Y-29029568D01*
X34092355Y-29080076D01*
X33940832Y-29231599D01*
X33890324Y-29383122D01*
X33890324Y-29484137D01*
X35607583Y-28979061D02*
X35456061Y-29029568D01*
X35355045Y-29029568D01*
X35203522Y-28979061D01*
X34900477Y-28676015D01*
X34849969Y-28524492D01*
X34849969Y-28423477D01*
X34900477Y-28271954D01*
X35052000Y-28120431D01*
X35203522Y-28069923D01*
X35304538Y-28069923D01*
X35456061Y-28120431D01*
X35759106Y-28423477D01*
X35809614Y-28575000D01*
X35809614Y-28676015D01*
X35759106Y-28827538D01*
X35607583Y-28979061D01*
X35557076Y-27615355D02*
X35961137Y-27211294D01*
X35355045Y-27110278D02*
X36264183Y-28019416D01*
X36415705Y-28069923D01*
X36567228Y-28019416D01*
X36668244Y-27918400D01*
X37728904Y-26756725D02*
X37880427Y-26706217D01*
X38082457Y-26504187D01*
X38132965Y-26352664D01*
X38082457Y-26201141D01*
X38031950Y-26150633D01*
X37880427Y-26100126D01*
X37728904Y-26150633D01*
X37577381Y-26302156D01*
X37425858Y-26352664D01*
X37274335Y-26302156D01*
X37223827Y-26251649D01*
X37173320Y-26100126D01*
X37223827Y-25948603D01*
X37375350Y-25797080D01*
X37526873Y-25746572D01*
X38688549Y-25898095D02*
X37981442Y-25190988D01*
X37627888Y-24837435D02*
X37627888Y-24938450D01*
X37728904Y-24938450D01*
X37728904Y-24837435D01*
X37627888Y-24837435D01*
X37728904Y-24938450D01*
X39648194Y-24938450D02*
X38587533Y-23877790D01*
X39597686Y-24887943D02*
X39547178Y-25039466D01*
X39345148Y-25241496D01*
X39193625Y-25292004D01*
X39092610Y-25292004D01*
X38941087Y-25241496D01*
X38638041Y-24938450D01*
X38587533Y-24786927D01*
X38587533Y-24685912D01*
X38638041Y-24534389D01*
X38840072Y-24332359D01*
X38991594Y-24281851D01*
X40506823Y-23978805D02*
X40456316Y-24130328D01*
X40254285Y-24332359D01*
X40102762Y-24382866D01*
X39951239Y-24332359D01*
X39547178Y-23928298D01*
X39496671Y-23776775D01*
X39547178Y-23625252D01*
X39749209Y-23423222D01*
X39900732Y-23372714D01*
X40052255Y-23423222D01*
X40153270Y-23524237D01*
X39749209Y-24130328D01*
D11*
X133544000Y-50168500D02*
X134874000Y-50168500D01*
X133544000Y-51498500D02*
X133544000Y-50168500D01*
X133544000Y-52768500D02*
X136204000Y-52768500D01*
X136204000Y-52768500D02*
X136204000Y-52828500D01*
X133544000Y-52768500D02*
X133544000Y-52828500D01*
X133544000Y-52828500D02*
X136204000Y-52828500D01*
X142053000Y-52073500D02*
X143383000Y-52073500D01*
X142053000Y-53403500D02*
X142053000Y-52073500D01*
X142053000Y-54673500D02*
X144713000Y-54673500D01*
X144713000Y-54673500D02*
X144713000Y-54733500D01*
X142053000Y-54673500D02*
X142053000Y-54733500D01*
X142053000Y-54733500D02*
X144713000Y-54733500D01*
X108398000Y-61725500D02*
X109728000Y-61725500D01*
X108398000Y-63055500D02*
X108398000Y-61725500D01*
X108398000Y-64325500D02*
X111058000Y-64325500D01*
X111058000Y-64325500D02*
X111058000Y-64385500D01*
X108398000Y-64325500D02*
X108398000Y-64385500D01*
X108398000Y-64385500D02*
X111058000Y-64385500D01*
X69155000Y-21149000D02*
X70485000Y-21149000D01*
X69155000Y-22479000D02*
X69155000Y-21149000D01*
X69155000Y-23749000D02*
X71815000Y-23749000D01*
X71815000Y-23749000D02*
X71815000Y-23809000D01*
X69155000Y-23749000D02*
X69155000Y-23809000D01*
X69155000Y-23809000D02*
X71815000Y-23809000D01*
X69723000Y-82363000D02*
X71053000Y-82363000D01*
X71053000Y-82363000D02*
X71053000Y-83693000D01*
X71053000Y-84963000D02*
X71053000Y-92643000D01*
X68393000Y-92643000D02*
X71053000Y-92643000D01*
X68393000Y-84963000D02*
X68393000Y-92643000D01*
X68393000Y-84963000D02*
X71053000Y-84963000D01*
X70485000Y-25594000D02*
X71815000Y-25594000D01*
X71815000Y-25594000D02*
X71815000Y-26924000D01*
X71815000Y-28194000D02*
X71815000Y-30794000D01*
X69155000Y-30794000D02*
X71815000Y-30794000D01*
X69155000Y-28194000D02*
X69155000Y-30794000D01*
X69155000Y-28194000D02*
X71815000Y-28194000D01*
X73692000Y-92483000D02*
X73692000Y-92813000D01*
X80232000Y-92483000D02*
X73692000Y-92483000D01*
X80232000Y-92813000D02*
X80232000Y-92483000D01*
X73692000Y-95223000D02*
X73692000Y-94893000D01*
X80232000Y-95223000D02*
X73692000Y-95223000D01*
X80232000Y-94893000D02*
X80232000Y-95223000D01*
X83979000Y-92483000D02*
X83979000Y-92813000D01*
X90519000Y-92483000D02*
X83979000Y-92483000D01*
X90519000Y-92813000D02*
X90519000Y-92483000D01*
X83979000Y-95223000D02*
X83979000Y-94893000D01*
X90519000Y-95223000D02*
X83979000Y-95223000D01*
X90519000Y-94893000D02*
X90519000Y-95223000D01*
X73692000Y-81942000D02*
X73692000Y-82272000D01*
X80232000Y-81942000D02*
X73692000Y-81942000D01*
X80232000Y-82272000D02*
X80232000Y-81942000D01*
X73692000Y-84682000D02*
X73692000Y-84352000D01*
X80232000Y-84682000D02*
X73692000Y-84682000D01*
X80232000Y-84352000D02*
X80232000Y-84682000D01*
X83979000Y-81942000D02*
X83979000Y-82272000D01*
X90519000Y-81942000D02*
X83979000Y-81942000D01*
X90519000Y-82272000D02*
X90519000Y-81942000D01*
X83979000Y-84682000D02*
X83979000Y-84352000D01*
X90519000Y-84682000D02*
X83979000Y-84682000D01*
X90519000Y-84352000D02*
X90519000Y-84682000D01*
X83979000Y-87276000D02*
X83979000Y-87606000D01*
X90519000Y-87276000D02*
X83979000Y-87276000D01*
X90519000Y-87606000D02*
X90519000Y-87276000D01*
X83979000Y-90016000D02*
X83979000Y-89686000D01*
X90519000Y-90016000D02*
X83979000Y-90016000D01*
X90519000Y-89686000D02*
X90519000Y-90016000D01*
X106712000Y-84609000D02*
X106712000Y-84939000D01*
X113252000Y-84609000D02*
X106712000Y-84609000D01*
X113252000Y-84939000D02*
X113252000Y-84609000D01*
X106712000Y-87349000D02*
X106712000Y-87019000D01*
X113252000Y-87349000D02*
X106712000Y-87349000D01*
X113252000Y-87019000D02*
X113252000Y-87349000D01*
X106712000Y-89689000D02*
X106712000Y-90019000D01*
X113252000Y-89689000D02*
X106712000Y-89689000D01*
X113252000Y-90019000D02*
X113252000Y-89689000D01*
X106712000Y-92429000D02*
X106712000Y-92099000D01*
X113252000Y-92429000D02*
X106712000Y-92429000D01*
X113252000Y-92099000D02*
X113252000Y-92429000D01*
X123285000Y-84047000D02*
X123285000Y-83717000D01*
X116745000Y-84047000D02*
X123285000Y-84047000D01*
X116745000Y-83717000D02*
X116745000Y-84047000D01*
X123285000Y-81307000D02*
X123285000Y-81637000D01*
X116745000Y-81307000D02*
X123285000Y-81307000D01*
X116745000Y-81637000D02*
X116745000Y-81307000D01*
X139160500Y-90451000D02*
X139160500Y-90781000D01*
X145700500Y-90451000D02*
X139160500Y-90451000D01*
X145700500Y-90781000D02*
X145700500Y-90451000D01*
X139160500Y-93191000D02*
X139160500Y-92861000D01*
X145700500Y-93191000D02*
X139160500Y-93191000D01*
X145700500Y-92861000D02*
X145700500Y-93191000D01*
X158151500Y-78010000D02*
X157821500Y-78010000D01*
X158151500Y-84550000D02*
X158151500Y-78010000D01*
X157821500Y-84550000D02*
X158151500Y-84550000D01*
X155411500Y-78010000D02*
X155741500Y-78010000D01*
X155411500Y-84550000D02*
X155411500Y-78010000D01*
X155741500Y-84550000D02*
X155411500Y-84550000D01*
X139287500Y-74830000D02*
X139287500Y-75160000D01*
X145827500Y-74830000D02*
X139287500Y-74830000D01*
X145827500Y-75160000D02*
X145827500Y-74830000D01*
X139287500Y-77570000D02*
X139287500Y-77240000D01*
X145827500Y-77570000D02*
X139287500Y-77570000D01*
X145827500Y-77240000D02*
X145827500Y-77570000D01*
X156368500Y-89127000D02*
X156368500Y-88797000D01*
X149828500Y-89127000D02*
X156368500Y-89127000D01*
X149828500Y-88797000D02*
X149828500Y-89127000D01*
X156368500Y-86387000D02*
X156368500Y-86717000D01*
X149828500Y-86387000D02*
X156368500Y-86387000D01*
X149828500Y-86717000D02*
X149828500Y-86387000D01*
X150277500Y-51403500D02*
X149947500Y-51403500D01*
X150277500Y-57943500D02*
X150277500Y-51403500D01*
X149947500Y-57943500D02*
X150277500Y-57943500D01*
X147537500Y-51403500D02*
X147867500Y-51403500D01*
X147537500Y-57943500D02*
X147537500Y-51403500D01*
X147867500Y-57943500D02*
X147537500Y-57943500D01*
X150150500Y-35528500D02*
X149820500Y-35528500D01*
X150150500Y-42068500D02*
X150150500Y-35528500D01*
X149820500Y-42068500D02*
X150150500Y-42068500D01*
X147410500Y-35528500D02*
X147740500Y-35528500D01*
X147410500Y-42068500D02*
X147410500Y-35528500D01*
X147740500Y-42068500D02*
X147410500Y-42068500D01*
X140054000Y-46133000D02*
X139724000Y-46133000D01*
X140054000Y-52673000D02*
X140054000Y-46133000D01*
X139724000Y-52673000D02*
X140054000Y-52673000D01*
X137314000Y-46133000D02*
X137644000Y-46133000D01*
X137314000Y-52673000D02*
X137314000Y-46133000D01*
X137644000Y-52673000D02*
X137314000Y-52673000D01*
X127234500Y-23245500D02*
X127234500Y-33015500D01*
X117464500Y-23245500D02*
X117464500Y-33015500D01*
X117464500Y-33015500D02*
X127234500Y-33015500D01*
X117464500Y-23245500D02*
X127234500Y-23245500D01*
X145573500Y-20293000D02*
X145573500Y-19963000D01*
X139033500Y-20293000D02*
X145573500Y-20293000D01*
X139033500Y-19963000D02*
X139033500Y-20293000D01*
X145573500Y-17553000D02*
X145573500Y-17883000D01*
X139033500Y-17553000D02*
X145573500Y-17553000D01*
X139033500Y-17883000D02*
X139033500Y-17553000D01*
X137133000Y-22384000D02*
X136803000Y-22384000D01*
X137133000Y-28924000D02*
X137133000Y-22384000D01*
X136803000Y-28924000D02*
X137133000Y-28924000D01*
X134393000Y-22384000D02*
X134723000Y-22384000D01*
X134393000Y-28924000D02*
X134393000Y-22384000D01*
X134723000Y-28924000D02*
X134393000Y-28924000D01*
X137609000Y-20911000D02*
X147379000Y-20911000D01*
X137609000Y-30681000D02*
X147379000Y-30681000D01*
X147379000Y-30681000D02*
X147379000Y-20911000D01*
X137609000Y-30681000D02*
X137609000Y-20911000D01*
X150595000Y-22447500D02*
X150265000Y-22447500D01*
X150595000Y-28987500D02*
X150595000Y-22447500D01*
X150265000Y-28987500D02*
X150595000Y-28987500D01*
X147855000Y-22447500D02*
X148185000Y-22447500D01*
X147855000Y-28987500D02*
X147855000Y-22447500D01*
X148185000Y-28987500D02*
X147855000Y-28987500D01*
X102521000Y-50382500D02*
X102521000Y-50712500D01*
X109061000Y-50382500D02*
X102521000Y-50382500D01*
X109061000Y-50712500D02*
X109061000Y-50382500D01*
X102521000Y-53122500D02*
X102521000Y-52792500D01*
X109061000Y-53122500D02*
X102521000Y-53122500D01*
X109061000Y-52792500D02*
X109061000Y-53122500D01*
X109124500Y-56678500D02*
X109124500Y-56348500D01*
X102584500Y-56678500D02*
X109124500Y-56678500D01*
X102584500Y-56348500D02*
X102584500Y-56678500D01*
X109124500Y-53938500D02*
X109124500Y-54268500D01*
X102584500Y-53938500D02*
X109124500Y-53938500D01*
X102584500Y-54268500D02*
X102584500Y-53938500D01*
X100044500Y-68416500D02*
X100044500Y-68746500D01*
X106584500Y-68416500D02*
X100044500Y-68416500D01*
X106584500Y-68746500D02*
X106584500Y-68416500D01*
X100044500Y-71156500D02*
X100044500Y-70826500D01*
X106584500Y-71156500D02*
X100044500Y-71156500D01*
X106584500Y-70826500D02*
X106584500Y-71156500D01*
X82427500Y-59074500D02*
X92197500Y-59074500D01*
X82427500Y-68844500D02*
X92197500Y-68844500D01*
X92197500Y-68844500D02*
X92197500Y-59074500D01*
X82427500Y-68844500D02*
X82427500Y-59074500D01*
X92424500Y-48223500D02*
X92424500Y-48553500D01*
X98964500Y-48223500D02*
X92424500Y-48223500D01*
X98964500Y-48553500D02*
X98964500Y-48223500D01*
X92424500Y-50963500D02*
X92424500Y-50633500D01*
X98964500Y-50963500D02*
X92424500Y-50963500D01*
X98964500Y-50633500D02*
X98964500Y-50963500D01*
X123026500Y-42322500D02*
X123356500Y-42322500D01*
X123026500Y-35782500D02*
X123026500Y-42322500D01*
X123356500Y-35782500D02*
X123026500Y-35782500D01*
X125766500Y-42322500D02*
X125436500Y-42322500D01*
X125766500Y-35782500D02*
X125766500Y-42322500D01*
X125436500Y-35782500D02*
X125766500Y-35782500D01*
X104616500Y-15775000D02*
X104616500Y-16105000D01*
X111156500Y-15775000D02*
X104616500Y-15775000D01*
X111156500Y-16105000D02*
X111156500Y-15775000D01*
X104616500Y-18515000D02*
X104616500Y-18185000D01*
X111156500Y-18515000D02*
X104616500Y-18515000D01*
X111156500Y-18185000D02*
X111156500Y-18515000D01*
X118269000Y-19331000D02*
X118269000Y-19661000D01*
X124809000Y-19331000D02*
X118269000Y-19331000D01*
X124809000Y-19661000D02*
X124809000Y-19331000D01*
X118269000Y-22071000D02*
X118269000Y-21741000D01*
X124809000Y-22071000D02*
X118269000Y-22071000D01*
X124809000Y-21741000D02*
X124809000Y-22071000D01*
X110834500Y-28098500D02*
X111164500Y-28098500D01*
X110834500Y-21558500D02*
X110834500Y-28098500D01*
X111164500Y-21558500D02*
X110834500Y-21558500D01*
X113574500Y-28098500D02*
X113244500Y-28098500D01*
X113574500Y-21558500D02*
X113574500Y-28098500D01*
X113244500Y-21558500D02*
X113574500Y-21558500D01*
X133513500Y-22447500D02*
X133183500Y-22447500D01*
X133513500Y-28987500D02*
X133513500Y-22447500D01*
X133183500Y-28987500D02*
X133513500Y-28987500D01*
X130773500Y-22447500D02*
X131103500Y-22447500D01*
X130773500Y-28987500D02*
X130773500Y-22447500D01*
X131103500Y-28987500D02*
X130773500Y-28987500D01*
X129000500Y-16219500D02*
X129000500Y-16549500D01*
X135540500Y-16219500D02*
X129000500Y-16219500D01*
X135540500Y-16549500D02*
X135540500Y-16219500D01*
X129000500Y-18959500D02*
X129000500Y-18629500D01*
X135540500Y-18959500D02*
X129000500Y-18959500D01*
X135540500Y-18629500D02*
X135540500Y-18959500D01*
X88106500Y-37238000D02*
X88106500Y-37568000D01*
X94646500Y-37238000D02*
X88106500Y-37238000D01*
X94646500Y-37568000D02*
X94646500Y-37238000D01*
X88106500Y-39978000D02*
X88106500Y-39648000D01*
X94646500Y-39978000D02*
X88106500Y-39978000D01*
X94646500Y-39648000D02*
X94646500Y-39978000D01*
X83439000Y-15761000D02*
X83439000Y-16520000D01*
X84738000Y-17280000D02*
X82139000Y-17280000D01*
X84738000Y-15761000D02*
X82139000Y-15761000D01*
X82139000Y-15761000D02*
X82139000Y-17280000D01*
X84738000Y-15761000D02*
X84738000Y-17280000D01*
X85974000Y-36571000D02*
X80904000Y-36571000D01*
X85974000Y-17281000D02*
X80904000Y-17281000D01*
X80904000Y-17281000D02*
X80904000Y-36571000D01*
X85974000Y-17281000D02*
X85974000Y-36571000D01*
X67791000Y-21241000D02*
X67461000Y-21241000D01*
X67791000Y-27781000D02*
X67791000Y-21241000D01*
X67461000Y-27781000D02*
X67791000Y-27781000D01*
X65051000Y-21241000D02*
X65381000Y-21241000D01*
X65051000Y-27781000D02*
X65051000Y-21241000D01*
X65381000Y-27781000D02*
X65051000Y-27781000D01*
X73052000Y-27781000D02*
X73382000Y-27781000D01*
X73052000Y-21241000D02*
X73052000Y-27781000D01*
X73382000Y-21241000D02*
X73052000Y-21241000D01*
X75792000Y-27781000D02*
X75462000Y-27781000D01*
X75792000Y-21241000D02*
X75792000Y-27781000D01*
X75462000Y-21241000D02*
X75792000Y-21241000D01*
X61912500Y-87563000D02*
X60582500Y-87563000D01*
X60582500Y-87563000D02*
X60582500Y-86233000D01*
X60582500Y-84963000D02*
X60582500Y-82363000D01*
X63242500Y-82363000D02*
X60582500Y-82363000D01*
X63242500Y-84963000D02*
X63242500Y-82363000D01*
X63242500Y-84963000D02*
X60582500Y-84963000D01*
X144907000Y-63750500D02*
X143577000Y-63750500D01*
X143577000Y-63750500D02*
X143577000Y-62420500D01*
X143577000Y-61150500D02*
X143577000Y-58550500D01*
X146237000Y-58550500D02*
X143577000Y-58550500D01*
X146237000Y-61150500D02*
X146237000Y-58550500D01*
X146237000Y-61150500D02*
X143577000Y-61150500D01*
X51896000Y-31266000D02*
X51896000Y-18526000D01*
X51896000Y-18526000D02*
X41656000Y-18526000D01*
X41656000Y-31266000D02*
X41656000Y-18526000D01*
X51896000Y-31266000D02*
X41656000Y-31266000D01*
X51896000Y-31266000D02*
X51896000Y-18526000D01*
X51896000Y-18526000D02*
X41656000Y-18526000D01*
X41656000Y-31266000D02*
X41656000Y-18526000D01*
X51896000Y-31266000D02*
X41656000Y-31266000D01*
X52276000Y-31646000D02*
X49276000Y-31646000D01*
X52276000Y-28646000D02*
X52276000Y-31646000D01*
X90745000Y-24892000D02*
X90745000Y-23562000D01*
X90745000Y-23562000D02*
X92075000Y-23562000D01*
X93345000Y-23562000D02*
X95945000Y-23562000D01*
X95945000Y-26222000D02*
X95945000Y-23562000D01*
X93345000Y-26222000D02*
X95945000Y-26222000D01*
X93345000Y-26222000D02*
X93345000Y-23562000D01*
X73339000Y-16196000D02*
X73339000Y-17526000D01*
X72009000Y-16196000D02*
X73339000Y-16196000D01*
X70739000Y-16196000D02*
X70739000Y-18856000D01*
X70739000Y-18856000D02*
X68139000Y-18856000D01*
X70739000Y-16196000D02*
X68139000Y-16196000D01*
X68139000Y-16196000D02*
X68139000Y-18856000D01*
X117365000Y-94929000D02*
X119015000Y-94929000D01*
X117365000Y-84649000D02*
X117365000Y-94929000D01*
X122665000Y-84649000D02*
X117365000Y-84649000D01*
X122665000Y-94929000D02*
X122665000Y-84649000D01*
X121015000Y-94929000D02*
X122665000Y-94929000D01*
X119015000Y-94929000D02*
G75*
G02*
X121015000Y-94929000I1000000J0D01*
G01*
X139780500Y-89595000D02*
X141430500Y-89595000D01*
X139780500Y-79315000D02*
X139780500Y-89595000D01*
X145080500Y-79315000D02*
X139780500Y-79315000D01*
X145080500Y-89595000D02*
X145080500Y-79315000D01*
X143430500Y-89595000D02*
X145080500Y-89595000D01*
X141430500Y-89595000D02*
G75*
G02*
X143430500Y-89595000I1000000J0D01*
G01*
X140014000Y-63038500D02*
X140014000Y-61388500D01*
X129734000Y-63038500D02*
X140014000Y-63038500D01*
X129734000Y-57738500D02*
X129734000Y-63038500D01*
X140014000Y-57738500D02*
X129734000Y-57738500D01*
X140014000Y-59388500D02*
X140014000Y-57738500D01*
X140014000Y-61388500D02*
G75*
G02*
X140014000Y-59388500I0J1000000D01*
G01*
X105914500Y-64943500D02*
X105914500Y-63293500D01*
X95634500Y-64943500D02*
X105914500Y-64943500D01*
X95634500Y-59643500D02*
X95634500Y-64943500D01*
X105914500Y-59643500D02*
X95634500Y-59643500D01*
X105914500Y-61293500D02*
X105914500Y-59643500D01*
X105914500Y-63293500D02*
G75*
G02*
X105914500Y-61293500I0J1000000D01*
G01*
X145094000Y-41575500D02*
X145094000Y-39925500D01*
X127194000Y-41575500D02*
X145094000Y-41575500D01*
X127194000Y-36275500D02*
X127194000Y-41575500D01*
X145094000Y-36275500D02*
X127194000Y-36275500D01*
X145094000Y-37925500D02*
X145094000Y-36275500D01*
X145094000Y-39925500D02*
G75*
G02*
X145094000Y-37925500I0J1000000D01*
G01*
X108391000Y-34527000D02*
X108391000Y-32877000D01*
X90491000Y-34527000D02*
X108391000Y-34527000D01*
X90491000Y-29227000D02*
X90491000Y-34527000D01*
X108391000Y-29227000D02*
X90491000Y-29227000D01*
X108391000Y-30877000D02*
X108391000Y-29227000D01*
X108391000Y-32877000D02*
G75*
G02*
X108391000Y-30877000I0J1000000D01*
G01*
X75117000Y-47354000D02*
X75117000Y-45704000D01*
X64837000Y-47354000D02*
X75117000Y-47354000D01*
X64837000Y-42054000D02*
X64837000Y-47354000D01*
X75117000Y-42054000D02*
X64837000Y-42054000D01*
X75117000Y-43704000D02*
X75117000Y-42054000D01*
X75117000Y-45704000D02*
G75*
G02*
X75117000Y-43704000I0J1000000D01*
G01*
X118495000Y-95781000D02*
X118495000Y-98021000D01*
X118735000Y-95781000D02*
X118735000Y-98021000D01*
X118615000Y-95781000D02*
X118615000Y-98021000D01*
X122785000Y-96901000D02*
X122135000Y-96901000D01*
X117245000Y-96901000D02*
X117895000Y-96901000D01*
X122135000Y-95781000D02*
X117895000Y-95781000D01*
X122135000Y-98021000D02*
X122135000Y-95781000D01*
X117895000Y-98021000D02*
X122135000Y-98021000D01*
X117895000Y-95781000D02*
X117895000Y-98021000D01*
X131822000Y-92179000D02*
X131822000Y-89939000D01*
X131582000Y-92179000D02*
X131582000Y-89939000D01*
X131702000Y-92179000D02*
X131702000Y-89939000D01*
X127532000Y-91059000D02*
X128182000Y-91059000D01*
X133072000Y-91059000D02*
X132422000Y-91059000D01*
X128182000Y-92179000D02*
X132422000Y-92179000D01*
X128182000Y-89939000D02*
X128182000Y-92179000D01*
X132422000Y-89939000D02*
X128182000Y-89939000D01*
X132422000Y-92179000D02*
X132422000Y-89939000D01*
X108606000Y-20808000D02*
X105516000Y-20808000D01*
X109561000Y-23368000D02*
G75*
G03*
X109561000Y-23368000I-2500000J0D01*
G01*
X107061462Y-26358000D02*
G75*
G02*
X105516170Y-20808000I-462J2990000D01*
G01*
X107060538Y-26358000D02*
G75*
G03*
X108605830Y-20808000I462J2990000D01*
G01*
X89856500Y-40790000D02*
X89856500Y-43030000D01*
X90096500Y-40790000D02*
X90096500Y-43030000D01*
X89976500Y-40790000D02*
X89976500Y-43030000D01*
X94146500Y-41910000D02*
X93496500Y-41910000D01*
X88606500Y-41910000D02*
X89256500Y-41910000D01*
X93496500Y-40790000D02*
X89256500Y-40790000D01*
X93496500Y-43030000D02*
X93496500Y-40790000D01*
X89256500Y-43030000D02*
X93496500Y-43030000D01*
X89256500Y-40790000D02*
X89256500Y-43030000D01*
X127785000Y-27237500D02*
X130025000Y-27237500D01*
X127785000Y-26997500D02*
X130025000Y-26997500D01*
X127785000Y-27117500D02*
X130025000Y-27117500D01*
X128905000Y-22947500D02*
X128905000Y-23597500D01*
X128905000Y-28487500D02*
X128905000Y-27837500D01*
X127785000Y-23597500D02*
X127785000Y-27837500D01*
X130025000Y-23597500D02*
X127785000Y-23597500D01*
X130025000Y-27837500D02*
X130025000Y-23597500D01*
X127785000Y-27837500D02*
X130025000Y-27837500D01*
X131462000Y-95035000D02*
X131462000Y-95350000D01*
X131462000Y-92610000D02*
X131462000Y-92925000D01*
X126522000Y-95035000D02*
X126522000Y-95350000D01*
X126522000Y-92610000D02*
X126522000Y-92925000D01*
X126522000Y-95350000D02*
X131462000Y-95350000D01*
X126522000Y-92610000D02*
X131462000Y-92610000D01*
X154004500Y-80938000D02*
X154004500Y-81253000D01*
X154004500Y-78513000D02*
X154004500Y-78828000D01*
X149064500Y-80938000D02*
X149064500Y-81253000D01*
X149064500Y-78513000D02*
X149064500Y-78828000D01*
X149064500Y-81253000D02*
X154004500Y-81253000D01*
X149064500Y-78513000D02*
X154004500Y-78513000D01*
X136097500Y-86780000D02*
X136097500Y-87095000D01*
X136097500Y-84355000D02*
X136097500Y-84670000D01*
X131157500Y-86780000D02*
X131157500Y-87095000D01*
X131157500Y-84355000D02*
X131157500Y-84670000D01*
X131157500Y-87095000D02*
X136097500Y-87095000D01*
X131157500Y-84355000D02*
X136097500Y-84355000D01*
X126135500Y-61548500D02*
X125820500Y-61548500D01*
X128560500Y-61548500D02*
X128245500Y-61548500D01*
X126135500Y-56608500D02*
X125820500Y-56608500D01*
X128560500Y-56608500D02*
X128245500Y-56608500D01*
X125820500Y-56608500D02*
X125820500Y-61548500D01*
X128560500Y-56608500D02*
X128560500Y-61548500D01*
X131162275Y-53223500D02*
X131162275Y-52723500D01*
X131412275Y-52973500D02*
X130912275Y-52973500D01*
X126006500Y-51782500D02*
X126006500Y-51214500D01*
X126046500Y-52016500D02*
X126046500Y-50980500D01*
X126086500Y-52175500D02*
X126086500Y-50821500D01*
X126126500Y-52303500D02*
X126126500Y-50693500D01*
X126166500Y-52413500D02*
X126166500Y-50583500D01*
X126206500Y-52509500D02*
X126206500Y-50487500D01*
X126246500Y-52596500D02*
X126246500Y-50400500D01*
X126286500Y-52676500D02*
X126286500Y-50320500D01*
X126326500Y-50458500D02*
X126326500Y-50247500D01*
X126326500Y-52749500D02*
X126326500Y-52538500D01*
X126366500Y-50458500D02*
X126366500Y-50179500D01*
X126366500Y-52817500D02*
X126366500Y-52538500D01*
X126406500Y-50458500D02*
X126406500Y-50115500D01*
X126406500Y-52881500D02*
X126406500Y-52538500D01*
X126446500Y-50458500D02*
X126446500Y-50055500D01*
X126446500Y-52941500D02*
X126446500Y-52538500D01*
X126486500Y-50458500D02*
X126486500Y-49998500D01*
X126486500Y-52998500D02*
X126486500Y-52538500D01*
X126526500Y-50458500D02*
X126526500Y-49944500D01*
X126526500Y-53052500D02*
X126526500Y-52538500D01*
X126566500Y-50458500D02*
X126566500Y-49893500D01*
X126566500Y-53103500D02*
X126566500Y-52538500D01*
X126606500Y-50458500D02*
X126606500Y-49845500D01*
X126606500Y-53151500D02*
X126606500Y-52538500D01*
X126646500Y-50458500D02*
X126646500Y-49799500D01*
X126646500Y-53197500D02*
X126646500Y-52538500D01*
X126686500Y-50458500D02*
X126686500Y-49755500D01*
X126686500Y-53241500D02*
X126686500Y-52538500D01*
X126726500Y-50458500D02*
X126726500Y-49713500D01*
X126726500Y-53283500D02*
X126726500Y-52538500D01*
X126766500Y-50458500D02*
X126766500Y-49672500D01*
X126766500Y-53324500D02*
X126766500Y-52538500D01*
X126806500Y-50458500D02*
X126806500Y-49634500D01*
X126806500Y-53362500D02*
X126806500Y-52538500D01*
X126846500Y-50458500D02*
X126846500Y-49597500D01*
X126846500Y-53399500D02*
X126846500Y-52538500D01*
X126886500Y-50458500D02*
X126886500Y-49561500D01*
X126886500Y-53435500D02*
X126886500Y-52538500D01*
X126926500Y-50458500D02*
X126926500Y-49527500D01*
X126926500Y-53469500D02*
X126926500Y-52538500D01*
X126966500Y-50458500D02*
X126966500Y-49494500D01*
X126966500Y-53502500D02*
X126966500Y-52538500D01*
X127006500Y-50458500D02*
X127006500Y-49463500D01*
X127006500Y-53533500D02*
X127006500Y-52538500D01*
X127046500Y-50458500D02*
X127046500Y-49433500D01*
X127046500Y-53563500D02*
X127046500Y-52538500D01*
X127086500Y-50458500D02*
X127086500Y-49403500D01*
X127086500Y-53593500D02*
X127086500Y-52538500D01*
X127126500Y-50458500D02*
X127126500Y-49376500D01*
X127126500Y-53620500D02*
X127126500Y-52538500D01*
X127166500Y-50458500D02*
X127166500Y-49349500D01*
X127166500Y-53647500D02*
X127166500Y-52538500D01*
X127206500Y-50458500D02*
X127206500Y-49323500D01*
X127206500Y-53673500D02*
X127206500Y-52538500D01*
X127246500Y-50458500D02*
X127246500Y-49298500D01*
X127246500Y-53698500D02*
X127246500Y-52538500D01*
X127286500Y-50458500D02*
X127286500Y-49274500D01*
X127286500Y-53722500D02*
X127286500Y-52538500D01*
X127326500Y-50458500D02*
X127326500Y-49251500D01*
X127326500Y-53745500D02*
X127326500Y-52538500D01*
X127366500Y-50458500D02*
X127366500Y-49230500D01*
X127366500Y-53766500D02*
X127366500Y-52538500D01*
X127406500Y-50458500D02*
X127406500Y-49208500D01*
X127406500Y-53788500D02*
X127406500Y-52538500D01*
X127446500Y-50458500D02*
X127446500Y-49188500D01*
X127446500Y-53808500D02*
X127446500Y-52538500D01*
X127486500Y-50458500D02*
X127486500Y-49169500D01*
X127486500Y-53827500D02*
X127486500Y-52538500D01*
X127526500Y-50458500D02*
X127526500Y-49150500D01*
X127526500Y-53846500D02*
X127526500Y-52538500D01*
X127566500Y-50458500D02*
X127566500Y-49133500D01*
X127566500Y-53863500D02*
X127566500Y-52538500D01*
X127606500Y-50458500D02*
X127606500Y-49116500D01*
X127606500Y-53880500D02*
X127606500Y-52538500D01*
X127646500Y-50458500D02*
X127646500Y-49100500D01*
X127646500Y-53896500D02*
X127646500Y-52538500D01*
X127686500Y-50458500D02*
X127686500Y-49084500D01*
X127686500Y-53912500D02*
X127686500Y-52538500D01*
X127726500Y-50458500D02*
X127726500Y-49070500D01*
X127726500Y-53926500D02*
X127726500Y-52538500D01*
X127766500Y-50458500D02*
X127766500Y-49056500D01*
X127766500Y-53940500D02*
X127766500Y-52538500D01*
X127806500Y-50458500D02*
X127806500Y-49043500D01*
X127806500Y-53953500D02*
X127806500Y-52538500D01*
X127846500Y-50458500D02*
X127846500Y-49030500D01*
X127846500Y-53966500D02*
X127846500Y-52538500D01*
X127886500Y-50458500D02*
X127886500Y-49018500D01*
X127886500Y-53978500D02*
X127886500Y-52538500D01*
X127927500Y-50458500D02*
X127927500Y-49007500D01*
X127927500Y-53989500D02*
X127927500Y-52538500D01*
X127967500Y-50458500D02*
X127967500Y-48997500D01*
X127967500Y-53999500D02*
X127967500Y-52538500D01*
X128007500Y-50458500D02*
X128007500Y-48987500D01*
X128007500Y-54009500D02*
X128007500Y-52538500D01*
X128047500Y-50458500D02*
X128047500Y-48978500D01*
X128047500Y-54018500D02*
X128047500Y-52538500D01*
X128087500Y-50458500D02*
X128087500Y-48970500D01*
X128087500Y-54026500D02*
X128087500Y-52538500D01*
X128127500Y-50458500D02*
X128127500Y-48962500D01*
X128127500Y-54034500D02*
X128127500Y-52538500D01*
X128167500Y-50458500D02*
X128167500Y-48955500D01*
X128167500Y-54041500D02*
X128167500Y-52538500D01*
X128207500Y-50458500D02*
X128207500Y-48948500D01*
X128207500Y-54048500D02*
X128207500Y-52538500D01*
X128247500Y-50458500D02*
X128247500Y-48942500D01*
X128247500Y-54054500D02*
X128247500Y-52538500D01*
X128287500Y-50458500D02*
X128287500Y-48937500D01*
X128287500Y-54059500D02*
X128287500Y-52538500D01*
X128327500Y-50458500D02*
X128327500Y-48933500D01*
X128327500Y-54063500D02*
X128327500Y-52538500D01*
X128367500Y-50458500D02*
X128367500Y-48929500D01*
X128367500Y-54067500D02*
X128367500Y-52538500D01*
X128407500Y-54071500D02*
X128407500Y-48925500D01*
X128447500Y-54074500D02*
X128447500Y-48922500D01*
X128487500Y-54076500D02*
X128487500Y-48920500D01*
X128527500Y-54077500D02*
X128527500Y-48919500D01*
X128567500Y-54078500D02*
X128567500Y-48918500D01*
X128607500Y-54078500D02*
X128607500Y-48918500D01*
X131227500Y-51498500D02*
G75*
G03*
X131227500Y-51498500I-2620000J0D01*
G01*
X131301000Y-67017000D02*
X131301000Y-66702000D01*
X131301000Y-69442000D02*
X131301000Y-69127000D01*
X136241000Y-67017000D02*
X136241000Y-66702000D01*
X136241000Y-69442000D02*
X136241000Y-69127000D01*
X136241000Y-66702000D02*
X131301000Y-66702000D01*
X136241000Y-69442000D02*
X131301000Y-69442000D01*
X109244500Y-75518500D02*
X108929500Y-75518500D01*
X111669500Y-75518500D02*
X111354500Y-75518500D01*
X109244500Y-70578500D02*
X108929500Y-70578500D01*
X111669500Y-70578500D02*
X111354500Y-70578500D01*
X108929500Y-70578500D02*
X108929500Y-75518500D01*
X111669500Y-70578500D02*
X111669500Y-75518500D01*
X118946000Y-44669225D02*
X118446000Y-44669225D01*
X118696000Y-44419225D02*
X118696000Y-44919225D01*
X117505000Y-49825000D02*
X116937000Y-49825000D01*
X117739000Y-49785000D02*
X116703000Y-49785000D01*
X117898000Y-49745000D02*
X116544000Y-49745000D01*
X118026000Y-49705000D02*
X116416000Y-49705000D01*
X118136000Y-49665000D02*
X116306000Y-49665000D01*
X118232000Y-49625000D02*
X116210000Y-49625000D01*
X118319000Y-49585000D02*
X116123000Y-49585000D01*
X118399000Y-49545000D02*
X116043000Y-49545000D01*
X116181000Y-49505000D02*
X115970000Y-49505000D01*
X118472000Y-49505000D02*
X118261000Y-49505000D01*
X116181000Y-49465000D02*
X115902000Y-49465000D01*
X118540000Y-49465000D02*
X118261000Y-49465000D01*
X116181000Y-49425000D02*
X115838000Y-49425000D01*
X118604000Y-49425000D02*
X118261000Y-49425000D01*
X116181000Y-49385000D02*
X115778000Y-49385000D01*
X118664000Y-49385000D02*
X118261000Y-49385000D01*
X116181000Y-49345000D02*
X115721000Y-49345000D01*
X118721000Y-49345000D02*
X118261000Y-49345000D01*
X116181000Y-49305000D02*
X115667000Y-49305000D01*
X118775000Y-49305000D02*
X118261000Y-49305000D01*
X116181000Y-49265000D02*
X115616000Y-49265000D01*
X118826000Y-49265000D02*
X118261000Y-49265000D01*
X116181000Y-49225000D02*
X115568000Y-49225000D01*
X118874000Y-49225000D02*
X118261000Y-49225000D01*
X116181000Y-49185000D02*
X115522000Y-49185000D01*
X118920000Y-49185000D02*
X118261000Y-49185000D01*
X116181000Y-49145000D02*
X115478000Y-49145000D01*
X118964000Y-49145000D02*
X118261000Y-49145000D01*
X116181000Y-49105000D02*
X115436000Y-49105000D01*
X119006000Y-49105000D02*
X118261000Y-49105000D01*
X116181000Y-49065000D02*
X115395000Y-49065000D01*
X119047000Y-49065000D02*
X118261000Y-49065000D01*
X116181000Y-49025000D02*
X115357000Y-49025000D01*
X119085000Y-49025000D02*
X118261000Y-49025000D01*
X116181000Y-48985000D02*
X115320000Y-48985000D01*
X119122000Y-48985000D02*
X118261000Y-48985000D01*
X116181000Y-48945000D02*
X115284000Y-48945000D01*
X119158000Y-48945000D02*
X118261000Y-48945000D01*
X116181000Y-48905000D02*
X115250000Y-48905000D01*
X119192000Y-48905000D02*
X118261000Y-48905000D01*
X116181000Y-48865000D02*
X115217000Y-48865000D01*
X119225000Y-48865000D02*
X118261000Y-48865000D01*
X116181000Y-48825000D02*
X115186000Y-48825000D01*
X119256000Y-48825000D02*
X118261000Y-48825000D01*
X116181000Y-48785000D02*
X115156000Y-48785000D01*
X119286000Y-48785000D02*
X118261000Y-48785000D01*
X116181000Y-48745000D02*
X115126000Y-48745000D01*
X119316000Y-48745000D02*
X118261000Y-48745000D01*
X116181000Y-48705000D02*
X115099000Y-48705000D01*
X119343000Y-48705000D02*
X118261000Y-48705000D01*
X116181000Y-48665000D02*
X115072000Y-48665000D01*
X119370000Y-48665000D02*
X118261000Y-48665000D01*
X116181000Y-48625000D02*
X115046000Y-48625000D01*
X119396000Y-48625000D02*
X118261000Y-48625000D01*
X116181000Y-48585000D02*
X115021000Y-48585000D01*
X119421000Y-48585000D02*
X118261000Y-48585000D01*
X116181000Y-48545000D02*
X114997000Y-48545000D01*
X119445000Y-48545000D02*
X118261000Y-48545000D01*
X116181000Y-48505000D02*
X114974000Y-48505000D01*
X119468000Y-48505000D02*
X118261000Y-48505000D01*
X116181000Y-48465000D02*
X114953000Y-48465000D01*
X119489000Y-48465000D02*
X118261000Y-48465000D01*
X116181000Y-48425000D02*
X114931000Y-48425000D01*
X119511000Y-48425000D02*
X118261000Y-48425000D01*
X116181000Y-48385000D02*
X114911000Y-48385000D01*
X119531000Y-48385000D02*
X118261000Y-48385000D01*
X116181000Y-48345000D02*
X114892000Y-48345000D01*
X119550000Y-48345000D02*
X118261000Y-48345000D01*
X116181000Y-48305000D02*
X114873000Y-48305000D01*
X119569000Y-48305000D02*
X118261000Y-48305000D01*
X116181000Y-48265000D02*
X114856000Y-48265000D01*
X119586000Y-48265000D02*
X118261000Y-48265000D01*
X116181000Y-48225000D02*
X114839000Y-48225000D01*
X119603000Y-48225000D02*
X118261000Y-48225000D01*
X116181000Y-48185000D02*
X114823000Y-48185000D01*
X119619000Y-48185000D02*
X118261000Y-48185000D01*
X116181000Y-48145000D02*
X114807000Y-48145000D01*
X119635000Y-48145000D02*
X118261000Y-48145000D01*
X116181000Y-48105000D02*
X114793000Y-48105000D01*
X119649000Y-48105000D02*
X118261000Y-48105000D01*
X116181000Y-48065000D02*
X114779000Y-48065000D01*
X119663000Y-48065000D02*
X118261000Y-48065000D01*
X116181000Y-48025000D02*
X114766000Y-48025000D01*
X119676000Y-48025000D02*
X118261000Y-48025000D01*
X116181000Y-47985000D02*
X114753000Y-47985000D01*
X119689000Y-47985000D02*
X118261000Y-47985000D01*
X116181000Y-47945000D02*
X114741000Y-47945000D01*
X119701000Y-47945000D02*
X118261000Y-47945000D01*
X116181000Y-47904000D02*
X114730000Y-47904000D01*
X119712000Y-47904000D02*
X118261000Y-47904000D01*
X116181000Y-47864000D02*
X114720000Y-47864000D01*
X119722000Y-47864000D02*
X118261000Y-47864000D01*
X116181000Y-47824000D02*
X114710000Y-47824000D01*
X119732000Y-47824000D02*
X118261000Y-47824000D01*
X116181000Y-47784000D02*
X114701000Y-47784000D01*
X119741000Y-47784000D02*
X118261000Y-47784000D01*
X116181000Y-47744000D02*
X114693000Y-47744000D01*
X119749000Y-47744000D02*
X118261000Y-47744000D01*
X116181000Y-47704000D02*
X114685000Y-47704000D01*
X119757000Y-47704000D02*
X118261000Y-47704000D01*
X116181000Y-47664000D02*
X114678000Y-47664000D01*
X119764000Y-47664000D02*
X118261000Y-47664000D01*
X116181000Y-47624000D02*
X114671000Y-47624000D01*
X119771000Y-47624000D02*
X118261000Y-47624000D01*
X116181000Y-47584000D02*
X114665000Y-47584000D01*
X119777000Y-47584000D02*
X118261000Y-47584000D01*
X116181000Y-47544000D02*
X114660000Y-47544000D01*
X119782000Y-47544000D02*
X118261000Y-47544000D01*
X116181000Y-47504000D02*
X114656000Y-47504000D01*
X119786000Y-47504000D02*
X118261000Y-47504000D01*
X116181000Y-47464000D02*
X114652000Y-47464000D01*
X119790000Y-47464000D02*
X118261000Y-47464000D01*
X119794000Y-47424000D02*
X114648000Y-47424000D01*
X119797000Y-47384000D02*
X114645000Y-47384000D01*
X119799000Y-47344000D02*
X114643000Y-47344000D01*
X119800000Y-47304000D02*
X114642000Y-47304000D01*
X119801000Y-47264000D02*
X114641000Y-47264000D01*
X119801000Y-47224000D02*
X114641000Y-47224000D01*
X119841000Y-47224000D02*
G75*
G03*
X119841000Y-47224000I-2620000J0D01*
G01*
X91931000Y-53491500D02*
X91931000Y-53176500D01*
X91931000Y-55916500D02*
X91931000Y-55601500D01*
X96871000Y-53491500D02*
X96871000Y-53176500D01*
X96871000Y-55916500D02*
X96871000Y-55601500D01*
X96871000Y-53176500D02*
X91931000Y-53176500D01*
X96871000Y-55916500D02*
X91931000Y-55916500D01*
X147083000Y-46521000D02*
X147083000Y-46836000D01*
X147083000Y-44096000D02*
X147083000Y-44411000D01*
X142143000Y-46521000D02*
X142143000Y-46836000D01*
X142143000Y-44096000D02*
X142143000Y-44411000D01*
X142143000Y-46836000D02*
X147083000Y-46836000D01*
X142143000Y-44096000D02*
X147083000Y-44096000D01*
X120379000Y-16026500D02*
X120379000Y-15711500D01*
X120379000Y-18451500D02*
X120379000Y-18136500D01*
X125319000Y-16026500D02*
X125319000Y-15711500D01*
X125319000Y-18451500D02*
X125319000Y-18136500D01*
X125319000Y-15711500D02*
X120379000Y-15711500D01*
X125319000Y-18451500D02*
X120379000Y-18451500D01*
X114515000Y-29036500D02*
X114200000Y-29036500D01*
X116940000Y-29036500D02*
X116625000Y-29036500D01*
X114515000Y-24096500D02*
X114200000Y-24096500D01*
X116940000Y-24096500D02*
X116625000Y-24096500D01*
X114200000Y-24096500D02*
X114200000Y-29036500D01*
X116940000Y-24096500D02*
X116940000Y-29036500D01*
X104030000Y-39663000D02*
X104030000Y-39978000D01*
X104030000Y-37238000D02*
X104030000Y-37553000D01*
X99090000Y-39663000D02*
X99090000Y-39978000D01*
X99090000Y-37238000D02*
X99090000Y-37553000D01*
X99090000Y-39978000D02*
X104030000Y-39978000D01*
X99090000Y-37238000D02*
X104030000Y-37238000D01*
X86706225Y-18341000D02*
X86706225Y-18841000D01*
X86456225Y-18591000D02*
X86956225Y-18591000D01*
X91862000Y-19782000D02*
X91862000Y-20350000D01*
X91822000Y-19548000D02*
X91822000Y-20584000D01*
X91782000Y-19389000D02*
X91782000Y-20743000D01*
X91742000Y-19261000D02*
X91742000Y-20871000D01*
X91702000Y-19151000D02*
X91702000Y-20981000D01*
X91662000Y-19055000D02*
X91662000Y-21077000D01*
X91622000Y-18968000D02*
X91622000Y-21164000D01*
X91582000Y-18888000D02*
X91582000Y-21244000D01*
X91542000Y-21106000D02*
X91542000Y-21317000D01*
X91542000Y-18815000D02*
X91542000Y-19026000D01*
X91502000Y-21106000D02*
X91502000Y-21385000D01*
X91502000Y-18747000D02*
X91502000Y-19026000D01*
X91462000Y-21106000D02*
X91462000Y-21449000D01*
X91462000Y-18683000D02*
X91462000Y-19026000D01*
X91422000Y-21106000D02*
X91422000Y-21509000D01*
X91422000Y-18623000D02*
X91422000Y-19026000D01*
X91382000Y-21106000D02*
X91382000Y-21566000D01*
X91382000Y-18566000D02*
X91382000Y-19026000D01*
X91342000Y-21106000D02*
X91342000Y-21620000D01*
X91342000Y-18512000D02*
X91342000Y-19026000D01*
X91302000Y-21106000D02*
X91302000Y-21671000D01*
X91302000Y-18461000D02*
X91302000Y-19026000D01*
X91262000Y-21106000D02*
X91262000Y-21719000D01*
X91262000Y-18413000D02*
X91262000Y-19026000D01*
X91222000Y-21106000D02*
X91222000Y-21765000D01*
X91222000Y-18367000D02*
X91222000Y-19026000D01*
X91182000Y-21106000D02*
X91182000Y-21809000D01*
X91182000Y-18323000D02*
X91182000Y-19026000D01*
X91142000Y-21106000D02*
X91142000Y-21851000D01*
X91142000Y-18281000D02*
X91142000Y-19026000D01*
X91102000Y-21106000D02*
X91102000Y-21892000D01*
X91102000Y-18240000D02*
X91102000Y-19026000D01*
X91062000Y-21106000D02*
X91062000Y-21930000D01*
X91062000Y-18202000D02*
X91062000Y-19026000D01*
X91022000Y-21106000D02*
X91022000Y-21967000D01*
X91022000Y-18165000D02*
X91022000Y-19026000D01*
X90982000Y-21106000D02*
X90982000Y-22003000D01*
X90982000Y-18129000D02*
X90982000Y-19026000D01*
X90942000Y-21106000D02*
X90942000Y-22037000D01*
X90942000Y-18095000D02*
X90942000Y-19026000D01*
X90902000Y-21106000D02*
X90902000Y-22070000D01*
X90902000Y-18062000D02*
X90902000Y-19026000D01*
X90862000Y-21106000D02*
X90862000Y-22101000D01*
X90862000Y-18031000D02*
X90862000Y-19026000D01*
X90822000Y-21106000D02*
X90822000Y-22131000D01*
X90822000Y-18001000D02*
X90822000Y-19026000D01*
X90782000Y-21106000D02*
X90782000Y-22161000D01*
X90782000Y-17971000D02*
X90782000Y-19026000D01*
X90742000Y-21106000D02*
X90742000Y-22188000D01*
X90742000Y-17944000D02*
X90742000Y-19026000D01*
X90702000Y-21106000D02*
X90702000Y-22215000D01*
X90702000Y-17917000D02*
X90702000Y-19026000D01*
X90662000Y-21106000D02*
X90662000Y-22241000D01*
X90662000Y-17891000D02*
X90662000Y-19026000D01*
X90622000Y-21106000D02*
X90622000Y-22266000D01*
X90622000Y-17866000D02*
X90622000Y-19026000D01*
X90582000Y-21106000D02*
X90582000Y-22290000D01*
X90582000Y-17842000D02*
X90582000Y-19026000D01*
X90542000Y-21106000D02*
X90542000Y-22313000D01*
X90542000Y-17819000D02*
X90542000Y-19026000D01*
X90502000Y-21106000D02*
X90502000Y-22334000D01*
X90502000Y-17798000D02*
X90502000Y-19026000D01*
X90462000Y-21106000D02*
X90462000Y-22356000D01*
X90462000Y-17776000D02*
X90462000Y-19026000D01*
X90422000Y-21106000D02*
X90422000Y-22376000D01*
X90422000Y-17756000D02*
X90422000Y-19026000D01*
X90382000Y-21106000D02*
X90382000Y-22395000D01*
X90382000Y-17737000D02*
X90382000Y-19026000D01*
X90342000Y-21106000D02*
X90342000Y-22414000D01*
X90342000Y-17718000D02*
X90342000Y-19026000D01*
X90302000Y-21106000D02*
X90302000Y-22431000D01*
X90302000Y-17701000D02*
X90302000Y-19026000D01*
X90262000Y-21106000D02*
X90262000Y-22448000D01*
X90262000Y-17684000D02*
X90262000Y-19026000D01*
X90222000Y-21106000D02*
X90222000Y-22464000D01*
X90222000Y-17668000D02*
X90222000Y-19026000D01*
X90182000Y-21106000D02*
X90182000Y-22480000D01*
X90182000Y-17652000D02*
X90182000Y-19026000D01*
X90142000Y-21106000D02*
X90142000Y-22494000D01*
X90142000Y-17638000D02*
X90142000Y-19026000D01*
X90102000Y-21106000D02*
X90102000Y-22508000D01*
X90102000Y-17624000D02*
X90102000Y-19026000D01*
X90062000Y-21106000D02*
X90062000Y-22521000D01*
X90062000Y-17611000D02*
X90062000Y-19026000D01*
X90022000Y-21106000D02*
X90022000Y-22534000D01*
X90022000Y-17598000D02*
X90022000Y-19026000D01*
X89982000Y-21106000D02*
X89982000Y-22546000D01*
X89982000Y-17586000D02*
X89982000Y-19026000D01*
X89941000Y-21106000D02*
X89941000Y-22557000D01*
X89941000Y-17575000D02*
X89941000Y-19026000D01*
X89901000Y-21106000D02*
X89901000Y-22567000D01*
X89901000Y-17565000D02*
X89901000Y-19026000D01*
X89861000Y-21106000D02*
X89861000Y-22577000D01*
X89861000Y-17555000D02*
X89861000Y-19026000D01*
X89821000Y-21106000D02*
X89821000Y-22586000D01*
X89821000Y-17546000D02*
X89821000Y-19026000D01*
X89781000Y-21106000D02*
X89781000Y-22594000D01*
X89781000Y-17538000D02*
X89781000Y-19026000D01*
X89741000Y-21106000D02*
X89741000Y-22602000D01*
X89741000Y-17530000D02*
X89741000Y-19026000D01*
X89701000Y-21106000D02*
X89701000Y-22609000D01*
X89701000Y-17523000D02*
X89701000Y-19026000D01*
X89661000Y-21106000D02*
X89661000Y-22616000D01*
X89661000Y-17516000D02*
X89661000Y-19026000D01*
X89621000Y-21106000D02*
X89621000Y-22622000D01*
X89621000Y-17510000D02*
X89621000Y-19026000D01*
X89581000Y-21106000D02*
X89581000Y-22627000D01*
X89581000Y-17505000D02*
X89581000Y-19026000D01*
X89541000Y-21106000D02*
X89541000Y-22631000D01*
X89541000Y-17501000D02*
X89541000Y-19026000D01*
X89501000Y-21106000D02*
X89501000Y-22635000D01*
X89501000Y-17497000D02*
X89501000Y-19026000D01*
X89461000Y-17493000D02*
X89461000Y-22639000D01*
X89421000Y-17490000D02*
X89421000Y-22642000D01*
X89381000Y-17488000D02*
X89381000Y-22644000D01*
X89341000Y-17487000D02*
X89341000Y-22645000D01*
X89301000Y-17486000D02*
X89301000Y-22646000D01*
X89261000Y-17486000D02*
X89261000Y-22646000D01*
X91881000Y-20066000D02*
G75*
G03*
X91881000Y-20066000I-2620000J0D01*
G01*
X81206000Y-42452775D02*
X81706000Y-42452775D01*
X81456000Y-42702775D02*
X81456000Y-42202775D01*
X82647000Y-37297000D02*
X83215000Y-37297000D01*
X82413000Y-37337000D02*
X83449000Y-37337000D01*
X82254000Y-37377000D02*
X83608000Y-37377000D01*
X82126000Y-37417000D02*
X83736000Y-37417000D01*
X82016000Y-37457000D02*
X83846000Y-37457000D01*
X81920000Y-37497000D02*
X83942000Y-37497000D01*
X81833000Y-37537000D02*
X84029000Y-37537000D01*
X81753000Y-37577000D02*
X84109000Y-37577000D01*
X83971000Y-37617000D02*
X84182000Y-37617000D01*
X81680000Y-37617000D02*
X81891000Y-37617000D01*
X83971000Y-37657000D02*
X84250000Y-37657000D01*
X81612000Y-37657000D02*
X81891000Y-37657000D01*
X83971000Y-37697000D02*
X84314000Y-37697000D01*
X81548000Y-37697000D02*
X81891000Y-37697000D01*
X83971000Y-37737000D02*
X84374000Y-37737000D01*
X81488000Y-37737000D02*
X81891000Y-37737000D01*
X83971000Y-37777000D02*
X84431000Y-37777000D01*
X81431000Y-37777000D02*
X81891000Y-37777000D01*
X83971000Y-37817000D02*
X84485000Y-37817000D01*
X81377000Y-37817000D02*
X81891000Y-37817000D01*
X83971000Y-37857000D02*
X84536000Y-37857000D01*
X81326000Y-37857000D02*
X81891000Y-37857000D01*
X83971000Y-37897000D02*
X84584000Y-37897000D01*
X81278000Y-37897000D02*
X81891000Y-37897000D01*
X83971000Y-37937000D02*
X84630000Y-37937000D01*
X81232000Y-37937000D02*
X81891000Y-37937000D01*
X83971000Y-37977000D02*
X84674000Y-37977000D01*
X81188000Y-37977000D02*
X81891000Y-37977000D01*
X83971000Y-38017000D02*
X84716000Y-38017000D01*
X81146000Y-38017000D02*
X81891000Y-38017000D01*
X83971000Y-38057000D02*
X84757000Y-38057000D01*
X81105000Y-38057000D02*
X81891000Y-38057000D01*
X83971000Y-38097000D02*
X84795000Y-38097000D01*
X81067000Y-38097000D02*
X81891000Y-38097000D01*
X83971000Y-38137000D02*
X84832000Y-38137000D01*
X81030000Y-38137000D02*
X81891000Y-38137000D01*
X83971000Y-38177000D02*
X84868000Y-38177000D01*
X80994000Y-38177000D02*
X81891000Y-38177000D01*
X83971000Y-38217000D02*
X84902000Y-38217000D01*
X80960000Y-38217000D02*
X81891000Y-38217000D01*
X83971000Y-38257000D02*
X84935000Y-38257000D01*
X80927000Y-38257000D02*
X81891000Y-38257000D01*
X83971000Y-38297000D02*
X84966000Y-38297000D01*
X80896000Y-38297000D02*
X81891000Y-38297000D01*
X83971000Y-38337000D02*
X84996000Y-38337000D01*
X80866000Y-38337000D02*
X81891000Y-38337000D01*
X83971000Y-38377000D02*
X85026000Y-38377000D01*
X80836000Y-38377000D02*
X81891000Y-38377000D01*
X83971000Y-38417000D02*
X85053000Y-38417000D01*
X80809000Y-38417000D02*
X81891000Y-38417000D01*
X83971000Y-38457000D02*
X85080000Y-38457000D01*
X80782000Y-38457000D02*
X81891000Y-38457000D01*
X83971000Y-38497000D02*
X85106000Y-38497000D01*
X80756000Y-38497000D02*
X81891000Y-38497000D01*
X83971000Y-38537000D02*
X85131000Y-38537000D01*
X80731000Y-38537000D02*
X81891000Y-38537000D01*
X83971000Y-38577000D02*
X85155000Y-38577000D01*
X80707000Y-38577000D02*
X81891000Y-38577000D01*
X83971000Y-38617000D02*
X85178000Y-38617000D01*
X80684000Y-38617000D02*
X81891000Y-38617000D01*
X83971000Y-38657000D02*
X85199000Y-38657000D01*
X80663000Y-38657000D02*
X81891000Y-38657000D01*
X83971000Y-38697000D02*
X85221000Y-38697000D01*
X80641000Y-38697000D02*
X81891000Y-38697000D01*
X83971000Y-38737000D02*
X85241000Y-38737000D01*
X80621000Y-38737000D02*
X81891000Y-38737000D01*
X83971000Y-38777000D02*
X85260000Y-38777000D01*
X80602000Y-38777000D02*
X81891000Y-38777000D01*
X83971000Y-38817000D02*
X85279000Y-38817000D01*
X80583000Y-38817000D02*
X81891000Y-38817000D01*
X83971000Y-38857000D02*
X85296000Y-38857000D01*
X80566000Y-38857000D02*
X81891000Y-38857000D01*
X83971000Y-38897000D02*
X85313000Y-38897000D01*
X80549000Y-38897000D02*
X81891000Y-38897000D01*
X83971000Y-38937000D02*
X85329000Y-38937000D01*
X80533000Y-38937000D02*
X81891000Y-38937000D01*
X83971000Y-38977000D02*
X85345000Y-38977000D01*
X80517000Y-38977000D02*
X81891000Y-38977000D01*
X83971000Y-39017000D02*
X85359000Y-39017000D01*
X80503000Y-39017000D02*
X81891000Y-39017000D01*
X83971000Y-39057000D02*
X85373000Y-39057000D01*
X80489000Y-39057000D02*
X81891000Y-39057000D01*
X83971000Y-39097000D02*
X85386000Y-39097000D01*
X80476000Y-39097000D02*
X81891000Y-39097000D01*
X83971000Y-39137000D02*
X85399000Y-39137000D01*
X80463000Y-39137000D02*
X81891000Y-39137000D01*
X83971000Y-39177000D02*
X85411000Y-39177000D01*
X80451000Y-39177000D02*
X81891000Y-39177000D01*
X83971000Y-39218000D02*
X85422000Y-39218000D01*
X80440000Y-39218000D02*
X81891000Y-39218000D01*
X83971000Y-39258000D02*
X85432000Y-39258000D01*
X80430000Y-39258000D02*
X81891000Y-39258000D01*
X83971000Y-39298000D02*
X85442000Y-39298000D01*
X80420000Y-39298000D02*
X81891000Y-39298000D01*
X83971000Y-39338000D02*
X85451000Y-39338000D01*
X80411000Y-39338000D02*
X81891000Y-39338000D01*
X83971000Y-39378000D02*
X85459000Y-39378000D01*
X80403000Y-39378000D02*
X81891000Y-39378000D01*
X83971000Y-39418000D02*
X85467000Y-39418000D01*
X80395000Y-39418000D02*
X81891000Y-39418000D01*
X83971000Y-39458000D02*
X85474000Y-39458000D01*
X80388000Y-39458000D02*
X81891000Y-39458000D01*
X83971000Y-39498000D02*
X85481000Y-39498000D01*
X80381000Y-39498000D02*
X81891000Y-39498000D01*
X83971000Y-39538000D02*
X85487000Y-39538000D01*
X80375000Y-39538000D02*
X81891000Y-39538000D01*
X83971000Y-39578000D02*
X85492000Y-39578000D01*
X80370000Y-39578000D02*
X81891000Y-39578000D01*
X83971000Y-39618000D02*
X85496000Y-39618000D01*
X80366000Y-39618000D02*
X81891000Y-39618000D01*
X83971000Y-39658000D02*
X85500000Y-39658000D01*
X80362000Y-39658000D02*
X81891000Y-39658000D01*
X80358000Y-39698000D02*
X85504000Y-39698000D01*
X80355000Y-39738000D02*
X85507000Y-39738000D01*
X80353000Y-39778000D02*
X85509000Y-39778000D01*
X80352000Y-39818000D02*
X85510000Y-39818000D01*
X80351000Y-39858000D02*
X85511000Y-39858000D01*
X80351000Y-39898000D02*
X85511000Y-39898000D01*
X85551000Y-39898000D02*
G75*
G03*
X85551000Y-39898000I-2620000J0D01*
G01*
X65705500Y-37045000D02*
X65705500Y-36730000D01*
X65705500Y-39470000D02*
X65705500Y-39155000D01*
X70645500Y-37045000D02*
X70645500Y-36730000D01*
X70645500Y-39470000D02*
X70645500Y-39155000D01*
X70645500Y-36730000D02*
X65705500Y-36730000D01*
X70645500Y-39470000D02*
X65705500Y-39470000D01*
X66277000Y-50507000D02*
X66277000Y-50192000D01*
X66277000Y-52932000D02*
X66277000Y-52617000D01*
X71217000Y-50507000D02*
X71217000Y-50192000D01*
X71217000Y-52932000D02*
X71217000Y-52617000D01*
X71217000Y-50192000D02*
X66277000Y-50192000D01*
X71217000Y-52932000D02*
X66277000Y-52932000D01*
X114783500Y-70531500D02*
X115098500Y-70531500D01*
X112358500Y-70531500D02*
X112673500Y-70531500D01*
X114783500Y-75471500D02*
X115098500Y-75471500D01*
X112358500Y-75471500D02*
X112673500Y-75471500D01*
X115098500Y-75471500D02*
X115098500Y-70531500D01*
X112358500Y-75471500D02*
X112358500Y-70531500D01*
X149064500Y-81815000D02*
X154004500Y-81815000D01*
X149064500Y-84555000D02*
X154004500Y-84555000D01*
X149064500Y-81815000D02*
X149064500Y-82130000D01*
X149064500Y-84240000D02*
X149064500Y-84555000D01*
X154004500Y-81815000D02*
X154004500Y-82130000D01*
X154004500Y-84240000D02*
X154004500Y-84555000D01*
D10*
X40600380Y-61213904D02*
X41409904Y-61213904D01*
X41505142Y-61166285D01*
X41552761Y-61118666D01*
X41600380Y-61023428D01*
X41600380Y-60832952D01*
X41552761Y-60737714D01*
X41505142Y-60690095D01*
X41409904Y-60642476D01*
X40600380Y-60642476D01*
X41600380Y-59642476D02*
X41600380Y-60213904D01*
X41600380Y-59928190D02*
X40600380Y-59928190D01*
X40743238Y-60023428D01*
X40838476Y-60118666D01*
X40886095Y-60213904D01*
X52014380Y-67166380D02*
X51538190Y-67499714D01*
X52014380Y-67737809D02*
X51014380Y-67737809D01*
X51014380Y-67356857D01*
X51062000Y-67261619D01*
X51109619Y-67214000D01*
X51204857Y-67166380D01*
X51347714Y-67166380D01*
X51442952Y-67214000D01*
X51490571Y-67261619D01*
X51538190Y-67356857D01*
X51538190Y-67737809D01*
X51728666Y-66785428D02*
X51728666Y-66309238D01*
X52014380Y-66880666D02*
X51014380Y-66547333D01*
X52014380Y-66214000D01*
X51919142Y-65309238D02*
X51966761Y-65356857D01*
X52014380Y-65499714D01*
X52014380Y-65594952D01*
X51966761Y-65737809D01*
X51871523Y-65833047D01*
X51776285Y-65880666D01*
X51585809Y-65928285D01*
X51442952Y-65928285D01*
X51252476Y-65880666D01*
X51157238Y-65833047D01*
X51062000Y-65737809D01*
X51014380Y-65594952D01*
X51014380Y-65499714D01*
X51062000Y-65356857D01*
X51109619Y-65309238D01*
X52014380Y-64356857D02*
X52014380Y-64928285D01*
X52014380Y-64642571D02*
X51014380Y-64642571D01*
X51157238Y-64737809D01*
X51252476Y-64833047D01*
X51300095Y-64928285D01*
X51014380Y-63737809D02*
X51014380Y-63642571D01*
X51062000Y-63547333D01*
X51109619Y-63499714D01*
X51204857Y-63452095D01*
X51395333Y-63404476D01*
X51633428Y-63404476D01*
X51823904Y-63452095D01*
X51919142Y-63499714D01*
X51966761Y-63547333D01*
X52014380Y-63642571D01*
X52014380Y-63737809D01*
X51966761Y-63833047D01*
X51919142Y-63880666D01*
X51823904Y-63928285D01*
X51633428Y-63975904D01*
X51395333Y-63975904D01*
X51204857Y-63928285D01*
X51109619Y-63880666D01*
X51062000Y-63833047D01*
X51014380Y-63737809D01*
X51633428Y-62975904D02*
X51633428Y-62214000D01*
X52014380Y-61214000D02*
X52014380Y-61785428D01*
X52014380Y-61499714D02*
X51014380Y-61499714D01*
X51157238Y-61594952D01*
X51252476Y-61690190D01*
X51300095Y-61785428D01*
X51014380Y-60309238D02*
X51014380Y-60785428D01*
X51490571Y-60833047D01*
X51442952Y-60785428D01*
X51395333Y-60690190D01*
X51395333Y-60452095D01*
X51442952Y-60356857D01*
X51490571Y-60309238D01*
X51585809Y-60261619D01*
X51823904Y-60261619D01*
X51919142Y-60309238D01*
X51966761Y-60356857D01*
X52014380Y-60452095D01*
X52014380Y-60690190D01*
X51966761Y-60785428D01*
X51919142Y-60833047D01*
X52014380Y-59833047D02*
X51014380Y-59833047D01*
X51014380Y-59594952D01*
X51062000Y-59452095D01*
X51157238Y-59356857D01*
X51252476Y-59309238D01*
X51442952Y-59261619D01*
X51585809Y-59261619D01*
X51776285Y-59309238D01*
X51871523Y-59356857D01*
X51966761Y-59452095D01*
X52014380Y-59594952D01*
X52014380Y-59833047D01*
X52014380Y-58833047D02*
X51014380Y-58833047D01*
X52014380Y-58261619D02*
X51442952Y-58690190D01*
X51014380Y-58261619D02*
X51585809Y-58833047D01*
X52109619Y-58071142D02*
X52109619Y-57309238D01*
X51109619Y-57118761D02*
X51062000Y-57071142D01*
X51014380Y-56975904D01*
X51014380Y-56737809D01*
X51062000Y-56642571D01*
X51109619Y-56594952D01*
X51204857Y-56547333D01*
X51300095Y-56547333D01*
X51442952Y-56594952D01*
X52014380Y-57166380D01*
X52014380Y-56547333D01*
X51014380Y-56214000D02*
X51014380Y-55547333D01*
X52014380Y-55975904D01*
X51014380Y-55261619D02*
X51014380Y-54594952D01*
X52014380Y-55023523D01*
X133612095Y-48620880D02*
X134183523Y-48620880D01*
X133897809Y-49620880D02*
X133897809Y-48620880D01*
X134516857Y-49620880D02*
X134516857Y-48620880D01*
X134897809Y-48620880D01*
X134993047Y-48668500D01*
X135040666Y-48716119D01*
X135088285Y-48811357D01*
X135088285Y-48954214D01*
X135040666Y-49049452D01*
X134993047Y-49097071D01*
X134897809Y-49144690D01*
X134516857Y-49144690D01*
X135945428Y-48954214D02*
X135945428Y-49620880D01*
X135707333Y-48573261D02*
X135469238Y-49287547D01*
X136088285Y-49287547D01*
X142121095Y-50525880D02*
X142692523Y-50525880D01*
X142406809Y-51525880D02*
X142406809Y-50525880D01*
X143025857Y-51525880D02*
X143025857Y-50525880D01*
X143406809Y-50525880D01*
X143502047Y-50573500D01*
X143549666Y-50621119D01*
X143597285Y-50716357D01*
X143597285Y-50859214D01*
X143549666Y-50954452D01*
X143502047Y-51002071D01*
X143406809Y-51049690D01*
X143025857Y-51049690D01*
X143930619Y-50525880D02*
X144549666Y-50525880D01*
X144216333Y-50906833D01*
X144359190Y-50906833D01*
X144454428Y-50954452D01*
X144502047Y-51002071D01*
X144549666Y-51097309D01*
X144549666Y-51335404D01*
X144502047Y-51430642D01*
X144454428Y-51478261D01*
X144359190Y-51525880D01*
X144073476Y-51525880D01*
X143978238Y-51478261D01*
X143930619Y-51430642D01*
X108466095Y-60177880D02*
X109037523Y-60177880D01*
X108751809Y-61177880D02*
X108751809Y-60177880D01*
X109370857Y-61177880D02*
X109370857Y-60177880D01*
X109751809Y-60177880D01*
X109847047Y-60225500D01*
X109894666Y-60273119D01*
X109942285Y-60368357D01*
X109942285Y-60511214D01*
X109894666Y-60606452D01*
X109847047Y-60654071D01*
X109751809Y-60701690D01*
X109370857Y-60701690D01*
X110323238Y-60273119D02*
X110370857Y-60225500D01*
X110466095Y-60177880D01*
X110704190Y-60177880D01*
X110799428Y-60225500D01*
X110847047Y-60273119D01*
X110894666Y-60368357D01*
X110894666Y-60463595D01*
X110847047Y-60606452D01*
X110275619Y-61177880D01*
X110894666Y-61177880D01*
X69223095Y-19601380D02*
X69794523Y-19601380D01*
X69508809Y-20601380D02*
X69508809Y-19601380D01*
X70127857Y-20601380D02*
X70127857Y-19601380D01*
X70508809Y-19601380D01*
X70604047Y-19649000D01*
X70651666Y-19696619D01*
X70699285Y-19791857D01*
X70699285Y-19934714D01*
X70651666Y-20029952D01*
X70604047Y-20077571D01*
X70508809Y-20125190D01*
X70127857Y-20125190D01*
X71651666Y-20601380D02*
X71080238Y-20601380D01*
X71365952Y-20601380D02*
X71365952Y-19601380D01*
X71270714Y-19744238D01*
X71175476Y-19839476D01*
X71080238Y-19887095D01*
X68961095Y-81327761D02*
X69103952Y-81375380D01*
X69342047Y-81375380D01*
X69437285Y-81327761D01*
X69484904Y-81280142D01*
X69532523Y-81184904D01*
X69532523Y-81089666D01*
X69484904Y-80994428D01*
X69437285Y-80946809D01*
X69342047Y-80899190D01*
X69151571Y-80851571D01*
X69056333Y-80803952D01*
X69008714Y-80756333D01*
X68961095Y-80661095D01*
X68961095Y-80565857D01*
X69008714Y-80470619D01*
X69056333Y-80423000D01*
X69151571Y-80375380D01*
X69389666Y-80375380D01*
X69532523Y-80423000D01*
X70389666Y-80708714D02*
X70389666Y-81375380D01*
X70151571Y-80327761D02*
X69913476Y-81042047D01*
X70532523Y-81042047D01*
X69580238Y-32591142D02*
X69627857Y-32638761D01*
X69580238Y-32686380D01*
X69532619Y-32638761D01*
X69580238Y-32591142D01*
X69580238Y-32686380D01*
X69389761Y-31734000D02*
X69485000Y-31686380D01*
X69723095Y-31686380D01*
X69818333Y-31734000D01*
X69865952Y-31829238D01*
X69865952Y-31924476D01*
X69818333Y-32019714D01*
X69770714Y-32067333D01*
X69675476Y-32114952D01*
X69627857Y-32162571D01*
X69580238Y-32257809D01*
X69580238Y-32305428D01*
X70437380Y-32591142D02*
X70485000Y-32638761D01*
X70437380Y-32686380D01*
X70389761Y-32638761D01*
X70437380Y-32591142D01*
X70437380Y-32686380D01*
X70246904Y-31734000D02*
X70342142Y-31686380D01*
X70580238Y-31686380D01*
X70675476Y-31734000D01*
X70723095Y-31829238D01*
X70723095Y-31924476D01*
X70675476Y-32019714D01*
X70627857Y-32067333D01*
X70532619Y-32114952D01*
X70485000Y-32162571D01*
X70437380Y-32257809D01*
X70437380Y-32305428D01*
X71294523Y-32591142D02*
X71342142Y-32638761D01*
X71294523Y-32686380D01*
X71246904Y-32638761D01*
X71294523Y-32591142D01*
X71294523Y-32686380D01*
X71104047Y-31734000D02*
X71199285Y-31686380D01*
X71437380Y-31686380D01*
X71532619Y-31734000D01*
X71580238Y-31829238D01*
X71580238Y-31924476D01*
X71532619Y-32019714D01*
X71485000Y-32067333D01*
X71389761Y-32114952D01*
X71342142Y-32162571D01*
X71294523Y-32257809D01*
X71294523Y-32305428D01*
X75342952Y-94452880D02*
X75009619Y-93976690D01*
X74771523Y-94452880D02*
X74771523Y-93452880D01*
X75152476Y-93452880D01*
X75247714Y-93500500D01*
X75295333Y-93548119D01*
X75342952Y-93643357D01*
X75342952Y-93786214D01*
X75295333Y-93881452D01*
X75247714Y-93929071D01*
X75152476Y-93976690D01*
X74771523Y-93976690D01*
X75676285Y-93452880D02*
X76295333Y-93452880D01*
X75962000Y-93833833D01*
X76104857Y-93833833D01*
X76200095Y-93881452D01*
X76247714Y-93929071D01*
X76295333Y-94024309D01*
X76295333Y-94262404D01*
X76247714Y-94357642D01*
X76200095Y-94405261D01*
X76104857Y-94452880D01*
X75819142Y-94452880D01*
X75723904Y-94405261D01*
X75676285Y-94357642D01*
X76628666Y-93452880D02*
X77247714Y-93452880D01*
X76914380Y-93833833D01*
X77057238Y-93833833D01*
X77152476Y-93881452D01*
X77200095Y-93929071D01*
X77247714Y-94024309D01*
X77247714Y-94262404D01*
X77200095Y-94357642D01*
X77152476Y-94405261D01*
X77057238Y-94452880D01*
X76771523Y-94452880D01*
X76676285Y-94405261D01*
X76628666Y-94357642D01*
X78009619Y-93929071D02*
X78152476Y-93976690D01*
X78200095Y-94024309D01*
X78247714Y-94119547D01*
X78247714Y-94262404D01*
X78200095Y-94357642D01*
X78152476Y-94405261D01*
X78057238Y-94452880D01*
X77676285Y-94452880D01*
X77676285Y-93452880D01*
X78009619Y-93452880D01*
X78104857Y-93500500D01*
X78152476Y-93548119D01*
X78200095Y-93643357D01*
X78200095Y-93738595D01*
X78152476Y-93833833D01*
X78104857Y-93881452D01*
X78009619Y-93929071D01*
X77676285Y-93929071D01*
X79200095Y-94452880D02*
X78628666Y-94452880D01*
X78914380Y-94452880D02*
X78914380Y-93452880D01*
X78819142Y-93595738D01*
X78723904Y-93690976D01*
X78628666Y-93738595D01*
X85701380Y-94452880D02*
X85368047Y-93976690D01*
X85129952Y-94452880D02*
X85129952Y-93452880D01*
X85510904Y-93452880D01*
X85606142Y-93500500D01*
X85653761Y-93548119D01*
X85701380Y-93643357D01*
X85701380Y-93786214D01*
X85653761Y-93881452D01*
X85606142Y-93929071D01*
X85510904Y-93976690D01*
X85129952Y-93976690D01*
X86034714Y-93452880D02*
X86653761Y-93452880D01*
X86320428Y-93833833D01*
X86463285Y-93833833D01*
X86558523Y-93881452D01*
X86606142Y-93929071D01*
X86653761Y-94024309D01*
X86653761Y-94262404D01*
X86606142Y-94357642D01*
X86558523Y-94405261D01*
X86463285Y-94452880D01*
X86177571Y-94452880D01*
X86082333Y-94405261D01*
X86034714Y-94357642D01*
X86987095Y-93452880D02*
X87606142Y-93452880D01*
X87272809Y-93833833D01*
X87415666Y-93833833D01*
X87510904Y-93881452D01*
X87558523Y-93929071D01*
X87606142Y-94024309D01*
X87606142Y-94262404D01*
X87558523Y-94357642D01*
X87510904Y-94405261D01*
X87415666Y-94452880D01*
X87129952Y-94452880D01*
X87034714Y-94405261D01*
X86987095Y-94357642D01*
X87987095Y-94167166D02*
X88463285Y-94167166D01*
X87891857Y-94452880D02*
X88225190Y-93452880D01*
X88558523Y-94452880D01*
X89415666Y-94452880D02*
X88844238Y-94452880D01*
X89129952Y-94452880D02*
X89129952Y-93452880D01*
X89034714Y-93595738D01*
X88939476Y-93690976D01*
X88844238Y-93738595D01*
X75342952Y-83911880D02*
X75009619Y-83435690D01*
X74771523Y-83911880D02*
X74771523Y-82911880D01*
X75152476Y-82911880D01*
X75247714Y-82959500D01*
X75295333Y-83007119D01*
X75342952Y-83102357D01*
X75342952Y-83245214D01*
X75295333Y-83340452D01*
X75247714Y-83388071D01*
X75152476Y-83435690D01*
X74771523Y-83435690D01*
X75676285Y-82911880D02*
X76295333Y-82911880D01*
X75962000Y-83292833D01*
X76104857Y-83292833D01*
X76200095Y-83340452D01*
X76247714Y-83388071D01*
X76295333Y-83483309D01*
X76295333Y-83721404D01*
X76247714Y-83816642D01*
X76200095Y-83864261D01*
X76104857Y-83911880D01*
X75819142Y-83911880D01*
X75723904Y-83864261D01*
X75676285Y-83816642D01*
X77247714Y-83911880D02*
X76676285Y-83911880D01*
X76962000Y-83911880D02*
X76962000Y-82911880D01*
X76866761Y-83054738D01*
X76771523Y-83149976D01*
X76676285Y-83197595D01*
X78009619Y-83388071D02*
X78152476Y-83435690D01*
X78200095Y-83483309D01*
X78247714Y-83578547D01*
X78247714Y-83721404D01*
X78200095Y-83816642D01*
X78152476Y-83864261D01*
X78057238Y-83911880D01*
X77676285Y-83911880D01*
X77676285Y-82911880D01*
X78009619Y-82911880D01*
X78104857Y-82959500D01*
X78152476Y-83007119D01*
X78200095Y-83102357D01*
X78200095Y-83197595D01*
X78152476Y-83292833D01*
X78104857Y-83340452D01*
X78009619Y-83388071D01*
X77676285Y-83388071D01*
X79200095Y-83911880D02*
X78628666Y-83911880D01*
X78914380Y-83911880D02*
X78914380Y-82911880D01*
X78819142Y-83054738D01*
X78723904Y-83149976D01*
X78628666Y-83197595D01*
X85701380Y-83911880D02*
X85368047Y-83435690D01*
X85129952Y-83911880D02*
X85129952Y-82911880D01*
X85510904Y-82911880D01*
X85606142Y-82959500D01*
X85653761Y-83007119D01*
X85701380Y-83102357D01*
X85701380Y-83245214D01*
X85653761Y-83340452D01*
X85606142Y-83388071D01*
X85510904Y-83435690D01*
X85129952Y-83435690D01*
X86034714Y-82911880D02*
X86653761Y-82911880D01*
X86320428Y-83292833D01*
X86463285Y-83292833D01*
X86558523Y-83340452D01*
X86606142Y-83388071D01*
X86653761Y-83483309D01*
X86653761Y-83721404D01*
X86606142Y-83816642D01*
X86558523Y-83864261D01*
X86463285Y-83911880D01*
X86177571Y-83911880D01*
X86082333Y-83864261D01*
X86034714Y-83816642D01*
X87606142Y-83911880D02*
X87034714Y-83911880D01*
X87320428Y-83911880D02*
X87320428Y-82911880D01*
X87225190Y-83054738D01*
X87129952Y-83149976D01*
X87034714Y-83197595D01*
X87987095Y-83626166D02*
X88463285Y-83626166D01*
X87891857Y-83911880D02*
X88225190Y-82911880D01*
X88558523Y-83911880D01*
X89415666Y-83911880D02*
X88844238Y-83911880D01*
X89129952Y-83911880D02*
X89129952Y-82911880D01*
X89034714Y-83054738D01*
X88939476Y-83149976D01*
X88844238Y-83197595D01*
X86606142Y-89245880D02*
X86272809Y-88769690D01*
X86034714Y-89245880D02*
X86034714Y-88245880D01*
X86415666Y-88245880D01*
X86510904Y-88293500D01*
X86558523Y-88341119D01*
X86606142Y-88436357D01*
X86606142Y-88579214D01*
X86558523Y-88674452D01*
X86510904Y-88722071D01*
X86415666Y-88769690D01*
X86034714Y-88769690D01*
X86939476Y-88245880D02*
X87558523Y-88245880D01*
X87225190Y-88626833D01*
X87368047Y-88626833D01*
X87463285Y-88674452D01*
X87510904Y-88722071D01*
X87558523Y-88817309D01*
X87558523Y-89055404D01*
X87510904Y-89150642D01*
X87463285Y-89198261D01*
X87368047Y-89245880D01*
X87082333Y-89245880D01*
X86987095Y-89198261D01*
X86939476Y-89150642D01*
X87939476Y-88341119D02*
X87987095Y-88293500D01*
X88082333Y-88245880D01*
X88320428Y-88245880D01*
X88415666Y-88293500D01*
X88463285Y-88341119D01*
X88510904Y-88436357D01*
X88510904Y-88531595D01*
X88463285Y-88674452D01*
X87891857Y-89245880D01*
X88510904Y-89245880D01*
X109339142Y-86494880D02*
X109005809Y-86018690D01*
X108767714Y-86494880D02*
X108767714Y-85494880D01*
X109148666Y-85494880D01*
X109243904Y-85542500D01*
X109291523Y-85590119D01*
X109339142Y-85685357D01*
X109339142Y-85828214D01*
X109291523Y-85923452D01*
X109243904Y-85971071D01*
X109148666Y-86018690D01*
X108767714Y-86018690D01*
X109672476Y-85494880D02*
X110291523Y-85494880D01*
X109958190Y-85875833D01*
X110101047Y-85875833D01*
X110196285Y-85923452D01*
X110243904Y-85971071D01*
X110291523Y-86066309D01*
X110291523Y-86304404D01*
X110243904Y-86399642D01*
X110196285Y-86447261D01*
X110101047Y-86494880D01*
X109815333Y-86494880D01*
X109720095Y-86447261D01*
X109672476Y-86399642D01*
X110910571Y-85494880D02*
X111005809Y-85494880D01*
X111101047Y-85542500D01*
X111148666Y-85590119D01*
X111196285Y-85685357D01*
X111243904Y-85875833D01*
X111243904Y-86113928D01*
X111196285Y-86304404D01*
X111148666Y-86399642D01*
X111101047Y-86447261D01*
X111005809Y-86494880D01*
X110910571Y-86494880D01*
X110815333Y-86447261D01*
X110767714Y-86399642D01*
X110720095Y-86304404D01*
X110672476Y-86113928D01*
X110672476Y-85875833D01*
X110720095Y-85685357D01*
X110767714Y-85590119D01*
X110815333Y-85542500D01*
X110910571Y-85494880D01*
X109275642Y-91638380D02*
X108942309Y-91162190D01*
X108704214Y-91638380D02*
X108704214Y-90638380D01*
X109085166Y-90638380D01*
X109180404Y-90686000D01*
X109228023Y-90733619D01*
X109275642Y-90828857D01*
X109275642Y-90971714D01*
X109228023Y-91066952D01*
X109180404Y-91114571D01*
X109085166Y-91162190D01*
X108704214Y-91162190D01*
X109656595Y-90733619D02*
X109704214Y-90686000D01*
X109799452Y-90638380D01*
X110037547Y-90638380D01*
X110132785Y-90686000D01*
X110180404Y-90733619D01*
X110228023Y-90828857D01*
X110228023Y-90924095D01*
X110180404Y-91066952D01*
X109608976Y-91638380D01*
X110228023Y-91638380D01*
X110704214Y-91638380D02*
X110894690Y-91638380D01*
X110989928Y-91590761D01*
X111037547Y-91543142D01*
X111132785Y-91400285D01*
X111180404Y-91209809D01*
X111180404Y-90828857D01*
X111132785Y-90733619D01*
X111085166Y-90686000D01*
X110989928Y-90638380D01*
X110799452Y-90638380D01*
X110704214Y-90686000D01*
X110656595Y-90733619D01*
X110608976Y-90828857D01*
X110608976Y-91066952D01*
X110656595Y-91162190D01*
X110704214Y-91209809D01*
X110799452Y-91257428D01*
X110989928Y-91257428D01*
X111085166Y-91209809D01*
X111132785Y-91162190D01*
X111180404Y-91066952D01*
X118991142Y-83129380D02*
X118657809Y-82653190D01*
X118419714Y-83129380D02*
X118419714Y-82129380D01*
X118800666Y-82129380D01*
X118895904Y-82177000D01*
X118943523Y-82224619D01*
X118991142Y-82319857D01*
X118991142Y-82462714D01*
X118943523Y-82557952D01*
X118895904Y-82605571D01*
X118800666Y-82653190D01*
X118419714Y-82653190D01*
X119372095Y-82224619D02*
X119419714Y-82177000D01*
X119514952Y-82129380D01*
X119753047Y-82129380D01*
X119848285Y-82177000D01*
X119895904Y-82224619D01*
X119943523Y-82319857D01*
X119943523Y-82415095D01*
X119895904Y-82557952D01*
X119324476Y-83129380D01*
X119943523Y-83129380D01*
X120514952Y-82557952D02*
X120419714Y-82510333D01*
X120372095Y-82462714D01*
X120324476Y-82367476D01*
X120324476Y-82319857D01*
X120372095Y-82224619D01*
X120419714Y-82177000D01*
X120514952Y-82129380D01*
X120705428Y-82129380D01*
X120800666Y-82177000D01*
X120848285Y-82224619D01*
X120895904Y-82319857D01*
X120895904Y-82367476D01*
X120848285Y-82462714D01*
X120800666Y-82510333D01*
X120705428Y-82557952D01*
X120514952Y-82557952D01*
X120419714Y-82605571D01*
X120372095Y-82653190D01*
X120324476Y-82748428D01*
X120324476Y-82938904D01*
X120372095Y-83034142D01*
X120419714Y-83081761D01*
X120514952Y-83129380D01*
X120705428Y-83129380D01*
X120800666Y-83081761D01*
X120848285Y-83034142D01*
X120895904Y-82938904D01*
X120895904Y-82748428D01*
X120848285Y-82653190D01*
X120800666Y-82605571D01*
X120705428Y-82557952D01*
X141914642Y-92717880D02*
X141581309Y-92241690D01*
X141343214Y-92717880D02*
X141343214Y-91717880D01*
X141724166Y-91717880D01*
X141819404Y-91765500D01*
X141867023Y-91813119D01*
X141914642Y-91908357D01*
X141914642Y-92051214D01*
X141867023Y-92146452D01*
X141819404Y-92194071D01*
X141724166Y-92241690D01*
X141343214Y-92241690D01*
X142295595Y-91813119D02*
X142343214Y-91765500D01*
X142438452Y-91717880D01*
X142676547Y-91717880D01*
X142771785Y-91765500D01*
X142819404Y-91813119D01*
X142867023Y-91908357D01*
X142867023Y-92003595D01*
X142819404Y-92146452D01*
X142247976Y-92717880D01*
X142867023Y-92717880D01*
X143200357Y-91717880D02*
X143867023Y-91717880D01*
X143438452Y-92717880D01*
X157233880Y-81668857D02*
X156757690Y-82002190D01*
X157233880Y-82240285D02*
X156233880Y-82240285D01*
X156233880Y-81859333D01*
X156281500Y-81764095D01*
X156329119Y-81716476D01*
X156424357Y-81668857D01*
X156567214Y-81668857D01*
X156662452Y-81716476D01*
X156710071Y-81764095D01*
X156757690Y-81859333D01*
X156757690Y-82240285D01*
X156329119Y-81287904D02*
X156281500Y-81240285D01*
X156233880Y-81145047D01*
X156233880Y-80906952D01*
X156281500Y-80811714D01*
X156329119Y-80764095D01*
X156424357Y-80716476D01*
X156519595Y-80716476D01*
X156662452Y-80764095D01*
X157233880Y-81335523D01*
X157233880Y-80716476D01*
X156233880Y-79859333D02*
X156233880Y-80049809D01*
X156281500Y-80145047D01*
X156329119Y-80192666D01*
X156471976Y-80287904D01*
X156662452Y-80335523D01*
X157043404Y-80335523D01*
X157138642Y-80287904D01*
X157186261Y-80240285D01*
X157233880Y-80145047D01*
X157233880Y-79954571D01*
X157186261Y-79859333D01*
X157138642Y-79811714D01*
X157043404Y-79764095D01*
X156805309Y-79764095D01*
X156710071Y-79811714D01*
X156662452Y-79859333D01*
X156614833Y-79954571D01*
X156614833Y-80145047D01*
X156662452Y-80240285D01*
X156710071Y-80287904D01*
X156805309Y-80335523D01*
X141787642Y-76779380D02*
X141454309Y-76303190D01*
X141216214Y-76779380D02*
X141216214Y-75779380D01*
X141597166Y-75779380D01*
X141692404Y-75827000D01*
X141740023Y-75874619D01*
X141787642Y-75969857D01*
X141787642Y-76112714D01*
X141740023Y-76207952D01*
X141692404Y-76255571D01*
X141597166Y-76303190D01*
X141216214Y-76303190D01*
X142168595Y-75874619D02*
X142216214Y-75827000D01*
X142311452Y-75779380D01*
X142549547Y-75779380D01*
X142644785Y-75827000D01*
X142692404Y-75874619D01*
X142740023Y-75969857D01*
X142740023Y-76065095D01*
X142692404Y-76207952D01*
X142120976Y-76779380D01*
X142740023Y-76779380D01*
X143644785Y-75779380D02*
X143168595Y-75779380D01*
X143120976Y-76255571D01*
X143168595Y-76207952D01*
X143263833Y-76160333D01*
X143501928Y-76160333D01*
X143597166Y-76207952D01*
X143644785Y-76255571D01*
X143692404Y-76350809D01*
X143692404Y-76588904D01*
X143644785Y-76684142D01*
X143597166Y-76731761D01*
X143501928Y-76779380D01*
X143263833Y-76779380D01*
X143168595Y-76731761D01*
X143120976Y-76684142D01*
X152455642Y-88209380D02*
X152122309Y-87733190D01*
X151884214Y-88209380D02*
X151884214Y-87209380D01*
X152265166Y-87209380D01*
X152360404Y-87257000D01*
X152408023Y-87304619D01*
X152455642Y-87399857D01*
X152455642Y-87542714D01*
X152408023Y-87637952D01*
X152360404Y-87685571D01*
X152265166Y-87733190D01*
X151884214Y-87733190D01*
X152836595Y-87304619D02*
X152884214Y-87257000D01*
X152979452Y-87209380D01*
X153217547Y-87209380D01*
X153312785Y-87257000D01*
X153360404Y-87304619D01*
X153408023Y-87399857D01*
X153408023Y-87495095D01*
X153360404Y-87637952D01*
X152788976Y-88209380D01*
X153408023Y-88209380D01*
X154265166Y-87542714D02*
X154265166Y-88209380D01*
X154027071Y-87161761D02*
X153788976Y-87876047D01*
X154408023Y-87876047D01*
X149105880Y-55379857D02*
X148629690Y-55713190D01*
X149105880Y-55951285D02*
X148105880Y-55951285D01*
X148105880Y-55570333D01*
X148153500Y-55475095D01*
X148201119Y-55427476D01*
X148296357Y-55379857D01*
X148439214Y-55379857D01*
X148534452Y-55427476D01*
X148582071Y-55475095D01*
X148629690Y-55570333D01*
X148629690Y-55951285D01*
X148201119Y-54998904D02*
X148153500Y-54951285D01*
X148105880Y-54856047D01*
X148105880Y-54617952D01*
X148153500Y-54522714D01*
X148201119Y-54475095D01*
X148296357Y-54427476D01*
X148391595Y-54427476D01*
X148534452Y-54475095D01*
X149105880Y-55046523D01*
X149105880Y-54427476D01*
X148105880Y-54094142D02*
X148105880Y-53475095D01*
X148486833Y-53808428D01*
X148486833Y-53665571D01*
X148534452Y-53570333D01*
X148582071Y-53522714D01*
X148677309Y-53475095D01*
X148915404Y-53475095D01*
X149010642Y-53522714D01*
X149058261Y-53570333D01*
X149105880Y-53665571D01*
X149105880Y-53951285D01*
X149058261Y-54046523D01*
X149010642Y-54094142D01*
X149232880Y-39504857D02*
X148756690Y-39838190D01*
X149232880Y-40076285D02*
X148232880Y-40076285D01*
X148232880Y-39695333D01*
X148280500Y-39600095D01*
X148328119Y-39552476D01*
X148423357Y-39504857D01*
X148566214Y-39504857D01*
X148661452Y-39552476D01*
X148709071Y-39600095D01*
X148756690Y-39695333D01*
X148756690Y-40076285D01*
X148328119Y-39123904D02*
X148280500Y-39076285D01*
X148232880Y-38981047D01*
X148232880Y-38742952D01*
X148280500Y-38647714D01*
X148328119Y-38600095D01*
X148423357Y-38552476D01*
X148518595Y-38552476D01*
X148661452Y-38600095D01*
X149232880Y-39171523D01*
X149232880Y-38552476D01*
X148328119Y-38171523D02*
X148280500Y-38123904D01*
X148232880Y-38028666D01*
X148232880Y-37790571D01*
X148280500Y-37695333D01*
X148328119Y-37647714D01*
X148423357Y-37600095D01*
X148518595Y-37600095D01*
X148661452Y-37647714D01*
X149232880Y-38219142D01*
X149232880Y-37600095D01*
X139009380Y-50045857D02*
X138533190Y-50379190D01*
X139009380Y-50617285D02*
X138009380Y-50617285D01*
X138009380Y-50236333D01*
X138057000Y-50141095D01*
X138104619Y-50093476D01*
X138199857Y-50045857D01*
X138342714Y-50045857D01*
X138437952Y-50093476D01*
X138485571Y-50141095D01*
X138533190Y-50236333D01*
X138533190Y-50617285D01*
X138104619Y-49664904D02*
X138057000Y-49617285D01*
X138009380Y-49522047D01*
X138009380Y-49283952D01*
X138057000Y-49188714D01*
X138104619Y-49141095D01*
X138199857Y-49093476D01*
X138295095Y-49093476D01*
X138437952Y-49141095D01*
X139009380Y-49712523D01*
X139009380Y-49093476D01*
X139009380Y-48141095D02*
X139009380Y-48712523D01*
X139009380Y-48426809D02*
X138009380Y-48426809D01*
X138152238Y-48522047D01*
X138247476Y-48617285D01*
X138295095Y-48712523D01*
X118483142Y-24709380D02*
X118149809Y-24233190D01*
X117911714Y-24709380D02*
X117911714Y-23709380D01*
X118292666Y-23709380D01*
X118387904Y-23757000D01*
X118435523Y-23804619D01*
X118483142Y-23899857D01*
X118483142Y-24042714D01*
X118435523Y-24137952D01*
X118387904Y-24185571D01*
X118292666Y-24233190D01*
X117911714Y-24233190D01*
X118864095Y-23804619D02*
X118911714Y-23757000D01*
X119006952Y-23709380D01*
X119245047Y-23709380D01*
X119340285Y-23757000D01*
X119387904Y-23804619D01*
X119435523Y-23899857D01*
X119435523Y-23995095D01*
X119387904Y-24137952D01*
X118816476Y-24709380D01*
X119435523Y-24709380D01*
X120054571Y-23709380D02*
X120149809Y-23709380D01*
X120245047Y-23757000D01*
X120292666Y-23804619D01*
X120340285Y-23899857D01*
X120387904Y-24090333D01*
X120387904Y-24328428D01*
X120340285Y-24518904D01*
X120292666Y-24614142D01*
X120245047Y-24661761D01*
X120149809Y-24709380D01*
X120054571Y-24709380D01*
X119959333Y-24661761D01*
X119911714Y-24614142D01*
X119864095Y-24518904D01*
X119816476Y-24328428D01*
X119816476Y-24090333D01*
X119864095Y-23899857D01*
X119911714Y-23804619D01*
X119959333Y-23757000D01*
X120054571Y-23709380D01*
X141533642Y-19375380D02*
X141200309Y-18899190D01*
X140962214Y-19375380D02*
X140962214Y-18375380D01*
X141343166Y-18375380D01*
X141438404Y-18423000D01*
X141486023Y-18470619D01*
X141533642Y-18565857D01*
X141533642Y-18708714D01*
X141486023Y-18803952D01*
X141438404Y-18851571D01*
X141343166Y-18899190D01*
X140962214Y-18899190D01*
X142486023Y-19375380D02*
X141914595Y-19375380D01*
X142200309Y-19375380D02*
X142200309Y-18375380D01*
X142105071Y-18518238D01*
X142009833Y-18613476D01*
X141914595Y-18661095D01*
X142962214Y-19375380D02*
X143152690Y-19375380D01*
X143247928Y-19327761D01*
X143295547Y-19280142D01*
X143390785Y-19137285D01*
X143438404Y-18946809D01*
X143438404Y-18565857D01*
X143390785Y-18470619D01*
X143343166Y-18423000D01*
X143247928Y-18375380D01*
X143057452Y-18375380D01*
X142962214Y-18423000D01*
X142914595Y-18470619D01*
X142866976Y-18565857D01*
X142866976Y-18803952D01*
X142914595Y-18899190D01*
X142962214Y-18946809D01*
X143057452Y-18994428D01*
X143247928Y-18994428D01*
X143343166Y-18946809D01*
X143390785Y-18899190D01*
X143438404Y-18803952D01*
X136215380Y-26487357D02*
X135739190Y-26820690D01*
X136215380Y-27058785D02*
X135215380Y-27058785D01*
X135215380Y-26677833D01*
X135263000Y-26582595D01*
X135310619Y-26534976D01*
X135405857Y-26487357D01*
X135548714Y-26487357D01*
X135643952Y-26534976D01*
X135691571Y-26582595D01*
X135739190Y-26677833D01*
X135739190Y-27058785D01*
X136215380Y-25534976D02*
X136215380Y-26106404D01*
X136215380Y-25820690D02*
X135215380Y-25820690D01*
X135358238Y-25915928D01*
X135453476Y-26011166D01*
X135501095Y-26106404D01*
X135643952Y-24963547D02*
X135596333Y-25058785D01*
X135548714Y-25106404D01*
X135453476Y-25154023D01*
X135405857Y-25154023D01*
X135310619Y-25106404D01*
X135263000Y-25058785D01*
X135215380Y-24963547D01*
X135215380Y-24773071D01*
X135263000Y-24677833D01*
X135310619Y-24630214D01*
X135405857Y-24582595D01*
X135453476Y-24582595D01*
X135548714Y-24630214D01*
X135596333Y-24677833D01*
X135643952Y-24773071D01*
X135643952Y-24963547D01*
X135691571Y-25058785D01*
X135739190Y-25106404D01*
X135834428Y-25154023D01*
X136024904Y-25154023D01*
X136120142Y-25106404D01*
X136167761Y-25058785D01*
X136215380Y-24963547D01*
X136215380Y-24773071D01*
X136167761Y-24677833D01*
X136120142Y-24630214D01*
X136024904Y-24582595D01*
X135834428Y-24582595D01*
X135739190Y-24630214D01*
X135691571Y-24677833D01*
X135643952Y-24773071D01*
X139199880Y-29408357D02*
X138723690Y-29741690D01*
X139199880Y-29979785D02*
X138199880Y-29979785D01*
X138199880Y-29598833D01*
X138247500Y-29503595D01*
X138295119Y-29455976D01*
X138390357Y-29408357D01*
X138533214Y-29408357D01*
X138628452Y-29455976D01*
X138676071Y-29503595D01*
X138723690Y-29598833D01*
X138723690Y-29979785D01*
X139199880Y-28455976D02*
X139199880Y-29027404D01*
X139199880Y-28741690D02*
X138199880Y-28741690D01*
X138342738Y-28836928D01*
X138437976Y-28932166D01*
X138485595Y-29027404D01*
X138199880Y-28122642D02*
X138199880Y-27455976D01*
X139199880Y-27884547D01*
X149550380Y-26423857D02*
X149074190Y-26757190D01*
X149550380Y-26995285D02*
X148550380Y-26995285D01*
X148550380Y-26614333D01*
X148598000Y-26519095D01*
X148645619Y-26471476D01*
X148740857Y-26423857D01*
X148883714Y-26423857D01*
X148978952Y-26471476D01*
X149026571Y-26519095D01*
X149074190Y-26614333D01*
X149074190Y-26995285D01*
X149550380Y-25471476D02*
X149550380Y-26042904D01*
X149550380Y-25757190D02*
X148550380Y-25757190D01*
X148693238Y-25852428D01*
X148788476Y-25947666D01*
X148836095Y-26042904D01*
X148550380Y-24614333D02*
X148550380Y-24804809D01*
X148598000Y-24900047D01*
X148645619Y-24947666D01*
X148788476Y-25042904D01*
X148978952Y-25090523D01*
X149359904Y-25090523D01*
X149455142Y-25042904D01*
X149502761Y-24995285D01*
X149550380Y-24900047D01*
X149550380Y-24709571D01*
X149502761Y-24614333D01*
X149455142Y-24566714D01*
X149359904Y-24519095D01*
X149121809Y-24519095D01*
X149026571Y-24566714D01*
X148978952Y-24614333D01*
X148931333Y-24709571D01*
X148931333Y-24900047D01*
X148978952Y-24995285D01*
X149026571Y-25042904D01*
X149121809Y-25090523D01*
X105148142Y-52141380D02*
X104814809Y-51665190D01*
X104576714Y-52141380D02*
X104576714Y-51141380D01*
X104957666Y-51141380D01*
X105052904Y-51189000D01*
X105100523Y-51236619D01*
X105148142Y-51331857D01*
X105148142Y-51474714D01*
X105100523Y-51569952D01*
X105052904Y-51617571D01*
X104957666Y-51665190D01*
X104576714Y-51665190D01*
X106100523Y-52141380D02*
X105529095Y-52141380D01*
X105814809Y-52141380D02*
X105814809Y-51141380D01*
X105719571Y-51284238D01*
X105624333Y-51379476D01*
X105529095Y-51427095D01*
X107005285Y-51141380D02*
X106529095Y-51141380D01*
X106481476Y-51617571D01*
X106529095Y-51569952D01*
X106624333Y-51522333D01*
X106862428Y-51522333D01*
X106957666Y-51569952D01*
X107005285Y-51617571D01*
X107052904Y-51712809D01*
X107052904Y-51950904D01*
X107005285Y-52046142D01*
X106957666Y-52093761D01*
X106862428Y-52141380D01*
X106624333Y-52141380D01*
X106529095Y-52093761D01*
X106481476Y-52046142D01*
X105148142Y-55506880D02*
X104814809Y-55030690D01*
X104576714Y-55506880D02*
X104576714Y-54506880D01*
X104957666Y-54506880D01*
X105052904Y-54554500D01*
X105100523Y-54602119D01*
X105148142Y-54697357D01*
X105148142Y-54840214D01*
X105100523Y-54935452D01*
X105052904Y-54983071D01*
X104957666Y-55030690D01*
X104576714Y-55030690D01*
X106100523Y-55506880D02*
X105529095Y-55506880D01*
X105814809Y-55506880D02*
X105814809Y-54506880D01*
X105719571Y-54649738D01*
X105624333Y-54744976D01*
X105529095Y-54792595D01*
X106957666Y-54840214D02*
X106957666Y-55506880D01*
X106719571Y-54459261D02*
X106481476Y-55173547D01*
X107100523Y-55173547D01*
X102671642Y-70365880D02*
X102338309Y-69889690D01*
X102100214Y-70365880D02*
X102100214Y-69365880D01*
X102481166Y-69365880D01*
X102576404Y-69413500D01*
X102624023Y-69461119D01*
X102671642Y-69556357D01*
X102671642Y-69699214D01*
X102624023Y-69794452D01*
X102576404Y-69842071D01*
X102481166Y-69889690D01*
X102100214Y-69889690D01*
X103624023Y-70365880D02*
X103052595Y-70365880D01*
X103338309Y-70365880D02*
X103338309Y-69365880D01*
X103243071Y-69508738D01*
X103147833Y-69603976D01*
X103052595Y-69651595D01*
X103957357Y-69365880D02*
X104576404Y-69365880D01*
X104243071Y-69746833D01*
X104385928Y-69746833D01*
X104481166Y-69794452D01*
X104528785Y-69842071D01*
X104576404Y-69937309D01*
X104576404Y-70175404D01*
X104528785Y-70270642D01*
X104481166Y-70318261D01*
X104385928Y-70365880D01*
X104100214Y-70365880D01*
X104004976Y-70318261D01*
X103957357Y-70270642D01*
X84018380Y-61602857D02*
X83542190Y-61936190D01*
X84018380Y-62174285D02*
X83018380Y-62174285D01*
X83018380Y-61793333D01*
X83066000Y-61698095D01*
X83113619Y-61650476D01*
X83208857Y-61602857D01*
X83351714Y-61602857D01*
X83446952Y-61650476D01*
X83494571Y-61698095D01*
X83542190Y-61793333D01*
X83542190Y-62174285D01*
X84018380Y-60650476D02*
X84018380Y-61221904D01*
X84018380Y-60936190D02*
X83018380Y-60936190D01*
X83161238Y-61031428D01*
X83256476Y-61126666D01*
X83304095Y-61221904D01*
X83113619Y-60269523D02*
X83066000Y-60221904D01*
X83018380Y-60126666D01*
X83018380Y-59888571D01*
X83066000Y-59793333D01*
X83113619Y-59745714D01*
X83208857Y-59698095D01*
X83304095Y-59698095D01*
X83446952Y-59745714D01*
X84018380Y-60317142D01*
X84018380Y-59698095D01*
X94988142Y-50109380D02*
X94654809Y-49633190D01*
X94416714Y-50109380D02*
X94416714Y-49109380D01*
X94797666Y-49109380D01*
X94892904Y-49157000D01*
X94940523Y-49204619D01*
X94988142Y-49299857D01*
X94988142Y-49442714D01*
X94940523Y-49537952D01*
X94892904Y-49585571D01*
X94797666Y-49633190D01*
X94416714Y-49633190D01*
X95940523Y-50109380D02*
X95369095Y-50109380D01*
X95654809Y-50109380D02*
X95654809Y-49109380D01*
X95559571Y-49252238D01*
X95464333Y-49347476D01*
X95369095Y-49395095D01*
X96892904Y-50109380D02*
X96321476Y-50109380D01*
X96607190Y-50109380D02*
X96607190Y-49109380D01*
X96511952Y-49252238D01*
X96416714Y-49347476D01*
X96321476Y-49395095D01*
X124848880Y-39631857D02*
X124372690Y-39965190D01*
X124848880Y-40203285D02*
X123848880Y-40203285D01*
X123848880Y-39822333D01*
X123896500Y-39727095D01*
X123944119Y-39679476D01*
X124039357Y-39631857D01*
X124182214Y-39631857D01*
X124277452Y-39679476D01*
X124325071Y-39727095D01*
X124372690Y-39822333D01*
X124372690Y-40203285D01*
X124848880Y-38679476D02*
X124848880Y-39250904D01*
X124848880Y-38965190D02*
X123848880Y-38965190D01*
X123991738Y-39060428D01*
X124086976Y-39155666D01*
X124134595Y-39250904D01*
X123848880Y-38060428D02*
X123848880Y-37965190D01*
X123896500Y-37869952D01*
X123944119Y-37822333D01*
X124039357Y-37774714D01*
X124229833Y-37727095D01*
X124467928Y-37727095D01*
X124658404Y-37774714D01*
X124753642Y-37822333D01*
X124801261Y-37869952D01*
X124848880Y-37965190D01*
X124848880Y-38060428D01*
X124801261Y-38155666D01*
X124753642Y-38203285D01*
X124658404Y-38250904D01*
X124467928Y-38298523D01*
X124229833Y-38298523D01*
X124039357Y-38250904D01*
X123944119Y-38203285D01*
X123896500Y-38155666D01*
X123848880Y-38060428D01*
X107846833Y-17724380D02*
X107513500Y-17248190D01*
X107275404Y-17724380D02*
X107275404Y-16724380D01*
X107656357Y-16724380D01*
X107751595Y-16772000D01*
X107799214Y-16819619D01*
X107846833Y-16914857D01*
X107846833Y-17057714D01*
X107799214Y-17152952D01*
X107751595Y-17200571D01*
X107656357Y-17248190D01*
X107275404Y-17248190D01*
X108323023Y-17724380D02*
X108513500Y-17724380D01*
X108608738Y-17676761D01*
X108656357Y-17629142D01*
X108751595Y-17486285D01*
X108799214Y-17295809D01*
X108799214Y-16914857D01*
X108751595Y-16819619D01*
X108703976Y-16772000D01*
X108608738Y-16724380D01*
X108418261Y-16724380D01*
X108323023Y-16772000D01*
X108275404Y-16819619D01*
X108227785Y-16914857D01*
X108227785Y-17152952D01*
X108275404Y-17248190D01*
X108323023Y-17295809D01*
X108418261Y-17343428D01*
X108608738Y-17343428D01*
X108703976Y-17295809D01*
X108751595Y-17248190D01*
X108799214Y-17152952D01*
X121308833Y-21216880D02*
X120975500Y-20740690D01*
X120737404Y-21216880D02*
X120737404Y-20216880D01*
X121118357Y-20216880D01*
X121213595Y-20264500D01*
X121261214Y-20312119D01*
X121308833Y-20407357D01*
X121308833Y-20550214D01*
X121261214Y-20645452D01*
X121213595Y-20693071D01*
X121118357Y-20740690D01*
X120737404Y-20740690D01*
X121880261Y-20645452D02*
X121785023Y-20597833D01*
X121737404Y-20550214D01*
X121689785Y-20454976D01*
X121689785Y-20407357D01*
X121737404Y-20312119D01*
X121785023Y-20264500D01*
X121880261Y-20216880D01*
X122070738Y-20216880D01*
X122165976Y-20264500D01*
X122213595Y-20312119D01*
X122261214Y-20407357D01*
X122261214Y-20454976D01*
X122213595Y-20550214D01*
X122165976Y-20597833D01*
X122070738Y-20645452D01*
X121880261Y-20645452D01*
X121785023Y-20693071D01*
X121737404Y-20740690D01*
X121689785Y-20835928D01*
X121689785Y-21026404D01*
X121737404Y-21121642D01*
X121785023Y-21169261D01*
X121880261Y-21216880D01*
X122070738Y-21216880D01*
X122165976Y-21169261D01*
X122213595Y-21121642D01*
X122261214Y-21026404D01*
X122261214Y-20835928D01*
X122213595Y-20740690D01*
X122165976Y-20693071D01*
X122070738Y-20645452D01*
X112656880Y-25947666D02*
X112180690Y-26281000D01*
X112656880Y-26519095D02*
X111656880Y-26519095D01*
X111656880Y-26138142D01*
X111704500Y-26042904D01*
X111752119Y-25995285D01*
X111847357Y-25947666D01*
X111990214Y-25947666D01*
X112085452Y-25995285D01*
X112133071Y-26042904D01*
X112180690Y-26138142D01*
X112180690Y-26519095D01*
X111656880Y-25614333D02*
X111656880Y-24947666D01*
X112656880Y-25376238D01*
X132532380Y-25757166D02*
X132056190Y-26090500D01*
X132532380Y-26328595D02*
X131532380Y-26328595D01*
X131532380Y-25947642D01*
X131580000Y-25852404D01*
X131627619Y-25804785D01*
X131722857Y-25757166D01*
X131865714Y-25757166D01*
X131960952Y-25804785D01*
X132008571Y-25852404D01*
X132056190Y-25947642D01*
X132056190Y-26328595D01*
X131532380Y-24900023D02*
X131532380Y-25090500D01*
X131580000Y-25185738D01*
X131627619Y-25233357D01*
X131770476Y-25328595D01*
X131960952Y-25376214D01*
X132341904Y-25376214D01*
X132437142Y-25328595D01*
X132484761Y-25280976D01*
X132532380Y-25185738D01*
X132532380Y-24995261D01*
X132484761Y-24900023D01*
X132437142Y-24852404D01*
X132341904Y-24804785D01*
X132103809Y-24804785D01*
X132008571Y-24852404D01*
X131960952Y-24900023D01*
X131913333Y-24995261D01*
X131913333Y-25185738D01*
X131960952Y-25280976D01*
X132008571Y-25328595D01*
X132103809Y-25376214D01*
X132167333Y-18105380D02*
X131834000Y-17629190D01*
X131595904Y-18105380D02*
X131595904Y-17105380D01*
X131976857Y-17105380D01*
X132072095Y-17153000D01*
X132119714Y-17200619D01*
X132167333Y-17295857D01*
X132167333Y-17438714D01*
X132119714Y-17533952D01*
X132072095Y-17581571D01*
X131976857Y-17629190D01*
X131595904Y-17629190D01*
X133072095Y-17105380D02*
X132595904Y-17105380D01*
X132548285Y-17581571D01*
X132595904Y-17533952D01*
X132691142Y-17486333D01*
X132929238Y-17486333D01*
X133024476Y-17533952D01*
X133072095Y-17581571D01*
X133119714Y-17676809D01*
X133119714Y-17914904D01*
X133072095Y-18010142D01*
X133024476Y-18057761D01*
X132929238Y-18105380D01*
X132691142Y-18105380D01*
X132595904Y-18057761D01*
X132548285Y-18010142D01*
X90955833Y-38933380D02*
X90622500Y-38457190D01*
X90384404Y-38933380D02*
X90384404Y-37933380D01*
X90765357Y-37933380D01*
X90860595Y-37981000D01*
X90908214Y-38028619D01*
X90955833Y-38123857D01*
X90955833Y-38266714D01*
X90908214Y-38361952D01*
X90860595Y-38409571D01*
X90765357Y-38457190D01*
X90384404Y-38457190D01*
X91812976Y-38266714D02*
X91812976Y-38933380D01*
X91574880Y-37885761D02*
X91336785Y-38600047D01*
X91955833Y-38600047D01*
X85034380Y-22264666D02*
X84558190Y-22598000D01*
X85034380Y-22836095D02*
X84034380Y-22836095D01*
X84034380Y-22455142D01*
X84082000Y-22359904D01*
X84129619Y-22312285D01*
X84224857Y-22264666D01*
X84367714Y-22264666D01*
X84462952Y-22312285D01*
X84510571Y-22359904D01*
X84558190Y-22455142D01*
X84558190Y-22836095D01*
X84034380Y-21931333D02*
X84034380Y-21312285D01*
X84415333Y-21645619D01*
X84415333Y-21502761D01*
X84462952Y-21407523D01*
X84510571Y-21359904D01*
X84605809Y-21312285D01*
X84843904Y-21312285D01*
X84939142Y-21359904D01*
X84986761Y-21407523D01*
X85034380Y-21502761D01*
X85034380Y-21788476D01*
X84986761Y-21883714D01*
X84939142Y-21931333D01*
X64503380Y-24677666D02*
X64027190Y-25011000D01*
X64503380Y-25249095D02*
X63503380Y-25249095D01*
X63503380Y-24868142D01*
X63551000Y-24772904D01*
X63598619Y-24725285D01*
X63693857Y-24677666D01*
X63836714Y-24677666D01*
X63931952Y-24725285D01*
X63979571Y-24772904D01*
X64027190Y-24868142D01*
X64027190Y-25249095D01*
X63598619Y-24296714D02*
X63551000Y-24249095D01*
X63503380Y-24153857D01*
X63503380Y-23915761D01*
X63551000Y-23820523D01*
X63598619Y-23772904D01*
X63693857Y-23725285D01*
X63789095Y-23725285D01*
X63931952Y-23772904D01*
X64503380Y-24344333D01*
X64503380Y-23725285D01*
X66333714Y-25312571D02*
X67000380Y-25312571D01*
X65952761Y-25550666D02*
X66667047Y-25788761D01*
X66667047Y-25169714D01*
X66905142Y-24788761D02*
X66952761Y-24741142D01*
X67000380Y-24788761D01*
X66952761Y-24836380D01*
X66905142Y-24788761D01*
X67000380Y-24788761D01*
X66000380Y-24407809D02*
X66000380Y-23741142D01*
X67000380Y-24169714D01*
X67000380Y-23360190D02*
X66000380Y-23360190D01*
X66619428Y-23264952D02*
X67000380Y-22979238D01*
X66333714Y-22979238D02*
X66714666Y-23360190D01*
X77244380Y-24677666D02*
X76768190Y-25011000D01*
X77244380Y-25249095D02*
X76244380Y-25249095D01*
X76244380Y-24868142D01*
X76292000Y-24772904D01*
X76339619Y-24725285D01*
X76434857Y-24677666D01*
X76577714Y-24677666D01*
X76672952Y-24725285D01*
X76720571Y-24772904D01*
X76768190Y-24868142D01*
X76768190Y-25249095D01*
X77244380Y-23725285D02*
X77244380Y-24296714D01*
X77244380Y-24011000D02*
X76244380Y-24011000D01*
X76387238Y-24106238D01*
X76482476Y-24201476D01*
X76530095Y-24296714D01*
X74874380Y-25455428D02*
X74874380Y-26026857D01*
X74874380Y-25741142D02*
X73874380Y-25741142D01*
X74017238Y-25836380D01*
X74112476Y-25931619D01*
X74160095Y-26026857D01*
X73874380Y-24836380D02*
X73874380Y-24741142D01*
X73922000Y-24645904D01*
X73969619Y-24598285D01*
X74064857Y-24550666D01*
X74255333Y-24503047D01*
X74493428Y-24503047D01*
X74683904Y-24550666D01*
X74779142Y-24598285D01*
X74826761Y-24645904D01*
X74874380Y-24741142D01*
X74874380Y-24836380D01*
X74826761Y-24931619D01*
X74779142Y-24979238D01*
X74683904Y-25026857D01*
X74493428Y-25074476D01*
X74255333Y-25074476D01*
X74064857Y-25026857D01*
X73969619Y-24979238D01*
X73922000Y-24931619D01*
X73874380Y-24836380D01*
X73874380Y-23884000D02*
X73874380Y-23788761D01*
X73922000Y-23693523D01*
X73969619Y-23645904D01*
X74064857Y-23598285D01*
X74255333Y-23550666D01*
X74493428Y-23550666D01*
X74683904Y-23598285D01*
X74779142Y-23645904D01*
X74826761Y-23693523D01*
X74874380Y-23788761D01*
X74874380Y-23884000D01*
X74826761Y-23979238D01*
X74779142Y-24026857D01*
X74683904Y-24074476D01*
X74493428Y-24122095D01*
X74255333Y-24122095D01*
X74064857Y-24074476D01*
X73969619Y-24026857D01*
X73922000Y-23979238D01*
X73874380Y-23884000D01*
X74874380Y-23122095D02*
X73874380Y-23122095D01*
X74493428Y-23026857D02*
X74874380Y-22741142D01*
X74207714Y-22741142D02*
X74588666Y-23122095D01*
X61102976Y-81478380D02*
X61102976Y-80478380D01*
X61436309Y-81192666D01*
X61769642Y-80478380D01*
X61769642Y-81478380D01*
X62198214Y-80573619D02*
X62245833Y-80526000D01*
X62341071Y-80478380D01*
X62579166Y-80478380D01*
X62674404Y-80526000D01*
X62722023Y-80573619D01*
X62769642Y-80668857D01*
X62769642Y-80764095D01*
X62722023Y-80906952D01*
X62150595Y-81478380D01*
X62769642Y-81478380D01*
X144160976Y-57792880D02*
X144160976Y-56792880D01*
X144494309Y-57507166D01*
X144827642Y-56792880D01*
X144827642Y-57792880D01*
X145827642Y-57792880D02*
X145256214Y-57792880D01*
X145541928Y-57792880D02*
X145541928Y-56792880D01*
X145446690Y-56935738D01*
X145351452Y-57030976D01*
X145256214Y-57078595D01*
X43648547Y-32551666D02*
X44124738Y-32551666D01*
X43553309Y-32837380D02*
X43886642Y-31837380D01*
X44219976Y-32837380D01*
X45124738Y-32742142D02*
X45077119Y-32789761D01*
X44934261Y-32837380D01*
X44839023Y-32837380D01*
X44696166Y-32789761D01*
X44600928Y-32694523D01*
X44553309Y-32599285D01*
X44505690Y-32408809D01*
X44505690Y-32265952D01*
X44553309Y-32075476D01*
X44600928Y-31980238D01*
X44696166Y-31885000D01*
X44839023Y-31837380D01*
X44934261Y-31837380D01*
X45077119Y-31885000D01*
X45124738Y-31932619D01*
X46315214Y-32837380D02*
X46315214Y-31837380D01*
X46791404Y-32837380D02*
X46791404Y-31837380D01*
X47362833Y-32837380D01*
X47362833Y-31837380D01*
X74366809Y-17692666D02*
X74843000Y-17692666D01*
X74271571Y-17978380D02*
X74604904Y-16978380D01*
X74938238Y-17978380D01*
X75700142Y-17311714D02*
X75700142Y-17978380D01*
X75271571Y-17311714D02*
X75271571Y-17835523D01*
X75319190Y-17930761D01*
X75414428Y-17978380D01*
X75557285Y-17978380D01*
X75652523Y-17930761D01*
X75700142Y-17883142D01*
X76604904Y-17978380D02*
X76604904Y-16978380D01*
X76604904Y-17930761D02*
X76509666Y-17978380D01*
X76319190Y-17978380D01*
X76223952Y-17930761D01*
X76176333Y-17883142D01*
X76128714Y-17787904D01*
X76128714Y-17502190D01*
X76176333Y-17406952D01*
X76223952Y-17359333D01*
X76319190Y-17311714D01*
X76509666Y-17311714D01*
X76604904Y-17359333D01*
X77081095Y-17978380D02*
X77081095Y-17311714D01*
X77081095Y-16978380D02*
X77033476Y-17026000D01*
X77081095Y-17073619D01*
X77128714Y-17026000D01*
X77081095Y-16978380D01*
X77081095Y-17073619D01*
X77700142Y-17978380D02*
X77604904Y-17930761D01*
X77557285Y-17883142D01*
X77509666Y-17787904D01*
X77509666Y-17502190D01*
X77557285Y-17406952D01*
X77604904Y-17359333D01*
X77700142Y-17311714D01*
X77843000Y-17311714D01*
X77938238Y-17359333D01*
X77985857Y-17406952D01*
X78033476Y-17502190D01*
X78033476Y-17787904D01*
X77985857Y-17883142D01*
X77938238Y-17930761D01*
X77843000Y-17978380D01*
X77700142Y-17978380D01*
X79223952Y-17978380D02*
X79223952Y-16978380D01*
X79700142Y-17978380D02*
X79700142Y-16978380D01*
X80271571Y-17978380D01*
X80271571Y-16978380D01*
X114752380Y-95083190D02*
X113752380Y-95083190D01*
X114657142Y-94035571D02*
X114704761Y-94083190D01*
X114752380Y-94226047D01*
X114752380Y-94321285D01*
X114704761Y-94464142D01*
X114609523Y-94559380D01*
X114514285Y-94607000D01*
X114323809Y-94654619D01*
X114180952Y-94654619D01*
X113990476Y-94607000D01*
X113895238Y-94559380D01*
X113800000Y-94464142D01*
X113752380Y-94321285D01*
X113752380Y-94226047D01*
X113800000Y-94083190D01*
X113847619Y-94035571D01*
X114752380Y-93559380D02*
X114752380Y-93368904D01*
X114704761Y-93273666D01*
X114657142Y-93226047D01*
X114514285Y-93130809D01*
X114323809Y-93083190D01*
X113942857Y-93083190D01*
X113847619Y-93130809D01*
X113800000Y-93178428D01*
X113752380Y-93273666D01*
X113752380Y-93464142D01*
X113800000Y-93559380D01*
X113847619Y-93607000D01*
X113942857Y-93654619D01*
X114180952Y-93654619D01*
X114276190Y-93607000D01*
X114323809Y-93559380D01*
X114371428Y-93464142D01*
X114371428Y-93273666D01*
X114323809Y-93178428D01*
X114276190Y-93130809D01*
X114180952Y-93083190D01*
X120340380Y-91082619D02*
X120340380Y-91558809D01*
X119340380Y-91558809D01*
X119816571Y-90415952D02*
X119816571Y-90749285D01*
X120340380Y-90749285D02*
X119340380Y-90749285D01*
X119340380Y-90273095D01*
X119340380Y-89987380D02*
X119340380Y-89368333D01*
X119721333Y-89701666D01*
X119721333Y-89558809D01*
X119768952Y-89463571D01*
X119816571Y-89415952D01*
X119911809Y-89368333D01*
X120149904Y-89368333D01*
X120245142Y-89415952D01*
X120292761Y-89463571D01*
X120340380Y-89558809D01*
X120340380Y-89844523D01*
X120292761Y-89939761D01*
X120245142Y-89987380D01*
X119340380Y-88463571D02*
X119340380Y-88939761D01*
X119816571Y-88987380D01*
X119768952Y-88939761D01*
X119721333Y-88844523D01*
X119721333Y-88606428D01*
X119768952Y-88511190D01*
X119816571Y-88463571D01*
X119911809Y-88415952D01*
X120149904Y-88415952D01*
X120245142Y-88463571D01*
X120292761Y-88511190D01*
X120340380Y-88606428D01*
X120340380Y-88844523D01*
X120292761Y-88939761D01*
X120245142Y-88987380D01*
X119340380Y-88082619D02*
X119340380Y-87463571D01*
X119721333Y-87796904D01*
X119721333Y-87654047D01*
X119768952Y-87558809D01*
X119816571Y-87511190D01*
X119911809Y-87463571D01*
X120149904Y-87463571D01*
X120245142Y-87511190D01*
X120292761Y-87558809D01*
X120340380Y-87654047D01*
X120340380Y-87939761D01*
X120292761Y-88035000D01*
X120245142Y-88082619D01*
X136977380Y-81367190D02*
X135977380Y-81367190D01*
X136882142Y-80319571D02*
X136929761Y-80367190D01*
X136977380Y-80510047D01*
X136977380Y-80605285D01*
X136929761Y-80748142D01*
X136834523Y-80843380D01*
X136739285Y-80891000D01*
X136548809Y-80938619D01*
X136405952Y-80938619D01*
X136215476Y-80891000D01*
X136120238Y-80843380D01*
X136025000Y-80748142D01*
X135977380Y-80605285D01*
X135977380Y-80510047D01*
X136025000Y-80367190D01*
X136072619Y-80319571D01*
X136405952Y-79748142D02*
X136358333Y-79843380D01*
X136310714Y-79891000D01*
X136215476Y-79938619D01*
X136167857Y-79938619D01*
X136072619Y-79891000D01*
X136025000Y-79843380D01*
X135977380Y-79748142D01*
X135977380Y-79557666D01*
X136025000Y-79462428D01*
X136072619Y-79414809D01*
X136167857Y-79367190D01*
X136215476Y-79367190D01*
X136310714Y-79414809D01*
X136358333Y-79462428D01*
X136405952Y-79557666D01*
X136405952Y-79748142D01*
X136453571Y-79843380D01*
X136501190Y-79891000D01*
X136596428Y-79938619D01*
X136786904Y-79938619D01*
X136882142Y-79891000D01*
X136929761Y-79843380D01*
X136977380Y-79748142D01*
X136977380Y-79557666D01*
X136929761Y-79462428D01*
X136882142Y-79414809D01*
X136786904Y-79367190D01*
X136596428Y-79367190D01*
X136501190Y-79414809D01*
X136453571Y-79462428D01*
X136405952Y-79557666D01*
X142755880Y-86002619D02*
X142755880Y-86478809D01*
X141755880Y-86478809D01*
X142232071Y-85335952D02*
X142232071Y-85669285D01*
X142755880Y-85669285D02*
X141755880Y-85669285D01*
X141755880Y-85193095D01*
X141755880Y-84907380D02*
X141755880Y-84288333D01*
X142136833Y-84621666D01*
X142136833Y-84478809D01*
X142184452Y-84383571D01*
X142232071Y-84335952D01*
X142327309Y-84288333D01*
X142565404Y-84288333D01*
X142660642Y-84335952D01*
X142708261Y-84383571D01*
X142755880Y-84478809D01*
X142755880Y-84764523D01*
X142708261Y-84859761D01*
X142660642Y-84907380D01*
X141755880Y-83383571D02*
X141755880Y-83859761D01*
X142232071Y-83907380D01*
X142184452Y-83859761D01*
X142136833Y-83764523D01*
X142136833Y-83526428D01*
X142184452Y-83431190D01*
X142232071Y-83383571D01*
X142327309Y-83335952D01*
X142565404Y-83335952D01*
X142660642Y-83383571D01*
X142708261Y-83431190D01*
X142755880Y-83526428D01*
X142755880Y-83764523D01*
X142708261Y-83859761D01*
X142660642Y-83907380D01*
X142755880Y-82383571D02*
X142755880Y-82955000D01*
X142755880Y-82669285D02*
X141755880Y-82669285D01*
X141898738Y-82764523D01*
X141993976Y-82859761D01*
X142041595Y-82955000D01*
X141466380Y-61364690D02*
X140466380Y-61364690D01*
X141371142Y-60317071D02*
X141418761Y-60364690D01*
X141466380Y-60507547D01*
X141466380Y-60602785D01*
X141418761Y-60745642D01*
X141323523Y-60840880D01*
X141228285Y-60888500D01*
X141037809Y-60936119D01*
X140894952Y-60936119D01*
X140704476Y-60888500D01*
X140609238Y-60840880D01*
X140514000Y-60745642D01*
X140466380Y-60602785D01*
X140466380Y-60507547D01*
X140514000Y-60364690D01*
X140561619Y-60317071D01*
X140466380Y-59412309D02*
X140466380Y-59888500D01*
X140942571Y-59936119D01*
X140894952Y-59888500D01*
X140847333Y-59793261D01*
X140847333Y-59555166D01*
X140894952Y-59459928D01*
X140942571Y-59412309D01*
X141037809Y-59364690D01*
X141275904Y-59364690D01*
X141371142Y-59412309D01*
X141418761Y-59459928D01*
X141466380Y-59555166D01*
X141466380Y-59793261D01*
X141418761Y-59888500D01*
X141371142Y-59936119D01*
X132945380Y-60840880D02*
X132469190Y-60840880D01*
X132469190Y-59840880D01*
X133612047Y-60317071D02*
X133278714Y-60317071D01*
X133278714Y-60840880D02*
X133278714Y-59840880D01*
X133754904Y-59840880D01*
X134040619Y-59840880D02*
X134659666Y-59840880D01*
X134326333Y-60221833D01*
X134469190Y-60221833D01*
X134564428Y-60269452D01*
X134612047Y-60317071D01*
X134659666Y-60412309D01*
X134659666Y-60650404D01*
X134612047Y-60745642D01*
X134564428Y-60793261D01*
X134469190Y-60840880D01*
X134183476Y-60840880D01*
X134088238Y-60793261D01*
X134040619Y-60745642D01*
X135564428Y-59840880D02*
X135088238Y-59840880D01*
X135040619Y-60317071D01*
X135088238Y-60269452D01*
X135183476Y-60221833D01*
X135421571Y-60221833D01*
X135516809Y-60269452D01*
X135564428Y-60317071D01*
X135612047Y-60412309D01*
X135612047Y-60650404D01*
X135564428Y-60745642D01*
X135516809Y-60793261D01*
X135421571Y-60840880D01*
X135183476Y-60840880D01*
X135088238Y-60793261D01*
X135040619Y-60745642D01*
X136564428Y-60840880D02*
X135993000Y-60840880D01*
X136278714Y-60840880D02*
X136278714Y-59840880D01*
X136183476Y-59983738D01*
X136088238Y-60078976D01*
X135993000Y-60126595D01*
X107366880Y-63269690D02*
X106366880Y-63269690D01*
X107271642Y-62222071D02*
X107319261Y-62269690D01*
X107366880Y-62412547D01*
X107366880Y-62507785D01*
X107319261Y-62650642D01*
X107224023Y-62745880D01*
X107128785Y-62793500D01*
X106938309Y-62841119D01*
X106795452Y-62841119D01*
X106604976Y-62793500D01*
X106509738Y-62745880D01*
X106414500Y-62650642D01*
X106366880Y-62507785D01*
X106366880Y-62412547D01*
X106414500Y-62269690D01*
X106462119Y-62222071D01*
X106700214Y-61364928D02*
X107366880Y-61364928D01*
X106319261Y-61603023D02*
X107033547Y-61841119D01*
X107033547Y-61222071D01*
X98972880Y-62491880D02*
X98496690Y-62491880D01*
X98496690Y-61491880D01*
X99639547Y-61968071D02*
X99306214Y-61968071D01*
X99306214Y-62491880D02*
X99306214Y-61491880D01*
X99782404Y-61491880D01*
X100068119Y-61491880D02*
X100687166Y-61491880D01*
X100353833Y-61872833D01*
X100496690Y-61872833D01*
X100591928Y-61920452D01*
X100639547Y-61968071D01*
X100687166Y-62063309D01*
X100687166Y-62301404D01*
X100639547Y-62396642D01*
X100591928Y-62444261D01*
X100496690Y-62491880D01*
X100210976Y-62491880D01*
X100115738Y-62444261D01*
X100068119Y-62396642D01*
X101591928Y-61491880D02*
X101115738Y-61491880D01*
X101068119Y-61968071D01*
X101115738Y-61920452D01*
X101210976Y-61872833D01*
X101449071Y-61872833D01*
X101544309Y-61920452D01*
X101591928Y-61968071D01*
X101639547Y-62063309D01*
X101639547Y-62301404D01*
X101591928Y-62396642D01*
X101544309Y-62444261D01*
X101449071Y-62491880D01*
X101210976Y-62491880D01*
X101115738Y-62444261D01*
X101068119Y-62396642D01*
X102591928Y-62491880D02*
X102020500Y-62491880D01*
X102306214Y-62491880D02*
X102306214Y-61491880D01*
X102210976Y-61634738D01*
X102115738Y-61729976D01*
X102020500Y-61777595D01*
X146546380Y-39901690D02*
X145546380Y-39901690D01*
X146451142Y-38854071D02*
X146498761Y-38901690D01*
X146546380Y-39044547D01*
X146546380Y-39139785D01*
X146498761Y-39282642D01*
X146403523Y-39377880D01*
X146308285Y-39425500D01*
X146117809Y-39473119D01*
X145974952Y-39473119D01*
X145784476Y-39425500D01*
X145689238Y-39377880D01*
X145594000Y-39282642D01*
X145546380Y-39139785D01*
X145546380Y-39044547D01*
X145594000Y-38901690D01*
X145641619Y-38854071D01*
X145546380Y-38520738D02*
X145546380Y-37901690D01*
X145927333Y-38235023D01*
X145927333Y-38092166D01*
X145974952Y-37996928D01*
X146022571Y-37949309D01*
X146117809Y-37901690D01*
X146355904Y-37901690D01*
X146451142Y-37949309D01*
X146498761Y-37996928D01*
X146546380Y-38092166D01*
X146546380Y-38377880D01*
X146498761Y-38473119D01*
X146451142Y-38520738D01*
X133239142Y-38457214D02*
X133239142Y-39457214D01*
X133715333Y-38981023D02*
X133762952Y-39076261D01*
X133858190Y-39123880D01*
X133239142Y-38981023D02*
X133286761Y-39076261D01*
X133382000Y-39123880D01*
X133572476Y-39123880D01*
X133667714Y-39076261D01*
X133715333Y-38981023D01*
X133715333Y-38457214D01*
X134239142Y-38838166D02*
X134715333Y-38838166D01*
X134143904Y-39123880D02*
X134477238Y-38123880D01*
X134810571Y-39123880D01*
X135048666Y-38123880D02*
X135715333Y-38123880D01*
X135286761Y-39123880D01*
X136524857Y-38457214D02*
X136524857Y-39123880D01*
X136286761Y-38076261D02*
X136048666Y-38790547D01*
X136667714Y-38790547D01*
X136953428Y-38123880D02*
X137620095Y-38123880D01*
X137191523Y-39123880D01*
X101004809Y-26487380D02*
X101004809Y-25487380D01*
X102052428Y-26392142D02*
X102004809Y-26439761D01*
X101861952Y-26487380D01*
X101766714Y-26487380D01*
X101623857Y-26439761D01*
X101528619Y-26344523D01*
X101481000Y-26249285D01*
X101433380Y-26058809D01*
X101433380Y-25915952D01*
X101481000Y-25725476D01*
X101528619Y-25630238D01*
X101623857Y-25535000D01*
X101766714Y-25487380D01*
X101861952Y-25487380D01*
X102004809Y-25535000D01*
X102052428Y-25582619D01*
X102433380Y-25582619D02*
X102481000Y-25535000D01*
X102576238Y-25487380D01*
X102814333Y-25487380D01*
X102909571Y-25535000D01*
X102957190Y-25582619D01*
X103004809Y-25677857D01*
X103004809Y-25773095D01*
X102957190Y-25915952D01*
X102385761Y-26487380D01*
X103004809Y-26487380D01*
X97020333Y-32075380D02*
X97020333Y-31075380D01*
X97591761Y-32075380D01*
X97591761Y-31075380D01*
X98067952Y-31551571D02*
X98401285Y-31551571D01*
X98544142Y-32075380D02*
X98067952Y-32075380D01*
X98067952Y-31075380D01*
X98544142Y-31075380D01*
X99448904Y-31075380D02*
X98972714Y-31075380D01*
X98925095Y-31551571D01*
X98972714Y-31503952D01*
X99067952Y-31456333D01*
X99306047Y-31456333D01*
X99401285Y-31503952D01*
X99448904Y-31551571D01*
X99496523Y-31646809D01*
X99496523Y-31884904D01*
X99448904Y-31980142D01*
X99401285Y-32027761D01*
X99306047Y-32075380D01*
X99067952Y-32075380D01*
X98972714Y-32027761D01*
X98925095Y-31980142D01*
X100353666Y-31075380D02*
X100163190Y-31075380D01*
X100067952Y-31123000D01*
X100020333Y-31170619D01*
X99925095Y-31313476D01*
X99877476Y-31503952D01*
X99877476Y-31884904D01*
X99925095Y-31980142D01*
X99972714Y-32027761D01*
X100067952Y-32075380D01*
X100258428Y-32075380D01*
X100353666Y-32027761D01*
X100401285Y-31980142D01*
X100448904Y-31884904D01*
X100448904Y-31646809D01*
X100401285Y-31551571D01*
X100353666Y-31503952D01*
X100258428Y-31456333D01*
X100067952Y-31456333D01*
X99972714Y-31503952D01*
X99925095Y-31551571D01*
X99877476Y-31646809D01*
X101353666Y-31075380D02*
X100877476Y-31075380D01*
X100829857Y-31551571D01*
X100877476Y-31503952D01*
X100972714Y-31456333D01*
X101210809Y-31456333D01*
X101306047Y-31503952D01*
X101353666Y-31551571D01*
X101401285Y-31646809D01*
X101401285Y-31884904D01*
X101353666Y-31980142D01*
X101306047Y-32027761D01*
X101210809Y-32075380D01*
X100972714Y-32075380D01*
X100877476Y-32027761D01*
X100829857Y-31980142D01*
X73001309Y-39377880D02*
X73001309Y-38377880D01*
X74048928Y-39282642D02*
X74001309Y-39330261D01*
X73858452Y-39377880D01*
X73763214Y-39377880D01*
X73620357Y-39330261D01*
X73525119Y-39235023D01*
X73477500Y-39139785D01*
X73429880Y-38949309D01*
X73429880Y-38806452D01*
X73477500Y-38615976D01*
X73525119Y-38520738D01*
X73620357Y-38425500D01*
X73763214Y-38377880D01*
X73858452Y-38377880D01*
X74001309Y-38425500D01*
X74048928Y-38473119D01*
X75001309Y-39377880D02*
X74429880Y-39377880D01*
X74715595Y-39377880D02*
X74715595Y-38377880D01*
X74620357Y-38520738D01*
X74525119Y-38615976D01*
X74429880Y-38663595D01*
X68175380Y-45156380D02*
X67699190Y-45156380D01*
X67699190Y-44156380D01*
X68842047Y-44632571D02*
X68508714Y-44632571D01*
X68508714Y-45156380D02*
X68508714Y-44156380D01*
X68984904Y-44156380D01*
X69270619Y-44156380D02*
X69889666Y-44156380D01*
X69556333Y-44537333D01*
X69699190Y-44537333D01*
X69794428Y-44584952D01*
X69842047Y-44632571D01*
X69889666Y-44727809D01*
X69889666Y-44965904D01*
X69842047Y-45061142D01*
X69794428Y-45108761D01*
X69699190Y-45156380D01*
X69413476Y-45156380D01*
X69318238Y-45108761D01*
X69270619Y-45061142D01*
X70794428Y-44156380D02*
X70318238Y-44156380D01*
X70270619Y-44632571D01*
X70318238Y-44584952D01*
X70413476Y-44537333D01*
X70651571Y-44537333D01*
X70746809Y-44584952D01*
X70794428Y-44632571D01*
X70842047Y-44727809D01*
X70842047Y-44965904D01*
X70794428Y-45061142D01*
X70746809Y-45108761D01*
X70651571Y-45156380D01*
X70413476Y-45156380D01*
X70318238Y-45108761D01*
X70270619Y-45061142D01*
X71794428Y-45156380D02*
X71223000Y-45156380D01*
X71508714Y-45156380D02*
X71508714Y-44156380D01*
X71413476Y-44299238D01*
X71318238Y-44394476D01*
X71223000Y-44442095D01*
X119467404Y-97289880D02*
X119467404Y-96289880D01*
X119705500Y-96289880D01*
X119848357Y-96337500D01*
X119943595Y-96432738D01*
X119991214Y-96527976D01*
X120038833Y-96718452D01*
X120038833Y-96861309D01*
X119991214Y-97051785D01*
X119943595Y-97147023D01*
X119848357Y-97242261D01*
X119705500Y-97289880D01*
X119467404Y-97289880D01*
X120372166Y-96289880D02*
X121038833Y-96289880D01*
X120610261Y-97289880D01*
X114165095Y-97416880D02*
X114165095Y-96416880D01*
X114736523Y-97416880D02*
X114307952Y-96845452D01*
X114736523Y-96416880D02*
X114165095Y-96988309D01*
X129055904Y-91638380D02*
X129055904Y-90638380D01*
X129294000Y-90638380D01*
X129436857Y-90686000D01*
X129532095Y-90781238D01*
X129579714Y-90876476D01*
X129627333Y-91066952D01*
X129627333Y-91209809D01*
X129579714Y-91400285D01*
X129532095Y-91495523D01*
X129436857Y-91590761D01*
X129294000Y-91638380D01*
X129055904Y-91638380D01*
X130484476Y-90638380D02*
X130294000Y-90638380D01*
X130198761Y-90686000D01*
X130151142Y-90733619D01*
X130055904Y-90876476D01*
X130008285Y-91066952D01*
X130008285Y-91447904D01*
X130055904Y-91543142D01*
X130103523Y-91590761D01*
X130198761Y-91638380D01*
X130389238Y-91638380D01*
X130484476Y-91590761D01*
X130532095Y-91543142D01*
X130579714Y-91447904D01*
X130579714Y-91209809D01*
X130532095Y-91114571D01*
X130484476Y-91066952D01*
X130389238Y-91019333D01*
X130198761Y-91019333D01*
X130103523Y-91066952D01*
X130055904Y-91114571D01*
X130008285Y-91209809D01*
X133977095Y-93543380D02*
X133977095Y-92543380D01*
X134548523Y-93543380D02*
X134119952Y-92971952D01*
X134548523Y-92543380D02*
X133977095Y-93114809D01*
X106259404Y-19883380D02*
X106259404Y-18883380D01*
X106497500Y-18883380D01*
X106640357Y-18931000D01*
X106735595Y-19026238D01*
X106783214Y-19121476D01*
X106830833Y-19311952D01*
X106830833Y-19454809D01*
X106783214Y-19645285D01*
X106735595Y-19740523D01*
X106640357Y-19835761D01*
X106497500Y-19883380D01*
X106259404Y-19883380D01*
X107164166Y-18883380D02*
X107783214Y-18883380D01*
X107449880Y-19264333D01*
X107592738Y-19264333D01*
X107687976Y-19311952D01*
X107735595Y-19359571D01*
X107783214Y-19454809D01*
X107783214Y-19692904D01*
X107735595Y-19788142D01*
X107687976Y-19835761D01*
X107592738Y-19883380D01*
X107307023Y-19883380D01*
X107211785Y-19835761D01*
X107164166Y-19788142D01*
X90892404Y-42362380D02*
X90892404Y-41362380D01*
X91130500Y-41362380D01*
X91273357Y-41410000D01*
X91368595Y-41505238D01*
X91416214Y-41600476D01*
X91463833Y-41790952D01*
X91463833Y-41933809D01*
X91416214Y-42124285D01*
X91368595Y-42219523D01*
X91273357Y-42314761D01*
X91130500Y-42362380D01*
X90892404Y-42362380D01*
X91844785Y-41457619D02*
X91892404Y-41410000D01*
X91987642Y-41362380D01*
X92225738Y-41362380D01*
X92320976Y-41410000D01*
X92368595Y-41457619D01*
X92416214Y-41552857D01*
X92416214Y-41648095D01*
X92368595Y-41790952D01*
X91797166Y-42362380D01*
X92416214Y-42362380D01*
X85463095Y-43187880D02*
X85463095Y-42187880D01*
X86034523Y-43187880D02*
X85605952Y-42616452D01*
X86034523Y-42187880D02*
X85463095Y-42759309D01*
X129357380Y-25884095D02*
X128357380Y-25884095D01*
X128357380Y-25646000D01*
X128405000Y-25503142D01*
X128500238Y-25407904D01*
X128595476Y-25360285D01*
X128785952Y-25312666D01*
X128928809Y-25312666D01*
X129119285Y-25360285D01*
X129214523Y-25407904D01*
X129309761Y-25503142D01*
X129357380Y-25646000D01*
X129357380Y-25884095D01*
X129357380Y-24360285D02*
X129357380Y-24931714D01*
X129357380Y-24646000D02*
X128357380Y-24646000D01*
X128500238Y-24741238D01*
X128595476Y-24836476D01*
X128643095Y-24931714D01*
X127557380Y-29789404D02*
X126557380Y-29789404D01*
X127557380Y-29217976D02*
X126985952Y-29646547D01*
X126557380Y-29217976D02*
X127128809Y-29789404D01*
X128262142Y-94400642D02*
X128214523Y-94448261D01*
X128071666Y-94495880D01*
X127976428Y-94495880D01*
X127833571Y-94448261D01*
X127738333Y-94353023D01*
X127690714Y-94257785D01*
X127643095Y-94067309D01*
X127643095Y-93924452D01*
X127690714Y-93733976D01*
X127738333Y-93638738D01*
X127833571Y-93543500D01*
X127976428Y-93495880D01*
X128071666Y-93495880D01*
X128214523Y-93543500D01*
X128262142Y-93591119D01*
X128643095Y-93591119D02*
X128690714Y-93543500D01*
X128785952Y-93495880D01*
X129024047Y-93495880D01*
X129119285Y-93543500D01*
X129166904Y-93591119D01*
X129214523Y-93686357D01*
X129214523Y-93781595D01*
X129166904Y-93924452D01*
X128595476Y-94495880D01*
X129214523Y-94495880D01*
X129547857Y-93495880D02*
X130166904Y-93495880D01*
X129833571Y-93876833D01*
X129976428Y-93876833D01*
X130071666Y-93924452D01*
X130119285Y-93972071D01*
X130166904Y-94067309D01*
X130166904Y-94305404D01*
X130119285Y-94400642D01*
X130071666Y-94448261D01*
X129976428Y-94495880D01*
X129690714Y-94495880D01*
X129595476Y-94448261D01*
X129547857Y-94400642D01*
X150868142Y-80176642D02*
X150820523Y-80224261D01*
X150677666Y-80271880D01*
X150582428Y-80271880D01*
X150439571Y-80224261D01*
X150344333Y-80129023D01*
X150296714Y-80033785D01*
X150249095Y-79843309D01*
X150249095Y-79700452D01*
X150296714Y-79509976D01*
X150344333Y-79414738D01*
X150439571Y-79319500D01*
X150582428Y-79271880D01*
X150677666Y-79271880D01*
X150820523Y-79319500D01*
X150868142Y-79367119D01*
X151249095Y-79367119D02*
X151296714Y-79319500D01*
X151391952Y-79271880D01*
X151630047Y-79271880D01*
X151725285Y-79319500D01*
X151772904Y-79367119D01*
X151820523Y-79462357D01*
X151820523Y-79557595D01*
X151772904Y-79700452D01*
X151201476Y-80271880D01*
X151820523Y-80271880D01*
X152201476Y-79367119D02*
X152249095Y-79319500D01*
X152344333Y-79271880D01*
X152582428Y-79271880D01*
X152677666Y-79319500D01*
X152725285Y-79367119D01*
X152772904Y-79462357D01*
X152772904Y-79557595D01*
X152725285Y-79700452D01*
X152153857Y-80271880D01*
X152772904Y-80271880D01*
X132961142Y-86082142D02*
X132913523Y-86129761D01*
X132770666Y-86177380D01*
X132675428Y-86177380D01*
X132532571Y-86129761D01*
X132437333Y-86034523D01*
X132389714Y-85939285D01*
X132342095Y-85748809D01*
X132342095Y-85605952D01*
X132389714Y-85415476D01*
X132437333Y-85320238D01*
X132532571Y-85225000D01*
X132675428Y-85177380D01*
X132770666Y-85177380D01*
X132913523Y-85225000D01*
X132961142Y-85272619D01*
X133913523Y-86177380D02*
X133342095Y-86177380D01*
X133627809Y-86177380D02*
X133627809Y-85177380D01*
X133532571Y-85320238D01*
X133437333Y-85415476D01*
X133342095Y-85463095D01*
X134389714Y-86177380D02*
X134580190Y-86177380D01*
X134675428Y-86129761D01*
X134723047Y-86082142D01*
X134818285Y-85939285D01*
X134865904Y-85748809D01*
X134865904Y-85367857D01*
X134818285Y-85272619D01*
X134770666Y-85225000D01*
X134675428Y-85177380D01*
X134484952Y-85177380D01*
X134389714Y-85225000D01*
X134342095Y-85272619D01*
X134294476Y-85367857D01*
X134294476Y-85605952D01*
X134342095Y-85701190D01*
X134389714Y-85748809D01*
X134484952Y-85796428D01*
X134675428Y-85796428D01*
X134770666Y-85748809D01*
X134818285Y-85701190D01*
X134865904Y-85605952D01*
X127484142Y-59721357D02*
X127531761Y-59768976D01*
X127579380Y-59911833D01*
X127579380Y-60007071D01*
X127531761Y-60149928D01*
X127436523Y-60245166D01*
X127341285Y-60292785D01*
X127150809Y-60340404D01*
X127007952Y-60340404D01*
X126817476Y-60292785D01*
X126722238Y-60245166D01*
X126627000Y-60149928D01*
X126579380Y-60007071D01*
X126579380Y-59911833D01*
X126627000Y-59768976D01*
X126674619Y-59721357D01*
X127579380Y-58768976D02*
X127579380Y-59340404D01*
X127579380Y-59054690D02*
X126579380Y-59054690D01*
X126722238Y-59149928D01*
X126817476Y-59245166D01*
X126865095Y-59340404D01*
X126912714Y-57911833D02*
X127579380Y-57911833D01*
X126531761Y-58149928D02*
X127246047Y-58388023D01*
X127246047Y-57768976D01*
X125198142Y-52458857D02*
X125245761Y-52506476D01*
X125293380Y-52649333D01*
X125293380Y-52744571D01*
X125245761Y-52887428D01*
X125150523Y-52982666D01*
X125055285Y-53030285D01*
X124864809Y-53077904D01*
X124721952Y-53077904D01*
X124531476Y-53030285D01*
X124436238Y-52982666D01*
X124341000Y-52887428D01*
X124293380Y-52744571D01*
X124293380Y-52649333D01*
X124341000Y-52506476D01*
X124388619Y-52458857D01*
X125293380Y-51506476D02*
X125293380Y-52077904D01*
X125293380Y-51792190D02*
X124293380Y-51792190D01*
X124436238Y-51887428D01*
X124531476Y-51982666D01*
X124579095Y-52077904D01*
X124293380Y-51173142D02*
X124293380Y-50554095D01*
X124674333Y-50887428D01*
X124674333Y-50744571D01*
X124721952Y-50649333D01*
X124769571Y-50601714D01*
X124864809Y-50554095D01*
X125102904Y-50554095D01*
X125198142Y-50601714D01*
X125245761Y-50649333D01*
X125293380Y-50744571D01*
X125293380Y-51030285D01*
X125245761Y-51125523D01*
X125198142Y-51173142D01*
X133128142Y-68429142D02*
X133080523Y-68476761D01*
X132937666Y-68524380D01*
X132842428Y-68524380D01*
X132699571Y-68476761D01*
X132604333Y-68381523D01*
X132556714Y-68286285D01*
X132509095Y-68095809D01*
X132509095Y-67952952D01*
X132556714Y-67762476D01*
X132604333Y-67667238D01*
X132699571Y-67572000D01*
X132842428Y-67524380D01*
X132937666Y-67524380D01*
X133080523Y-67572000D01*
X133128142Y-67619619D01*
X134080523Y-68524380D02*
X133509095Y-68524380D01*
X133794809Y-68524380D02*
X133794809Y-67524380D01*
X133699571Y-67667238D01*
X133604333Y-67762476D01*
X133509095Y-67810095D01*
X134461476Y-67619619D02*
X134509095Y-67572000D01*
X134604333Y-67524380D01*
X134842428Y-67524380D01*
X134937666Y-67572000D01*
X134985285Y-67619619D01*
X135032904Y-67714857D01*
X135032904Y-67810095D01*
X134985285Y-67952952D01*
X134413857Y-68524380D01*
X135032904Y-68524380D01*
X110720142Y-73691357D02*
X110767761Y-73738976D01*
X110815380Y-73881833D01*
X110815380Y-73977071D01*
X110767761Y-74119928D01*
X110672523Y-74215166D01*
X110577285Y-74262785D01*
X110386809Y-74310404D01*
X110243952Y-74310404D01*
X110053476Y-74262785D01*
X109958238Y-74215166D01*
X109863000Y-74119928D01*
X109815380Y-73977071D01*
X109815380Y-73881833D01*
X109863000Y-73738976D01*
X109910619Y-73691357D01*
X110815380Y-72738976D02*
X110815380Y-73310404D01*
X110815380Y-73024690D02*
X109815380Y-73024690D01*
X109958238Y-73119928D01*
X110053476Y-73215166D01*
X110101095Y-73310404D01*
X110815380Y-71786595D02*
X110815380Y-72358023D01*
X110815380Y-72072309D02*
X109815380Y-72072309D01*
X109958238Y-72167547D01*
X110053476Y-72262785D01*
X110101095Y-72358023D01*
X121328142Y-47866857D02*
X121375761Y-47914476D01*
X121423380Y-48057333D01*
X121423380Y-48152571D01*
X121375761Y-48295428D01*
X121280523Y-48390666D01*
X121185285Y-48438285D01*
X120994809Y-48485904D01*
X120851952Y-48485904D01*
X120661476Y-48438285D01*
X120566238Y-48390666D01*
X120471000Y-48295428D01*
X120423380Y-48152571D01*
X120423380Y-48057333D01*
X120471000Y-47914476D01*
X120518619Y-47866857D01*
X121423380Y-46914476D02*
X121423380Y-47485904D01*
X121423380Y-47200190D02*
X120423380Y-47200190D01*
X120566238Y-47295428D01*
X120661476Y-47390666D01*
X120709095Y-47485904D01*
X120423380Y-46295428D02*
X120423380Y-46200190D01*
X120471000Y-46104952D01*
X120518619Y-46057333D01*
X120613857Y-46009714D01*
X120804333Y-45962095D01*
X121042428Y-45962095D01*
X121232904Y-46009714D01*
X121328142Y-46057333D01*
X121375761Y-46104952D01*
X121423380Y-46200190D01*
X121423380Y-46295428D01*
X121375761Y-46390666D01*
X121328142Y-46438285D01*
X121232904Y-46485904D01*
X121042428Y-46533523D01*
X120804333Y-46533523D01*
X120613857Y-46485904D01*
X120518619Y-46438285D01*
X120471000Y-46390666D01*
X120423380Y-46295428D01*
X94194333Y-54903642D02*
X94146714Y-54951261D01*
X94003857Y-54998880D01*
X93908619Y-54998880D01*
X93765761Y-54951261D01*
X93670523Y-54856023D01*
X93622904Y-54760785D01*
X93575285Y-54570309D01*
X93575285Y-54427452D01*
X93622904Y-54236976D01*
X93670523Y-54141738D01*
X93765761Y-54046500D01*
X93908619Y-53998880D01*
X94003857Y-53998880D01*
X94146714Y-54046500D01*
X94194333Y-54094119D01*
X94670523Y-54998880D02*
X94861000Y-54998880D01*
X94956238Y-54951261D01*
X95003857Y-54903642D01*
X95099095Y-54760785D01*
X95146714Y-54570309D01*
X95146714Y-54189357D01*
X95099095Y-54094119D01*
X95051476Y-54046500D01*
X94956238Y-53998880D01*
X94765761Y-53998880D01*
X94670523Y-54046500D01*
X94622904Y-54094119D01*
X94575285Y-54189357D01*
X94575285Y-54427452D01*
X94622904Y-54522690D01*
X94670523Y-54570309D01*
X94765761Y-54617928D01*
X94956238Y-54617928D01*
X95051476Y-54570309D01*
X95099095Y-54522690D01*
X95146714Y-54427452D01*
X144486333Y-45632642D02*
X144438714Y-45680261D01*
X144295857Y-45727880D01*
X144200619Y-45727880D01*
X144057761Y-45680261D01*
X143962523Y-45585023D01*
X143914904Y-45489785D01*
X143867285Y-45299309D01*
X143867285Y-45156452D01*
X143914904Y-44965976D01*
X143962523Y-44870738D01*
X144057761Y-44775500D01*
X144200619Y-44727880D01*
X144295857Y-44727880D01*
X144438714Y-44775500D01*
X144486333Y-44823119D01*
X145057761Y-45156452D02*
X144962523Y-45108833D01*
X144914904Y-45061214D01*
X144867285Y-44965976D01*
X144867285Y-44918357D01*
X144914904Y-44823119D01*
X144962523Y-44775500D01*
X145057761Y-44727880D01*
X145248238Y-44727880D01*
X145343476Y-44775500D01*
X145391095Y-44823119D01*
X145438714Y-44918357D01*
X145438714Y-44965976D01*
X145391095Y-45061214D01*
X145343476Y-45108833D01*
X145248238Y-45156452D01*
X145057761Y-45156452D01*
X144962523Y-45204071D01*
X144914904Y-45251690D01*
X144867285Y-45346928D01*
X144867285Y-45537404D01*
X144914904Y-45632642D01*
X144962523Y-45680261D01*
X145057761Y-45727880D01*
X145248238Y-45727880D01*
X145343476Y-45680261D01*
X145391095Y-45632642D01*
X145438714Y-45537404D01*
X145438714Y-45346928D01*
X145391095Y-45251690D01*
X145343476Y-45204071D01*
X145248238Y-45156452D01*
X122642333Y-17565642D02*
X122594714Y-17613261D01*
X122451857Y-17660880D01*
X122356619Y-17660880D01*
X122213761Y-17613261D01*
X122118523Y-17518023D01*
X122070904Y-17422785D01*
X122023285Y-17232309D01*
X122023285Y-17089452D01*
X122070904Y-16898976D01*
X122118523Y-16803738D01*
X122213761Y-16708500D01*
X122356619Y-16660880D01*
X122451857Y-16660880D01*
X122594714Y-16708500D01*
X122642333Y-16756119D01*
X122975666Y-16660880D02*
X123642333Y-16660880D01*
X123213761Y-17660880D01*
X115990642Y-26733166D02*
X116038261Y-26780785D01*
X116085880Y-26923642D01*
X116085880Y-27018880D01*
X116038261Y-27161738D01*
X115943023Y-27256976D01*
X115847785Y-27304595D01*
X115657309Y-27352214D01*
X115514452Y-27352214D01*
X115323976Y-27304595D01*
X115228738Y-27256976D01*
X115133500Y-27161738D01*
X115085880Y-27018880D01*
X115085880Y-26923642D01*
X115133500Y-26780785D01*
X115181119Y-26733166D01*
X115085880Y-25876023D02*
X115085880Y-26066500D01*
X115133500Y-26161738D01*
X115181119Y-26209357D01*
X115323976Y-26304595D01*
X115514452Y-26352214D01*
X115895404Y-26352214D01*
X115990642Y-26304595D01*
X116038261Y-26256976D01*
X116085880Y-26161738D01*
X116085880Y-25971261D01*
X116038261Y-25876023D01*
X115990642Y-25828404D01*
X115895404Y-25780785D01*
X115657309Y-25780785D01*
X115562071Y-25828404D01*
X115514452Y-25876023D01*
X115466833Y-25971261D01*
X115466833Y-26161738D01*
X115514452Y-26256976D01*
X115562071Y-26304595D01*
X115657309Y-26352214D01*
X101306333Y-38838142D02*
X101258714Y-38885761D01*
X101115857Y-38933380D01*
X101020619Y-38933380D01*
X100877761Y-38885761D01*
X100782523Y-38790523D01*
X100734904Y-38695285D01*
X100687285Y-38504809D01*
X100687285Y-38361952D01*
X100734904Y-38171476D01*
X100782523Y-38076238D01*
X100877761Y-37981000D01*
X101020619Y-37933380D01*
X101115857Y-37933380D01*
X101258714Y-37981000D01*
X101306333Y-38028619D01*
X102211095Y-37933380D02*
X101734904Y-37933380D01*
X101687285Y-38409571D01*
X101734904Y-38361952D01*
X101830142Y-38314333D01*
X102068238Y-38314333D01*
X102163476Y-38361952D01*
X102211095Y-38409571D01*
X102258714Y-38504809D01*
X102258714Y-38742904D01*
X102211095Y-38838142D01*
X102163476Y-38885761D01*
X102068238Y-38933380D01*
X101830142Y-38933380D01*
X101734904Y-38885761D01*
X101687285Y-38838142D01*
X89094333Y-16673142D02*
X89046714Y-16720761D01*
X88903857Y-16768380D01*
X88808619Y-16768380D01*
X88665761Y-16720761D01*
X88570523Y-16625523D01*
X88522904Y-16530285D01*
X88475285Y-16339809D01*
X88475285Y-16196952D01*
X88522904Y-16006476D01*
X88570523Y-15911238D01*
X88665761Y-15816000D01*
X88808619Y-15768380D01*
X88903857Y-15768380D01*
X89046714Y-15816000D01*
X89094333Y-15863619D01*
X89951476Y-16101714D02*
X89951476Y-16768380D01*
X89713380Y-15720761D02*
X89475285Y-16435047D01*
X90094333Y-16435047D01*
X79538142Y-40064666D02*
X79585761Y-40112285D01*
X79633380Y-40255142D01*
X79633380Y-40350380D01*
X79585761Y-40493238D01*
X79490523Y-40588476D01*
X79395285Y-40636095D01*
X79204809Y-40683714D01*
X79061952Y-40683714D01*
X78871476Y-40636095D01*
X78776238Y-40588476D01*
X78681000Y-40493238D01*
X78633380Y-40350380D01*
X78633380Y-40255142D01*
X78681000Y-40112285D01*
X78728619Y-40064666D01*
X78633380Y-39731333D02*
X78633380Y-39112285D01*
X79014333Y-39445619D01*
X79014333Y-39302761D01*
X79061952Y-39207523D01*
X79109571Y-39159904D01*
X79204809Y-39112285D01*
X79442904Y-39112285D01*
X79538142Y-39159904D01*
X79585761Y-39207523D01*
X79633380Y-39302761D01*
X79633380Y-39588476D01*
X79585761Y-39683714D01*
X79538142Y-39731333D01*
X67968833Y-38457142D02*
X67921214Y-38504761D01*
X67778357Y-38552380D01*
X67683119Y-38552380D01*
X67540261Y-38504761D01*
X67445023Y-38409523D01*
X67397404Y-38314285D01*
X67349785Y-38123809D01*
X67349785Y-37980952D01*
X67397404Y-37790476D01*
X67445023Y-37695238D01*
X67540261Y-37600000D01*
X67683119Y-37552380D01*
X67778357Y-37552380D01*
X67921214Y-37600000D01*
X67968833Y-37647619D01*
X68349785Y-37647619D02*
X68397404Y-37600000D01*
X68492642Y-37552380D01*
X68730738Y-37552380D01*
X68825976Y-37600000D01*
X68873595Y-37647619D01*
X68921214Y-37742857D01*
X68921214Y-37838095D01*
X68873595Y-37980952D01*
X68302166Y-38552380D01*
X68921214Y-38552380D01*
X68580333Y-52173142D02*
X68532714Y-52220761D01*
X68389857Y-52268380D01*
X68294619Y-52268380D01*
X68151761Y-52220761D01*
X68056523Y-52125523D01*
X68008904Y-52030285D01*
X67961285Y-51839809D01*
X67961285Y-51696952D01*
X68008904Y-51506476D01*
X68056523Y-51411238D01*
X68151761Y-51316000D01*
X68294619Y-51268380D01*
X68389857Y-51268380D01*
X68532714Y-51316000D01*
X68580333Y-51363619D01*
X69532714Y-52268380D02*
X68961285Y-52268380D01*
X69247000Y-52268380D02*
X69247000Y-51268380D01*
X69151761Y-51411238D01*
X69056523Y-51506476D01*
X68961285Y-51554095D01*
X114022142Y-73667857D02*
X114069761Y-73715476D01*
X114117380Y-73858333D01*
X114117380Y-73953571D01*
X114069761Y-74096428D01*
X113974523Y-74191666D01*
X113879285Y-74239285D01*
X113688809Y-74286904D01*
X113545952Y-74286904D01*
X113355476Y-74239285D01*
X113260238Y-74191666D01*
X113165000Y-74096428D01*
X113117380Y-73953571D01*
X113117380Y-73858333D01*
X113165000Y-73715476D01*
X113212619Y-73667857D01*
X113212619Y-73286904D02*
X113165000Y-73239285D01*
X113117380Y-73144047D01*
X113117380Y-72905952D01*
X113165000Y-72810714D01*
X113212619Y-72763095D01*
X113307857Y-72715476D01*
X113403095Y-72715476D01*
X113545952Y-72763095D01*
X114117380Y-73334523D01*
X114117380Y-72715476D01*
X113117380Y-72096428D02*
X113117380Y-72001190D01*
X113165000Y-71905952D01*
X113212619Y-71858333D01*
X113307857Y-71810714D01*
X113498333Y-71763095D01*
X113736428Y-71763095D01*
X113926904Y-71810714D01*
X114022142Y-71858333D01*
X114069761Y-71905952D01*
X114117380Y-72001190D01*
X114117380Y-72096428D01*
X114069761Y-72191666D01*
X114022142Y-72239285D01*
X113926904Y-72286904D01*
X113736428Y-72334523D01*
X113498333Y-72334523D01*
X113307857Y-72286904D01*
X113212619Y-72239285D01*
X113165000Y-72191666D01*
X113117380Y-72096428D01*
X150931642Y-83478642D02*
X150884023Y-83526261D01*
X150741166Y-83573880D01*
X150645928Y-83573880D01*
X150503071Y-83526261D01*
X150407833Y-83431023D01*
X150360214Y-83335785D01*
X150312595Y-83145309D01*
X150312595Y-83002452D01*
X150360214Y-82811976D01*
X150407833Y-82716738D01*
X150503071Y-82621500D01*
X150645928Y-82573880D01*
X150741166Y-82573880D01*
X150884023Y-82621500D01*
X150931642Y-82669119D01*
X151312595Y-82669119D02*
X151360214Y-82621500D01*
X151455452Y-82573880D01*
X151693547Y-82573880D01*
X151788785Y-82621500D01*
X151836404Y-82669119D01*
X151884023Y-82764357D01*
X151884023Y-82859595D01*
X151836404Y-83002452D01*
X151264976Y-83573880D01*
X151884023Y-83573880D01*
X152836404Y-83573880D02*
X152264976Y-83573880D01*
X152550690Y-83573880D02*
X152550690Y-82573880D01*
X152455452Y-82716738D01*
X152360214Y-82811976D01*
X152264976Y-82859595D01*
M02*
