M48
; DRILL file {KiCad 5.1.7-a382d34a8~87~ubuntu20.04.1} date Thu Oct  1 12:31:43 2020
; FORMAT={-:-/ absolute / inch / decimal}
; #@! TF.CreationDate,2020-10-01T12:31:43+02:00
; #@! TF.GenerationSoftware,Kicad,Pcbnew,5.1.7-a382d34a8~87~ubuntu20.04.1
FMAT,2
INCH
T1C0.0157
T2C0.0315
T3C0.0354
T4C0.0394
T5C0.0531
T6C0.0591
T7C0.1260
%
G90
G05
T1
X1.1974Y-2.0403
X1.1974Y-2.3159
X1.1974Y-2.5915
X1.1974Y-2.8671
X1.1974Y-3.1427
X1.1974Y-3.4183
X1.1974Y-3.812
X1.3155Y-3.5757
X1.3549Y-2.1584
X1.3549Y-2.434
X1.3549Y-2.7096
X1.3549Y-2.9852
X1.3942Y-3.2214
X1.4336Y-3.7332
X1.473Y-3.4183
X1.5123Y-2.2765
X1.5123Y-2.5521
X1.5123Y-2.8277
X1.5517Y-3.0639
X1.5911Y-2.0797
X1.5911Y-3.5757
X1.6304Y-3.2608
X1.6304Y-3.812
X1.6698Y-2.3946
X1.6698Y-2.6702
X1.7486Y-2.1978
X1.7486Y-2.8671
X1.7879Y-3.1033
X1.7879Y-3.497
X1.8273Y-2.5128
X1.8273Y-3.7332
X1.8667Y-3.3002
X1.906Y-2.0797
X1.906Y-2.7096
X1.9454Y-2.3159
X1.9454Y-2.9852
X1.9848Y-3.5757
X2.0241Y-3.182
X2.0241Y-3.812
X2.0635Y-2.4734
X2.0635Y-2.8277
X2.1029Y-2.1584
X2.1816Y-2.6309
X2.1816Y-3.0246
X2.1816Y-3.497
X2.221Y-2.3159
X2.221Y-3.2608
X2.221Y-3.7332
X2.2604Y-2.0403
X2.3391Y-2.4734
X2.3391Y-2.749
X2.3785Y-2.1978
X2.3785Y-3.1033
X2.3785Y-3.5757
X2.4178Y-3.812
X2.4572Y-1.8435
X2.4966Y-0.6624
X2.4966Y-2.3553
X2.4966Y-2.6309
X2.536Y-2.8671
X2.536Y-3.2214
X2.5753Y-3.4576
X2.6147Y-0.8986
X2.6147Y-1.2135
X2.6147Y-1.7254
X2.6147Y-2.1191
X2.6147Y-3.6939
X2.6541Y-2.4734
X2.6541Y-3.0246
X2.6934Y-1.4104
X2.6934Y-2.7096
X2.7328Y-2.2765
X2.7722Y-3.182
X2.7722Y-3.812
X2.8115Y-2.8671
X2.8509Y-2.5521
X2.8509Y-3.3789
X2.8903Y-1.2135
X2.8903Y-2.1191
X2.9297Y-0.6624
X2.9297Y-2.3553
X2.9297Y-3.0246
X2.9297Y-3.5757
X2.969Y-0.9773
X2.969Y-2.7096
X3.0084Y-1.4891
X3.0084Y-1.8041
X3.0084Y-3.2214
X3.0084Y-3.7726
X3.0871Y-0.7805
X3.0871Y-1.1348
X3.0871Y-2.0009
X3.0871Y-2.4734
X3.0871Y-3.4183
X3.1265Y-2.2372
X3.1659Y-1.686
X3.1659Y-3.0639
X3.2052Y-3.5757
X3.2446Y-0.6624
X3.2446Y-1.0167
X3.2446Y-1.8828
X3.2446Y-2.5915
X3.2446Y-2.8671
X3.2446Y-3.812
X3.284Y-2.1191
X3.3234Y-1.2135
X3.3234Y-2.3553
X3.3234Y-3.182
X3.3627Y-0.8592
X3.4021Y-2.7096
X3.4021Y-3.3789
X3.4021Y-3.6545
X3.4415Y-1.7647
X3.4415Y-3.0246
X3.4808Y-1.0561
X3.4808Y-2.0009
X3.49Y-1.3525
X3.5202Y-0.6624
X3.5202Y-2.2372
X3.5202Y-3.812
X3.5596Y-2.8277
X3.5989Y-1.2135
X3.5989Y-1.6466
X3.5989Y-2.434
X3.5989Y-3.1427
X3.6777Y-0.7805
X3.6777Y-2.6309
X3.6777Y-3.3395
X3.6777Y-3.6151
X3.7171Y-1.8041
X3.7171Y-2.0797
X3.7564Y-2.9065
X3.7958Y-3.812
X3.8352Y-0.6624
X3.8352Y-0.938
X3.8352Y-2.3946
X3.8352Y-3.1033
X3.8745Y-1.2135
X3.8745Y-3.4183
X3.9139Y-1.7254
X3.965Y-1.3175
X4.032Y-0.7805
X4.032Y-3.6545
X4.0714Y-2.8671
X4.0714Y-3.1427
X4.1108Y-0.9773
X4.1108Y-1.2923
X4.1108Y-1.6466
X4.1108Y-1.9616
X4.1108Y-2.5128
X4.135Y-1.175
X4.1475Y-1.87
X4.1501Y-2.1978
X4.1501Y-3.812
X4.1895Y-0.6624
X4.2275Y-1.4725
X4.2289Y-2.9852
X4.2682Y-1.8435
X4.2682Y-2.3553
X4.2682Y-3.3789
X4.3076Y-1.0954
X4.3076Y-3.6151
X4.347Y-1.4498
X4.3863Y-1.686
X4.3863Y-2.5915
X4.3863Y-3.1033
X4.4175Y-1.0075
X4.4257Y-1.9616
X4.4257Y-2.2372
X4.4257Y-3.7726
X4.5045Y-0.6624
X4.5045Y-1.2529
X4.5045Y-2.434
X4.5438Y-1.5285
X4.5438Y-2.8671
X4.6226Y-2.1584
X4.6226Y-2.6309
X4.6226Y-3.0639
X4.6619Y-1.1348
X4.6619Y-1.686
X4.6619Y-3.3789
X4.67Y-0.945
X4.7013Y-1.371
X4.7013Y-2.3553
X4.7013Y-3.7332
X4.7407Y-0.7805
X4.7407Y-1.8828
X4.78Y-3.182
X4.8194Y-2.5128
X4.8194Y-2.8277
X4.8275Y-1.0775
X4.8588Y-2.1978
X4.8982Y-3.0246
X4.9769Y-1.4891
X4.9769Y-2.6702
X4.9769Y-3.3789
X4.9769Y-3.812
X4.98Y-1.0825
X4.98Y-1.575
X5.0163Y-1.9222
X5.0163Y-2.3159
X5.0556Y-2.8671
X5.165Y-0.945
X5.1737Y-0.6624
X5.1737Y-1.8041
X5.2131Y-2.0403
X5.2131Y-3.2214
X5.2132Y-3.1307
X5.235Y-1.3075
X5.2525Y-3.812
X5.2625Y-1.2725
X5.2919Y-2.3553
X5.2919Y-2.7883
X5.35Y-1.055
X5.3706Y-1.4891
X5.3706Y-1.8828
X5.405Y-3.085
X5.4493Y-3.7332
X5.4887Y-1.2135
X5.4887Y-2.6702
X5.5281Y-0.6624
X5.5674Y-2.434
X5.5674Y-2.8671
X5.5674Y-3.182
X5.5674Y-3.4576
X5.6068Y-1.5285
X5.6462Y-0.8198
X5.6462Y-1.8828
X5.6462Y-3.6545
X5.6856Y-1.1348
X5.6856Y-2.2372
X5.6856Y-2.5915
X5.7643Y-1.3317
X5.7643Y-1.686
X5.7643Y-2.7883
X5.7643Y-3.812
X5.843Y-0.6624
X5.843Y-0.9773
X5.843Y-2.1191
X5.8824Y-1.4891
X5.8824Y-2.5128
X5.8824Y-2.9458
X5.8824Y-3.5757
X5.9218Y-1.8041
X5.9611Y-1.2529
X5.9611Y-2.7096
X5.9611Y-3.2608
X6.0005Y-3.7726
X6.0399Y-1.0561
X6.0399Y-1.6072
X6.0399Y-1.9616
X6.0399Y-2.2372
X6.0399Y-3.4576
X6.0793Y-2.8671
X6.1186Y-0.6624
X6.1186Y-1.371
X6.1186Y-2.5915
X6.158Y-1.7647
X6.158Y-3.1427
X6.1974Y-0.938
X6.1974Y-2.0797
X6.1974Y-2.3553
X6.1974Y-3.5757
X6.2367Y-1.1742
X6.2367Y-1.5285
X6.2367Y-2.749
X6.2367Y-3.812
T2
X2.88Y-3.28
X3.18Y-3.28
X4.98Y-3.585
X5.28Y-3.585
X5.0575Y-0.6925
X5.3575Y-0.6925
X4.575Y-3.815
X4.875Y-3.815
X5.16Y-2.2275
X5.16Y-2.5275
X5.26Y-2.2275
X5.26Y-2.5275
X5.36Y-2.2275
X5.36Y-2.5275
X5.46Y-2.2275
X5.46Y-2.5275
X4.4775Y-2.7756
X4.4775Y-2.9725
X5.4525Y-0.745
X5.7525Y-0.745
X5.595Y-1.79
X5.7919Y-1.79
X4.3425Y-2.7775
X4.3425Y-2.9744
X3.3375Y-2.5175
X3.4375Y-2.4175
X3.5375Y-2.5175
X3.285Y-3.49
X3.585Y-3.49
X2.88Y-3.695
X3.18Y-3.695
X3.265Y-1.5216
X3.265Y-1.62
X2.605Y-1.61
X2.605Y-1.91
X2.705Y-1.61
X2.705Y-1.91
X2.805Y-1.61
X2.805Y-1.91
X2.905Y-1.61
X2.905Y-1.91
X5.345Y-0.86
X5.345Y-1.16
X3.4475Y-1.52
X3.7475Y-1.52
X5.06Y-1.3825
X5.06Y-1.6825
X5.16Y-1.3825
X5.16Y-1.6825
X5.26Y-1.3825
X5.26Y-1.6825
X5.36Y-1.3825
X5.36Y-1.6825
X5.46Y-1.3825
X5.46Y-1.6825
X5.56Y-1.3825
X5.56Y-1.6825
X5.66Y-1.3825
X5.66Y-1.6825
X3.615Y-1.105
X3.615Y-1.405
X3.715Y-1.105
X3.715Y-1.405
X3.815Y-1.105
X3.815Y-1.405
X3.915Y-1.105
X3.915Y-1.405
X4.015Y-1.105
X4.015Y-1.405
X4.115Y-1.105
X4.115Y-1.405
X4.215Y-1.105
X4.215Y-1.405
X5.8575Y-1.3775
X5.8575Y-1.6775
X4.635Y-0.815
X4.935Y-0.815
X4.7381Y-0.6725
X4.935Y-0.6725
X5.8675Y-3.145
X6.0644Y-3.145
X3.8175Y-2.3025
X3.8175Y-2.6025
X3.9175Y-2.3025
X3.9175Y-2.6025
X4.0175Y-2.3025
X4.0175Y-2.6025
X4.1175Y-2.3025
X4.1175Y-2.6025
X3.6175Y-1.9525
X3.9175Y-1.9525
X2.6081Y-2.03
X2.805Y-2.03
X5.0141Y-2.0275
X5.1125Y-2.0275
X5.0075Y-2.2275
X5.0075Y-2.4244
X5.51Y-1.015
X5.61Y-0.915
X5.71Y-1.015
X3.6181Y-2.1475
X3.815Y-2.1475
X4.8975Y-1.3875
X4.8975Y-1.6875
X3.465Y-0.79
X3.5634Y-0.79
X3.4475Y-1.65
X3.7475Y-1.65
X5.2025Y-0.8625
X5.2025Y-1.1625
X3.9Y-1.52
X4.0969Y-1.52
X5.8675Y-3.275
X6.0644Y-3.275
X5.8625Y-2.0025
X5.8625Y-2.3025
X5.1625Y-3.375
X5.3594Y-3.375
X6.1725Y-3.05
X6.1725Y-3.35
X2.5856Y-1.5
X2.7825Y-1.5
X5.4575Y-3.175
X5.4575Y-3.275
X5.4575Y-3.375
X5.4575Y-3.475
X5.7575Y-3.175
X5.7575Y-3.275
X5.7575Y-3.375
X5.7575Y-3.475
X4.8175Y-1.0075
X4.8175Y-1.2075
X4.9175Y-1.1075
X2.615Y-0.815
X2.615Y-1.115
X4.615Y-1.81
X4.615Y-1.9084
X5.875Y-0.8625
X5.875Y-1.1625
X5.4575Y-3.615
X5.7575Y-3.615
X4.575Y-3.385
X4.575Y-3.485
X4.575Y-3.585
X4.575Y-3.685
X4.875Y-3.385
X4.875Y-3.485
X4.875Y-3.585
X4.875Y-3.685
X3.285Y-3.28
X3.585Y-3.28
X3.285Y-3.695
X3.585Y-3.695
X4.4175Y-0.8275
X4.4175Y-1.1275
X4.18Y-3.385
X4.48Y-3.385
X5.46Y-1.795
X5.46Y-2.095
X4.015Y-2.0375
X4.315Y-2.0375
X4.98Y-3.7
X5.1769Y-3.7
X4.575Y-3.255
X4.875Y-3.255
X5.1681Y-2.68
X5.365Y-2.68
X5.4625Y-3.0
X5.7625Y-3.0
X4.0175Y-2.1775
X4.3175Y-2.1775
X5.8775Y-3.455
X6.1775Y-3.455
X5.075Y-0.8625
X5.075Y-1.1625
X4.0975Y-0.675
X4.3975Y-0.675
X4.55Y-0.9475
X4.55Y-1.1444
X3.9175Y-2.7475
X4.2175Y-2.7475
X4.18Y-3.585
X4.48Y-3.585
X2.93Y-0.815
X2.93Y-1.115
T3
X4.215Y-0.87
X4.215Y-0.97
T4
X2.4375Y-3.295
X2.4375Y-3.395
X3.235Y-0.815
X3.235Y-1.315
X3.335Y-1.015
X3.625Y-0.98
X3.725Y-0.98
X5.645Y-2.1025
X2.775Y-0.885
X5.705Y-2.3575
X5.705Y-2.4575
X2.775Y-1.06
X2.775Y-1.16
X5.31Y-2.0275
X2.745Y-3.295
X2.745Y-3.395
X2.745Y-3.495
X2.745Y-3.595
X4.32Y-2.4825
X2.735Y-0.69
X2.835Y-0.69
T5
X1.33Y-1.56
X1.33Y-3.36
X1.73Y-3.36
X2.13Y-1.56
X2.13Y-3.36
T6
X1.7431Y-0.99
X1.94Y-0.99
T7
X6.1175Y-0.8
X3.905Y-0.8
X1.3Y-0.8
X3.905Y-3.7
X6.1175Y-3.7
X1.28Y-3.7
T0
M30
